<svg xmlns="http://www.w3.org/2000/svg" xmlns:xlink="http://www.w3.org/1999/xlink" width="900" zoomAndPan="magnify" viewBox="0 0 675 449.999984" height="600" preserveAspectRatio="xMidYMid meet" version="1.0"><defs><g/><clipPath id="a03a9c9669"><path d="M 0 0 L 675 0 L 675 450 L 0 450 Z M 0 0 " clip-rule="nonzero"/></clipPath><clipPath id="e2288ffb92"><rect x="0" width="675" y="0" height="450"/></clipPath><clipPath id="899305e37e"><path d="M 9.332031 6.832031 L 667.667969 6.832031 L 667.667969 441.832031 L 9.332031 441.832031 Z M 9.332031 6.832031 " clip-rule="nonzero"/></clipPath><clipPath id="78cbbaefa7"><path d="M 0.332031 0.832031 L 658 0.832031 L 658 435.832031 L 0.332031 435.832031 Z M 0.332031 0.832031 " clip-rule="nonzero"/></clipPath><clipPath id="408ac123fb"><rect x="0" width="659" y="0" height="436"/></clipPath><clipPath id="3181c1f9d4"><path d="M 13.574219 6.832031 L 666.667969 6.832031 L 666.667969 15.832031 L 13.574219 15.832031 Z M 13.574219 6.832031 " clip-rule="nonzero"/></clipPath><clipPath id="61f4f9676b"><path d="M 0.574219 0.832031 L 653.667969 0.832031 L 653.667969 9.832031 L 0.574219 9.832031 Z M 0.574219 0.832031 " clip-rule="nonzero"/></clipPath><clipPath id="08b9d5721f"><rect x="0" width="654" y="0" height="10"/></clipPath><clipPath id="b5f2ee907d"><path d="M 9.339844 6.828125 L 17.820312 6.828125 L 17.820312 441.828125 L 9.339844 441.828125 Z M 9.339844 6.828125 " clip-rule="nonzero"/></clipPath><clipPath id="9524a844c8"><path d="M 0.339844 0.828125 L 8.820312 0.828125 L 8.820312 435.828125 L 0.339844 435.828125 Z M 0.339844 0.828125 " clip-rule="nonzero"/></clipPath><clipPath id="8264546eff"><rect x="0" width="9" y="0" height="436"/></clipPath><clipPath id="ff0a726d76"><path d="M 359.03125 149.296875 L 635.46875 149.296875 L 635.46875 155.710938 L 359.03125 155.710938 Z M 359.03125 149.296875 " clip-rule="nonzero"/></clipPath><clipPath id="8de89288a8"><path d="M 0.03125 0.296875 L 276.46875 0.296875 L 276.46875 6.710938 L 0.03125 6.710938 Z M 0.03125 0.296875 " clip-rule="nonzero"/></clipPath><clipPath id="a5b5940e8a"><rect x="0" width="277" y="0" height="7"/></clipPath><clipPath id="c702a12caf"><path d="M 359.03125 93.902344 L 635.46875 93.902344 L 635.46875 152.683594 L 359.03125 152.683594 Z M 359.03125 93.902344 " clip-rule="nonzero"/></clipPath><clipPath id="22ed950ec8"><path d="M 0.03125 0.902344 L 276.46875 0.902344 L 276.46875 59.683594 L 0.03125 59.683594 Z M 0.03125 0.902344 " clip-rule="nonzero"/></clipPath><clipPath id="ca258f39b2"><rect x="0" width="277" y="0" height="60"/></clipPath><clipPath id="76c689f87c"><path d="M 362.265625 97.285156 L 632.234375 97.285156 L 632.234375 149.296875 L 362.265625 149.296875 Z M 362.265625 97.285156 " clip-rule="nonzero"/></clipPath><clipPath id="8cc6fea252"><path d="M 0.265625 0.285156 L 270.234375 0.285156 L 270.234375 52.296875 L 0.265625 52.296875 Z M 0.265625 0.285156 " clip-rule="nonzero"/></clipPath><clipPath id="591ff9f6a3"><rect x="0" width="271" y="0" height="53"/></clipPath><clipPath id="9d674f13a3"><path d="M 362.265625 97.285156 L 366.917969 97.285156 L 366.917969 149.296875 L 362.265625 149.296875 Z M 362.265625 97.285156 " clip-rule="nonzero"/></clipPath><clipPath id="49d48fb782"><path d="M 0.265625 0.285156 L 4.917969 0.285156 L 4.917969 52.296875 L 0.265625 52.296875 Z M 0.265625 0.285156 " clip-rule="nonzero"/></clipPath><clipPath id="0bd582ffb7"><rect x="0" width="5" y="0" height="53"/></clipPath><clipPath id="f261204449"><path d="M 362.265625 97.285156 L 632.234375 97.285156 L 632.234375 101.035156 L 362.265625 101.035156 Z M 362.265625 97.285156 " clip-rule="nonzero"/></clipPath><clipPath id="e757ed7484"><path d="M 0.265625 0.285156 L 270.234375 0.285156 L 270.234375 4.035156 L 0.265625 4.035156 Z M 0.265625 0.285156 " clip-rule="nonzero"/></clipPath><clipPath id="8c4db4b4ea"><rect x="0" width="271" y="0" height="5"/></clipPath><clipPath id="0ec3192d1b"><path d="M 0.523438 28.429688 L 28.160156 28.429688 L 28.160156 31.0625 L 0.523438 31.0625 Z M 0.523438 28.429688 " clip-rule="nonzero"/></clipPath><clipPath id="cf375c172e"><path d="M 0.523438 0.429688 L 28.160156 0.429688 L 28.160156 3.0625 L 0.523438 3.0625 Z M 0.523438 0.429688 " clip-rule="nonzero"/></clipPath><clipPath id="87de1aa017"><rect x="0" width="29" y="0" height="4"/></clipPath><clipPath id="c4106ab0e2"><path d="M 0.523438 0.546875 L 28.160156 0.546875 L 28.160156 29.746094 L 0.523438 29.746094 Z M 0.523438 0.546875 " clip-rule="nonzero"/></clipPath><clipPath id="6f73bde09e"><path d="M 0.523438 0.546875 L 28.160156 0.546875 L 28.160156 29.746094 L 0.523438 29.746094 Z M 0.523438 0.546875 " clip-rule="nonzero"/></clipPath><clipPath id="1d65e14a9e"><rect x="0" width="29" y="0" height="30"/></clipPath><clipPath id="8cde851705"><path d="M 2.28125 2.359375 L 26.40625 2.359375 L 26.40625 27.933594 L 2.28125 27.933594 Z M 2.28125 2.359375 " clip-rule="nonzero"/></clipPath><clipPath id="c46ae5f118"><path d="M 0.28125 0.359375 L 24.40625 0.359375 L 24.40625 25.933594 L 0.28125 25.933594 Z M 0.28125 0.359375 " clip-rule="nonzero"/></clipPath><clipPath id="a7c6437399"><rect x="0" width="25" y="0" height="26"/></clipPath><clipPath id="28cc485a02"><rect x="0" width="29" y="0" height="32"/></clipPath><clipPath id="75454c0794"><path d="M 359.03125 227.449219 L 635.46875 227.449219 L 635.46875 233.859375 L 359.03125 233.859375 Z M 359.03125 227.449219 " clip-rule="nonzero"/></clipPath><clipPath id="d43c198808"><path d="M 0.03125 0.449219 L 276.46875 0.449219 L 276.46875 6.859375 L 0.03125 6.859375 Z M 0.03125 0.449219 " clip-rule="nonzero"/></clipPath><clipPath id="d72f6c173c"><rect x="0" width="277" y="0" height="7"/></clipPath><clipPath id="53a2092334"><path d="M 359.03125 172.050781 L 635.46875 172.050781 L 635.46875 230.832031 L 359.03125 230.832031 Z M 359.03125 172.050781 " clip-rule="nonzero"/></clipPath><clipPath id="707f938651"><path d="M 0.03125 0.0507812 L 276.46875 0.0507812 L 276.46875 58.832031 L 0.03125 58.832031 Z M 0.03125 0.0507812 " clip-rule="nonzero"/></clipPath><clipPath id="b1f70cb20e"><rect x="0" width="277" y="0" height="59"/></clipPath><clipPath id="d37623a1c9"><path d="M 362.265625 175.4375 L 632.234375 175.4375 L 632.234375 227.449219 L 362.265625 227.449219 Z M 362.265625 175.4375 " clip-rule="nonzero"/></clipPath><clipPath id="84d2ea854e"><path d="M 0.265625 0.4375 L 270.234375 0.4375 L 270.234375 52.449219 L 0.265625 52.449219 Z M 0.265625 0.4375 " clip-rule="nonzero"/></clipPath><clipPath id="a484bc6aa3"><rect x="0" width="271" y="0" height="53"/></clipPath><clipPath id="96a0b9b597"><path d="M 362.265625 175.4375 L 366.917969 175.4375 L 366.917969 227.449219 L 362.265625 227.449219 Z M 362.265625 175.4375 " clip-rule="nonzero"/></clipPath><clipPath id="66265b8ead"><path d="M 0.265625 0.4375 L 4.917969 0.4375 L 4.917969 52.449219 L 0.265625 52.449219 Z M 0.265625 0.4375 " clip-rule="nonzero"/></clipPath><clipPath id="2d4b1740b6"><rect x="0" width="5" y="0" height="53"/></clipPath><clipPath id="4b4e1dfc8f"><path d="M 362.265625 175.433594 L 632.234375 175.433594 L 632.234375 179.183594 L 362.265625 179.183594 Z M 362.265625 175.433594 " clip-rule="nonzero"/></clipPath><clipPath id="7ce7da8970"><path d="M 0.265625 0.433594 L 270.234375 0.433594 L 270.234375 4.183594 L 0.265625 4.183594 Z M 0.265625 0.433594 " clip-rule="nonzero"/></clipPath><clipPath id="046f2119a9"><rect x="0" width="271" y="0" height="5"/></clipPath><clipPath id="cc58c0bc9b"><path d="M 0.523438 28.582031 L 28.160156 28.582031 L 28.160156 31.214844 L 0.523438 31.214844 Z M 0.523438 28.582031 " clip-rule="nonzero"/></clipPath><clipPath id="478d7ac458"><path d="M 0.523438 0.582031 L 28.160156 0.582031 L 28.160156 3.214844 L 0.523438 3.214844 Z M 0.523438 0.582031 " clip-rule="nonzero"/></clipPath><clipPath id="1f3f4765e7"><rect x="0" width="29" y="0" height="4"/></clipPath><clipPath id="f75b5db43b"><path d="M 0.523438 0.699219 L 28.160156 0.699219 L 28.160156 29.898438 L 0.523438 29.898438 Z M 0.523438 0.699219 " clip-rule="nonzero"/></clipPath><clipPath id="c5f8670a09"><path d="M 0.523438 0.699219 L 28.160156 0.699219 L 28.160156 29.898438 L 0.523438 29.898438 Z M 0.523438 0.699219 " clip-rule="nonzero"/></clipPath><clipPath id="82ecf66d0e"><rect x="0" width="29" y="0" height="30"/></clipPath><clipPath id="74afb71995"><path d="M 2.28125 2.511719 L 26.40625 2.511719 L 26.40625 28.085938 L 2.28125 28.085938 Z M 2.28125 2.511719 " clip-rule="nonzero"/></clipPath><clipPath id="caab58c838"><path d="M 0.28125 0.511719 L 24.40625 0.511719 L 24.40625 26.085938 L 0.28125 26.085938 Z M 0.28125 0.511719 " clip-rule="nonzero"/></clipPath><clipPath id="b16330323c"><rect x="0" width="25" y="0" height="27"/></clipPath><clipPath id="5f4e0ef97d"><rect x="0" width="29" y="0" height="32"/></clipPath><clipPath id="4588a8064b"><path d="M 359.03125 305.757812 L 635.46875 305.757812 L 635.46875 312.167969 L 359.03125 312.167969 Z M 359.03125 305.757812 " clip-rule="nonzero"/></clipPath><clipPath id="c63ce72ed0"><path d="M 0.03125 0.757812 L 276.46875 0.757812 L 276.46875 7.167969 L 0.03125 7.167969 Z M 0.03125 0.757812 " clip-rule="nonzero"/></clipPath><clipPath id="3e5adf13e5"><rect x="0" width="277" y="0" height="8"/></clipPath><clipPath id="3ba88283b5"><path d="M 359.03125 250.359375 L 635.46875 250.359375 L 635.46875 309.140625 L 359.03125 309.140625 Z M 359.03125 250.359375 " clip-rule="nonzero"/></clipPath><clipPath id="8f8bf73e3e"><path d="M 0.03125 0.359375 L 276.46875 0.359375 L 276.46875 59.140625 L 0.03125 59.140625 Z M 0.03125 0.359375 " clip-rule="nonzero"/></clipPath><clipPath id="50990bcbb6"><rect x="0" width="277" y="0" height="60"/></clipPath><clipPath id="77cab6f956"><path d="M 362.265625 253.746094 L 632.234375 253.746094 L 632.234375 305.757812 L 362.265625 305.757812 Z M 362.265625 253.746094 " clip-rule="nonzero"/></clipPath><clipPath id="3cbb719c69"><path d="M 0.265625 0.746094 L 270.234375 0.746094 L 270.234375 52.757812 L 0.265625 52.757812 Z M 0.265625 0.746094 " clip-rule="nonzero"/></clipPath><clipPath id="89c87dc69c"><rect x="0" width="271" y="0" height="53"/></clipPath><clipPath id="a242e70502"><path d="M 362.265625 253.746094 L 366.917969 253.746094 L 366.917969 305.757812 L 362.265625 305.757812 Z M 362.265625 253.746094 " clip-rule="nonzero"/></clipPath><clipPath id="8e3cac1516"><path d="M 0.265625 0.746094 L 4.917969 0.746094 L 4.917969 52.757812 L 0.265625 52.757812 Z M 0.265625 0.746094 " clip-rule="nonzero"/></clipPath><clipPath id="dca27299d8"><rect x="0" width="5" y="0" height="53"/></clipPath><clipPath id="53e44c60e5"><path d="M 362.265625 253.742188 L 632.234375 253.742188 L 632.234375 257.492188 L 362.265625 257.492188 Z M 362.265625 253.742188 " clip-rule="nonzero"/></clipPath><clipPath id="9b935d0165"><path d="M 0.265625 0.742188 L 270.234375 0.742188 L 270.234375 4.492188 L 0.265625 4.492188 Z M 0.265625 0.742188 " clip-rule="nonzero"/></clipPath><clipPath id="7902e895a1"><rect x="0" width="271" y="0" height="5"/></clipPath><clipPath id="e527e45a7c"><path d="M 0.523438 28.890625 L 28.160156 28.890625 L 28.160156 31.523438 L 0.523438 31.523438 Z M 0.523438 28.890625 " clip-rule="nonzero"/></clipPath><clipPath id="dae7ac6c95"><path d="M 0.523438 0.890625 L 28.160156 0.890625 L 28.160156 3.523438 L 0.523438 3.523438 Z M 0.523438 0.890625 " clip-rule="nonzero"/></clipPath><clipPath id="b19c4b718c"><rect x="0" width="29" y="0" height="4"/></clipPath><clipPath id="09a882b912"><path d="M 0.523438 1.007812 L 28.160156 1.007812 L 28.160156 30.207031 L 0.523438 30.207031 Z M 0.523438 1.007812 " clip-rule="nonzero"/></clipPath><clipPath id="ddfb7d1661"><path d="M 0.523438 0.0078125 L 28.160156 0.0078125 L 28.160156 29.207031 L 0.523438 29.207031 Z M 0.523438 0.0078125 " clip-rule="nonzero"/></clipPath><clipPath id="61ac39e2d2"><rect x="0" width="29" y="0" height="30"/></clipPath><clipPath id="6d1b4eee95"><path d="M 2.28125 2.820312 L 26.40625 2.820312 L 26.40625 28.394531 L 2.28125 28.394531 Z M 2.28125 2.820312 " clip-rule="nonzero"/></clipPath><clipPath id="3e10219775"><path d="M 0.28125 0.820312 L 24.40625 0.820312 L 24.40625 26.394531 L 0.28125 26.394531 Z M 0.28125 0.820312 " clip-rule="nonzero"/></clipPath><clipPath id="cf78184b81"><rect x="0" width="25" y="0" height="27"/></clipPath><clipPath id="224574f3ee"><rect x="0" width="29" y="0" height="32"/></clipPath><clipPath id="fc62a54c87"><path d="M 359.03125 384.066406 L 635.46875 384.066406 L 635.46875 390.476562 L 359.03125 390.476562 Z M 359.03125 384.066406 " clip-rule="nonzero"/></clipPath><clipPath id="e374b87036"><path d="M 0.03125 0.0664062 L 276.46875 0.0664062 L 276.46875 6.476562 L 0.03125 6.476562 Z M 0.03125 0.0664062 " clip-rule="nonzero"/></clipPath><clipPath id="b905db3ece"><rect x="0" width="277" y="0" height="7"/></clipPath><clipPath id="b4090bbec7"><path d="M 359.03125 328.667969 L 635.46875 328.667969 L 635.46875 387.449219 L 359.03125 387.449219 Z M 359.03125 328.667969 " clip-rule="nonzero"/></clipPath><clipPath id="9239930648"><path d="M 0.03125 0.667969 L 276.46875 0.667969 L 276.46875 59.449219 L 0.03125 59.449219 Z M 0.03125 0.667969 " clip-rule="nonzero"/></clipPath><clipPath id="57168c15ce"><rect x="0" width="277" y="0" height="60"/></clipPath><clipPath id="e5f43ed202"><path d="M 362.265625 332.054688 L 632.234375 332.054688 L 632.234375 384.066406 L 362.265625 384.066406 Z M 362.265625 332.054688 " clip-rule="nonzero"/></clipPath><clipPath id="bb8f67274f"><path d="M 0.265625 0.0546875 L 270.234375 0.0546875 L 270.234375 52.066406 L 0.265625 52.066406 Z M 0.265625 0.0546875 " clip-rule="nonzero"/></clipPath><clipPath id="bd75432cb8"><rect x="0" width="271" y="0" height="53"/></clipPath><clipPath id="c15f7af5ac"><path d="M 362.265625 332.054688 L 366.917969 332.054688 L 366.917969 384.066406 L 362.265625 384.066406 Z M 362.265625 332.054688 " clip-rule="nonzero"/></clipPath><clipPath id="969aa6d58c"><path d="M 0.265625 0.0546875 L 4.917969 0.0546875 L 4.917969 52.066406 L 0.265625 52.066406 Z M 0.265625 0.0546875 " clip-rule="nonzero"/></clipPath><clipPath id="e1d7d05f01"><rect x="0" width="5" y="0" height="53"/></clipPath><clipPath id="e0113b6a82"><path d="M 362.265625 332.050781 L 632.234375 332.050781 L 632.234375 335.800781 L 362.265625 335.800781 Z M 362.265625 332.050781 " clip-rule="nonzero"/></clipPath><clipPath id="be52855c9c"><path d="M 0.265625 0.0507812 L 270.234375 0.0507812 L 270.234375 3.800781 L 0.265625 3.800781 Z M 0.265625 0.0507812 " clip-rule="nonzero"/></clipPath><clipPath id="9b92a65eae"><rect x="0" width="271" y="0" height="4"/></clipPath><clipPath id="c8e93d841a"><path d="M 0.523438 28.199219 L 28.160156 28.199219 L 28.160156 30.832031 L 0.523438 30.832031 Z M 0.523438 28.199219 " clip-rule="nonzero"/></clipPath><clipPath id="b7a49919fc"><path d="M 0.523438 0.199219 L 28.160156 0.199219 L 28.160156 2.832031 L 0.523438 2.832031 Z M 0.523438 0.199219 " clip-rule="nonzero"/></clipPath><clipPath id="9846fff463"><rect x="0" width="29" y="0" height="3"/></clipPath><clipPath id="aa7d6000f5"><path d="M 0.523438 0.316406 L 28.160156 0.316406 L 28.160156 29.515625 L 0.523438 29.515625 Z M 0.523438 0.316406 " clip-rule="nonzero"/></clipPath><clipPath id="317c723b80"><path d="M 0.523438 0.316406 L 28.160156 0.316406 L 28.160156 29.515625 L 0.523438 29.515625 Z M 0.523438 0.316406 " clip-rule="nonzero"/></clipPath><clipPath id="7571d0c360"><rect x="0" width="29" y="0" height="30"/></clipPath><clipPath id="cb71a54976"><path d="M 2.28125 2.128906 L 26.40625 2.128906 L 26.40625 27.703125 L 2.28125 27.703125 Z M 2.28125 2.128906 " clip-rule="nonzero"/></clipPath><clipPath id="357909d43e"><path d="M 0.28125 0.128906 L 24.40625 0.128906 L 24.40625 25.703125 L 0.28125 25.703125 Z M 0.28125 0.128906 " clip-rule="nonzero"/></clipPath><clipPath id="0cbb34334b"><rect x="0" width="25" y="0" height="26"/></clipPath><clipPath id="b6e4be2a61"><rect x="0" width="29" y="0" height="31"/></clipPath><clipPath id="f1ab737cae"><path d="M 0.160156 1 L 14 1 L 14 15 L 0.160156 15 Z M 0.160156 1 " clip-rule="nonzero"/></clipPath><clipPath id="a9345f09d9"><path d="M 60 16 L 61 16 L 61 16.238281 L 60 16.238281 Z M 60 16 " clip-rule="nonzero"/></clipPath><clipPath id="b30375630f"><rect x="0" width="107" y="0" height="17"/></clipPath><clipPath id="29e817e528"><path d="M 0.0390625 0.121094 L 14 0.121094 L 14 14 L 0.0390625 14 Z M 0.0390625 0.121094 " clip-rule="nonzero"/></clipPath><clipPath id="3da1ac429b"><path d="M 15 0.121094 L 29 0.121094 L 29 14 L 15 14 Z M 15 0.121094 " clip-rule="nonzero"/></clipPath><clipPath id="7f981b4fa5"><path d="M 30 0.121094 L 44 0.121094 L 44 14 L 30 14 Z M 30 0.121094 " clip-rule="nonzero"/></clipPath><clipPath id="0104ffab04"><path d="M 45 0.121094 L 59 0.121094 L 59 14 L 45 14 Z M 45 0.121094 " clip-rule="nonzero"/></clipPath><clipPath id="0c1e20ac55"><path d="M 60 15 L 61 15 L 61 15.480469 L 60 15.480469 Z M 60 15 " clip-rule="nonzero"/></clipPath><clipPath id="573414fe5a"><path d="M 77 0.121094 L 90 0.121094 L 90 14 L 77 14 Z M 77 0.121094 " clip-rule="nonzero"/></clipPath><clipPath id="eac391063c"><path d="M 90 0.121094 L 105 0.121094 L 105 14 L 90 14 Z M 90 0.121094 " clip-rule="nonzero"/></clipPath><clipPath id="e927ecdc06"><path d="M 105 0.121094 L 120 0.121094 L 120 14 L 105 14 Z M 105 0.121094 " clip-rule="nonzero"/></clipPath><clipPath id="b27ef7b3fa"><path d="M 122 0.121094 L 135 0.121094 L 135 14 L 122 14 Z M 122 0.121094 " clip-rule="nonzero"/></clipPath><clipPath id="80dafcd51c"><rect x="0" width="137" y="0" height="16"/></clipPath><clipPath id="8e452c911c"><path d="M 0.0390625 0.359375 L 14 0.359375 L 14 14 L 0.0390625 14 Z M 0.0390625 0.359375 " clip-rule="nonzero"/></clipPath><clipPath id="8796d9b1bb"><path d="M 15 0.359375 L 29 0.359375 L 29 14 L 15 14 Z M 15 0.359375 " clip-rule="nonzero"/></clipPath><clipPath id="610ed9d806"><path d="M 30 0.359375 L 44 0.359375 L 44 14 L 30 14 Z M 30 0.359375 " clip-rule="nonzero"/></clipPath><clipPath id="7a55d35a9e"><path d="M 45 0.359375 L 59 0.359375 L 59 14 L 45 14 Z M 45 0.359375 " clip-rule="nonzero"/></clipPath><clipPath id="75ed780559"><path d="M 60 15 L 61 15 L 61 15.71875 L 60 15.71875 Z M 60 15 " clip-rule="nonzero"/></clipPath><clipPath id="8bcbb48a3c"><path d="M 75 0.359375 L 90 0.359375 L 90 14 L 75 14 Z M 75 0.359375 " clip-rule="nonzero"/></clipPath><clipPath id="2895fca667"><path d="M 90 0.359375 L 105 0.359375 L 105 14 L 90 14 Z M 90 0.359375 " clip-rule="nonzero"/></clipPath><clipPath id="c0982a222a"><path d="M 105 0.359375 L 120 0.359375 L 120 14 L 105 14 Z M 105 0.359375 " clip-rule="nonzero"/></clipPath><clipPath id="c4eeb0a8dd"><path d="M 121 0.359375 L 135 0.359375 L 135 14 L 121 14 Z M 121 0.359375 " clip-rule="nonzero"/></clipPath><clipPath id="33308616bf"><rect x="0" width="137" y="0" height="16"/></clipPath><clipPath id="f2f6fd4338"><path d="M 0.0390625 0.601562 L 14 0.601562 L 14 15 L 0.0390625 15 Z M 0.0390625 0.601562 " clip-rule="nonzero"/></clipPath><clipPath id="fbcc80635a"><path d="M 15 0.601562 L 29 0.601562 L 29 15 L 15 15 Z M 15 0.601562 " clip-rule="nonzero"/></clipPath><clipPath id="357805a199"><path d="M 30 0.601562 L 44 0.601562 L 44 15 L 30 15 Z M 30 0.601562 " clip-rule="nonzero"/></clipPath><clipPath id="7df889587e"><path d="M 45 0.601562 L 59 0.601562 L 59 15 L 45 15 Z M 45 0.601562 " clip-rule="nonzero"/></clipPath><clipPath id="052464146e"><path d="M 77 0.601562 L 90 0.601562 L 90 15 L 77 15 Z M 77 0.601562 " clip-rule="nonzero"/></clipPath><clipPath id="675ff438bb"><path d="M 90 0.601562 L 105 0.601562 L 105 15 L 90 15 Z M 90 0.601562 " clip-rule="nonzero"/></clipPath><clipPath id="3be98f83a7"><path d="M 105 0.601562 L 120 0.601562 L 120 15 L 105 15 Z M 105 0.601562 " clip-rule="nonzero"/></clipPath><clipPath id="bcde5e8b84"><path d="M 122 0.601562 L 135 0.601562 L 135 15 L 122 15 Z M 122 0.601562 " clip-rule="nonzero"/></clipPath><clipPath id="09debec02f"><rect x="0" width="137" y="0" height="17"/></clipPath><clipPath id="96d53dd5c7"><path d="M 132.214844 212.046875 L 216.398438 212.046875 L 216.398438 221.042969 L 132.214844 221.042969 Z M 132.214844 212.046875 " clip-rule="nonzero"/></clipPath><clipPath id="d266f1a87a"><path d="M 0.214844 0.046875 L 84.398438 0.046875 L 84.398438 9.042969 L 0.214844 9.042969 Z M 0.214844 0.046875 " clip-rule="nonzero"/></clipPath><clipPath id="27435ee162"><rect x="0" width="85" y="0" height="10"/></clipPath><clipPath id="77311ca219"><path d="M 132.214844 134.320312 L 216.398438 134.320312 L 216.398438 216.792969 L 132.214844 216.792969 Z M 132.214844 134.320312 " clip-rule="nonzero"/></clipPath><clipPath id="55ca28e055"><path d="M 0.214844 0.320312 L 84.398438 0.320312 L 84.398438 82.792969 L 0.214844 82.792969 Z M 0.214844 0.320312 " clip-rule="nonzero"/></clipPath><clipPath id="79156b6231"><rect x="0" width="85" y="0" height="83"/></clipPath><clipPath id="33f9ad3666"><path d="M 136.75 139.070312 L 209.636719 139.070312 L 209.636719 212.046875 L 136.75 212.046875 Z M 136.75 139.070312 " clip-rule="nonzero"/></clipPath><clipPath id="1f406534de"><path d="M 0.75 0.0703125 L 73.636719 0.0703125 L 73.636719 73 L 0.75 73 Z M 0.75 0.0703125 " clip-rule="nonzero"/></clipPath><clipPath id="fe3954f2b9"><rect x="0" width="74" y="0" height="74"/></clipPath><clipPath id="e5c1457983"><path d="M 136.75 139.070312 L 143.28125 139.070312 L 143.28125 212.046875 L 136.75 212.046875 Z M 136.75 139.070312 " clip-rule="nonzero"/></clipPath><clipPath id="64abb02e60"><path d="M 0.75 0.0703125 L 7.28125 0.0703125 L 7.28125 73.046875 L 0.75 73.046875 Z M 0.75 0.0703125 " clip-rule="nonzero"/></clipPath><clipPath id="60dd83a623"><rect x="0" width="8" y="0" height="74"/></clipPath><clipPath id="65c6c8525b"><path d="M 136.75 139.058594 L 209.636719 139.058594 L 209.636719 144.320312 L 136.75 144.320312 Z M 136.75 139.058594 " clip-rule="nonzero"/></clipPath><clipPath id="b70cc5124c"><path d="M 0.75 0.0585938 L 73.636719 0.0585938 L 73.636719 5.320312 L 0.75 5.320312 Z M 0.75 0.0585938 " clip-rule="nonzero"/></clipPath><clipPath id="c7012d292d"><rect x="0" width="74" y="0" height="6"/></clipPath><clipPath id="6a6cc99e1b"><path d="M 132.214844 303.171875 L 216.398438 303.171875 L 216.398438 312.167969 L 132.214844 312.167969 Z M 132.214844 303.171875 " clip-rule="nonzero"/></clipPath><clipPath id="f3ccf454a6"><path d="M 0.214844 0.171875 L 84.398438 0.171875 L 84.398438 9.167969 L 0.214844 9.167969 Z M 0.214844 0.171875 " clip-rule="nonzero"/></clipPath><clipPath id="87d60ddca3"><rect x="0" width="85" y="0" height="10"/></clipPath><clipPath id="0b83695771"><path d="M 132.214844 225.445312 L 216.398438 225.445312 L 216.398438 307.921875 L 132.214844 307.921875 Z M 132.214844 225.445312 " clip-rule="nonzero"/></clipPath><clipPath id="85f1f3c846"><path d="M 0.214844 0.445312 L 84.398438 0.445312 L 84.398438 82.921875 L 0.214844 82.921875 Z M 0.214844 0.445312 " clip-rule="nonzero"/></clipPath><clipPath id="154376c947"><rect x="0" width="85" y="0" height="83"/></clipPath><clipPath id="02ed9844f8"><path d="M 136.75 230.195312 L 209.636719 230.195312 L 209.636719 303.171875 L 136.75 303.171875 Z M 136.75 230.195312 " clip-rule="nonzero"/></clipPath><clipPath id="a11ad09845"><path d="M 0.75 0.195312 L 73.636719 0.195312 L 73.636719 73.171875 L 0.75 73.171875 Z M 0.75 0.195312 " clip-rule="nonzero"/></clipPath><clipPath id="c22712a40c"><rect x="0" width="74" y="0" height="74"/></clipPath><clipPath id="8de5f4f2d3"><path d="M 136.75 230.195312 L 143.28125 230.195312 L 143.28125 303.171875 L 136.75 303.171875 Z M 136.75 230.195312 " clip-rule="nonzero"/></clipPath><clipPath id="2c66687d5e"><path d="M 0.75 0.195312 L 7.28125 0.195312 L 7.28125 73.171875 L 0.75 73.171875 Z M 0.75 0.195312 " clip-rule="nonzero"/></clipPath><clipPath id="6889d3f95b"><rect x="0" width="8" y="0" height="74"/></clipPath><clipPath id="e30bcd88a5"><path d="M 136.75 230.1875 L 209.636719 230.1875 L 209.636719 235.449219 L 136.75 235.449219 Z M 136.75 230.1875 " clip-rule="nonzero"/></clipPath><clipPath id="fc41716dbf"><path d="M 0.75 0.1875 L 73.636719 0.1875 L 73.636719 5.449219 L 0.75 5.449219 Z M 0.75 0.1875 " clip-rule="nonzero"/></clipPath><clipPath id="5ae3f347db"><rect x="0" width="74" y="0" height="6"/></clipPath><clipPath id="292d39c577"><path d="M 40.503906 303.171875 L 124.6875 303.171875 L 124.6875 312.167969 L 40.503906 312.167969 Z M 40.503906 303.171875 " clip-rule="nonzero"/></clipPath><clipPath id="3a41e6cf79"><path d="M 0.503906 0.171875 L 84.6875 0.171875 L 84.6875 9.167969 L 0.503906 9.167969 Z M 0.503906 0.171875 " clip-rule="nonzero"/></clipPath><clipPath id="f67237964e"><rect x="0" width="85" y="0" height="10"/></clipPath><clipPath id="d07b17e419"><path d="M 40.503906 225.445312 L 124.6875 225.445312 L 124.6875 307.921875 L 40.503906 307.921875 Z M 40.503906 225.445312 " clip-rule="nonzero"/></clipPath><clipPath id="270ef32519"><path d="M 0.503906 0.445312 L 84.6875 0.445312 L 84.6875 82.921875 L 0.503906 82.921875 Z M 0.503906 0.445312 " clip-rule="nonzero"/></clipPath><clipPath id="3c5b1f88d2"><rect x="0" width="85" y="0" height="83"/></clipPath><clipPath id="59759cecd1"><path d="M 45.039062 230.195312 L 117.925781 230.195312 L 117.925781 303.171875 L 45.039062 303.171875 Z M 45.039062 230.195312 " clip-rule="nonzero"/></clipPath><clipPath id="e4d709cfdf"><path d="M 0.0390625 0.195312 L 72.925781 0.195312 L 72.925781 73.171875 L 0.0390625 73.171875 Z M 0.0390625 0.195312 " clip-rule="nonzero"/></clipPath><clipPath id="99e8d1385b"><rect x="0" width="73" y="0" height="74"/></clipPath><clipPath id="45a1f9a8e9"><path d="M 45.039062 230.195312 L 51.570312 230.195312 L 51.570312 303.171875 L 45.039062 303.171875 Z M 45.039062 230.195312 " clip-rule="nonzero"/></clipPath><clipPath id="38863480de"><path d="M 0.0390625 0.195312 L 6.570312 0.195312 L 6.570312 73.171875 L 0.0390625 73.171875 Z M 0.0390625 0.195312 " clip-rule="nonzero"/></clipPath><clipPath id="2dd9c87e10"><rect x="0" width="7" y="0" height="74"/></clipPath><clipPath id="78bddb6300"><path d="M 45.039062 230.1875 L 117.925781 230.1875 L 117.925781 235.449219 L 45.039062 235.449219 Z M 45.039062 230.1875 " clip-rule="nonzero"/></clipPath><clipPath id="29eabf3916"><path d="M 0.0390625 0.1875 L 72.925781 0.1875 L 72.925781 5.449219 L 0.0390625 5.449219 Z M 0.0390625 0.1875 " clip-rule="nonzero"/></clipPath><clipPath id="0350beee10"><rect x="0" width="73" y="0" height="6"/></clipPath><clipPath id="210dea0906"><path d="M 223.898438 303.171875 L 308.082031 303.171875 L 308.082031 312.167969 L 223.898438 312.167969 Z M 223.898438 303.171875 " clip-rule="nonzero"/></clipPath><clipPath id="6a2db6107b"><path d="M 0.898438 0.171875 L 85.082031 0.171875 L 85.082031 9.167969 L 0.898438 9.167969 Z M 0.898438 0.171875 " clip-rule="nonzero"/></clipPath><clipPath id="8411d05e6d"><rect x="0" width="86" y="0" height="10"/></clipPath><clipPath id="68a9f8353d"><path d="M 223.898438 225.445312 L 308.082031 225.445312 L 308.082031 307.921875 L 223.898438 307.921875 Z M 223.898438 225.445312 " clip-rule="nonzero"/></clipPath><clipPath id="5645bd20c3"><path d="M 0.898438 0.445312 L 85 0.445312 L 85 82.921875 L 0.898438 82.921875 Z M 0.898438 0.445312 " clip-rule="nonzero"/></clipPath><clipPath id="8773a77fae"><rect x="0" width="86" y="0" height="83"/></clipPath><clipPath id="98687bfe1b"><path d="M 228.4375 230.195312 L 301.320312 230.195312 L 301.320312 303.171875 L 228.4375 303.171875 Z M 228.4375 230.195312 " clip-rule="nonzero"/></clipPath><clipPath id="8fb0e43306"><path d="M 0.4375 0.195312 L 73.320312 0.195312 L 73.320312 73.171875 L 0.4375 73.171875 Z M 0.4375 0.195312 " clip-rule="nonzero"/></clipPath><clipPath id="487b3cf7b3"><rect x="0" width="74" y="0" height="74"/></clipPath><clipPath id="55fc9b89fc"><path d="M 228.4375 230.195312 L 234.96875 230.195312 L 234.96875 303.171875 L 228.4375 303.171875 Z M 228.4375 230.195312 " clip-rule="nonzero"/></clipPath><clipPath id="a2991a42a4"><path d="M 0.4375 0.195312 L 6.96875 0.195312 L 6.96875 73.171875 L 0.4375 73.171875 Z M 0.4375 0.195312 " clip-rule="nonzero"/></clipPath><clipPath id="11594b918d"><rect x="0" width="7" y="0" height="74"/></clipPath><clipPath id="a868adecec"><path d="M 228.433594 230.1875 L 301.320312 230.1875 L 301.320312 235.449219 L 228.433594 235.449219 Z M 228.433594 230.1875 " clip-rule="nonzero"/></clipPath><clipPath id="9f1b71ab15"><path d="M 0.433594 0.1875 L 73.320312 0.1875 L 73.320312 5.449219 L 0.433594 5.449219 Z M 0.433594 0.1875 " clip-rule="nonzero"/></clipPath><clipPath id="e938d788eb"><rect x="0" width="74" y="0" height="6"/></clipPath><clipPath id="9836997aac"><rect x="0" width="29" y="0" height="41"/></clipPath><clipPath id="31a5c6c9ef"><path d="M 0.28125 9 L 21 9 L 21 31 L 0.28125 31 Z M 0.28125 9 " clip-rule="nonzero"/></clipPath><clipPath id="6755752df1"><rect x="0" width="23" y="0" height="41"/></clipPath><clipPath id="63d33c407e"><rect x="0" width="19" y="0" height="40"/></clipPath><clipPath id="60de99b4d0"><rect x="0" width="25" y="0" height="40"/></clipPath><clipPath id="97a2355366"><rect x="0" width="15" y="0" height="20"/></clipPath><clipPath id="2efa6d2cbb"><path d="M 0.398438 4 L 10 4 L 10 15 L 0.398438 15 Z M 0.398438 4 " clip-rule="nonzero"/></clipPath><clipPath id="89413570b2"><rect x="0" width="11" y="0" height="20"/></clipPath><clipPath id="ccf18b15e5"><path d="M 0.398438 5 L 9 5 L 9 16 L 0.398438 16 Z M 0.398438 5 " clip-rule="nonzero"/></clipPath><clipPath id="426ee45e1c"><rect x="0" width="10" y="0" height="20"/></clipPath><clipPath id="5f46d1fb86"><rect x="0" width="13" y="0" height="20"/></clipPath></defs><rect x="-67.5" width="810" fill="#ffffff" y="-44.999998" height="539.99998" fill-opacity="1"/><rect x="-67.5" width="810" fill="#7dbcf6" y="-44.999998" height="539.99998" fill-opacity="1"/><g transform="matrix(1, 0, 0, 1, 0, 0)"><g clip-path="url(#e2288ffb92)"><g clip-path="url(#a03a9c9669)"><rect x="-148.5" width="972" fill="#307476" height="647.999977" y="-98.999996" fill-opacity="1"/></g></g></g><g clip-path="url(#899305e37e)"><g transform="matrix(1, 0, 0, 1, 9, 6)"><g clip-path="url(#408ac123fb)"><g clip-path="url(#78cbbaefa7)"><path fill="#5ce1e6" d="M 0.332031 0.832031 L 657.929688 0.832031 L 657.929688 435.832031 L 0.332031 435.832031 Z M 0.332031 0.832031 " fill-opacity="1" fill-rule="nonzero"/></g></g></g></g><g clip-path="url(#3181c1f9d4)"><g transform="matrix(1, 0, 0, 1, 13, 6)"><g clip-path="url(#08b9d5721f)"><g clip-path="url(#61f4f9676b)"><path fill="#f2f2f2" d="M 0.574219 0.832031 L 653.671875 0.832031 L 653.671875 9.832031 L 0.574219 9.832031 Z M 0.574219 0.832031 " fill-opacity="1" fill-rule="nonzero"/></g></g></g></g><g clip-path="url(#b5f2ee907d)"><g transform="matrix(1, 0, 0, 1, 9, 6)"><g clip-path="url(#8264546eff)"><g clip-path="url(#9524a844c8)"><path fill="#f2f2f2" d="M 0.339844 435.828125 L 0.339844 0.824219 L 8.820312 0.824219 L 8.820312 435.828125 Z M 0.339844 435.828125 " fill-opacity="1" fill-rule="nonzero"/></g></g></g></g><g clip-path="url(#ff0a726d76)"><g transform="matrix(1, 0, 0, 1, 359, 149)"><g clip-path="url(#a5b5940e8a)"><g clip-path="url(#8de89288a8)"><path fill="#276043" d="M 0.03125 0.296875 L 276.46875 0.296875 L 276.46875 6.710938 L 0.03125 6.710938 Z M 0.03125 0.296875 " fill-opacity="1" fill-rule="nonzero"/></g></g></g></g><g clip-path="url(#c702a12caf)"><g transform="matrix(1, 0, 0, 1, 359, 93)"><g clip-path="url(#ca258f39b2)"><g clip-path="url(#22ed950ec8)"><path fill="#459f71" d="M 0.03125 0.902344 L 276.484375 0.902344 L 276.484375 59.683594 L 0.03125 59.683594 Z M 0.03125 0.902344 " fill-opacity="1" fill-rule="nonzero"/></g></g></g></g><g clip-path="url(#76c689f87c)"><g transform="matrix(1, 0, 0, 1, 362, 97)"><g clip-path="url(#591ff9f6a3)"><g clip-path="url(#8cc6fea252)"><path fill="#70ffb6" d="M 0.265625 0.285156 L 270.277344 0.285156 L 270.277344 52.296875 L 0.265625 52.296875 Z M 0.265625 0.285156 " fill-opacity="1" fill-rule="nonzero"/></g></g></g></g><g clip-path="url(#9d674f13a3)"><g transform="matrix(1, 0, 0, 1, 362, 97)"><g clip-path="url(#0bd582ffb7)"><g clip-path="url(#49d48fb782)"><path fill="#f2f2f2" d="M 0.265625 0.285156 L 4.917969 0.285156 L 4.917969 52.289062 L 0.265625 52.289062 Z M 0.265625 0.285156 " fill-opacity="1" fill-rule="nonzero"/></g></g></g></g><g clip-path="url(#f261204449)"><g transform="matrix(1, 0, 0, 1, 362, 97)"><g clip-path="url(#8c4db4b4ea)"><g clip-path="url(#e757ed7484)"><path fill="#f2f2f2" d="M 0.265625 4.035156 L 0.265625 0.285156 L 270.238281 0.285156 L 270.238281 4.035156 Z M 0.265625 4.035156 " fill-opacity="1" fill-rule="nonzero"/></g></g></g></g><g transform="matrix(1, 0, 0, 1, 377, 109)"><g clip-path="url(#28cc485a02)"><g clip-path="url(#0ec3192d1b)"><g transform="matrix(1, 0, 0, 1, -0.000000000000056843, 28)"><g clip-path="url(#87de1aa017)"><g clip-path="url(#cf375c172e)"><path fill="#353535" d="M 0.523438 0.429688 L 28.164062 0.429688 L 28.164062 3.0625 L 0.523438 3.0625 Z M 0.523438 0.429688 " fill-opacity="1" fill-rule="nonzero"/></g></g></g></g><g clip-path="url(#c4106ab0e2)"><g transform="matrix(1, 0, 0, 1, -0.000000000000056843, -0.000000000000028422)"><g clip-path="url(#1d65e14a9e)"><g clip-path="url(#6f73bde09e)"><path fill="#898686" d="M 0.523438 0.546875 L 28.160156 0.546875 L 28.160156 29.695312 L 0.523438 29.695312 Z M 0.523438 0.546875 " fill-opacity="1" fill-rule="nonzero"/></g></g></g></g><g clip-path="url(#8cde851705)"><g transform="matrix(1, 0, 0, 1, 2, 2)"><g clip-path="url(#a7c6437399)"><g clip-path="url(#c46ae5f118)"><path fill="#f2f2f2" d="M 0.28125 0.359375 L 24.40625 0.359375 L 24.40625 25.902344 L 0.28125 25.902344 Z M 0.28125 0.359375 " fill-opacity="1" fill-rule="nonzero"/></g></g></g></g></g></g><g clip-path="url(#75454c0794)"><g transform="matrix(1, 0, 0, 1, 359, 227)"><g clip-path="url(#d72f6c173c)"><g clip-path="url(#d43c198808)"><path fill="#276043" d="M 0.03125 0.449219 L 276.46875 0.449219 L 276.46875 6.859375 L 0.03125 6.859375 Z M 0.03125 0.449219 " fill-opacity="1" fill-rule="nonzero"/></g></g></g></g><g clip-path="url(#53a2092334)"><g transform="matrix(1, 0, 0, 1, 359, 172)"><g clip-path="url(#b1f70cb20e)"><g clip-path="url(#707f938651)"><path fill="#459f71" d="M 0.03125 0.0507812 L 276.484375 0.0507812 L 276.484375 58.832031 L 0.03125 58.832031 Z M 0.03125 0.0507812 " fill-opacity="1" fill-rule="nonzero"/></g></g></g></g><g clip-path="url(#d37623a1c9)"><g transform="matrix(1, 0, 0, 1, 362, 175)"><g clip-path="url(#a484bc6aa3)"><g clip-path="url(#84d2ea854e)"><path fill="#70ffb6" d="M 0.265625 0.4375 L 270.277344 0.4375 L 270.277344 52.449219 L 0.265625 52.449219 Z M 0.265625 0.4375 " fill-opacity="1" fill-rule="nonzero"/></g></g></g></g><g clip-path="url(#96a0b9b597)"><g transform="matrix(1, 0, 0, 1, 362, 175)"><g clip-path="url(#2d4b1740b6)"><g clip-path="url(#66265b8ead)"><path fill="#f2f2f2" d="M 0.265625 0.4375 L 4.917969 0.4375 L 4.917969 52.441406 L 0.265625 52.441406 Z M 0.265625 0.4375 " fill-opacity="1" fill-rule="nonzero"/></g></g></g></g><g clip-path="url(#4b4e1dfc8f)"><g transform="matrix(1, 0, 0, 1, 362, 175)"><g clip-path="url(#046f2119a9)"><g clip-path="url(#7ce7da8970)"><path fill="#f2f2f2" d="M 0.265625 4.183594 L 0.265625 0.433594 L 270.238281 0.433594 L 270.238281 4.183594 Z M 0.265625 4.183594 " fill-opacity="1" fill-rule="nonzero"/></g></g></g></g><g transform="matrix(1, 0, 0, 1, 377, 187)"><g clip-path="url(#5f4e0ef97d)"><g clip-path="url(#cc58c0bc9b)"><g transform="matrix(1, 0, 0, 1, -0.000000000000056843, 28)"><g clip-path="url(#1f3f4765e7)"><g clip-path="url(#478d7ac458)"><path fill="#353535" d="M 0.523438 0.582031 L 28.164062 0.582031 L 28.164062 3.214844 L 0.523438 3.214844 Z M 0.523438 0.582031 " fill-opacity="1" fill-rule="nonzero"/></g></g></g></g><g clip-path="url(#f75b5db43b)"><g transform="matrix(1, 0, 0, 1, -0.000000000000056843, -0.000000000000028422)"><g clip-path="url(#82ecf66d0e)"><g clip-path="url(#c5f8670a09)"><path fill="#898686" d="M 0.523438 0.699219 L 28.160156 0.699219 L 28.160156 29.847656 L 0.523438 29.847656 Z M 0.523438 0.699219 " fill-opacity="1" fill-rule="nonzero"/></g></g></g></g><g clip-path="url(#74afb71995)"><g transform="matrix(1, 0, 0, 1, 2, 2)"><g clip-path="url(#b16330323c)"><g clip-path="url(#caab58c838)"><path fill="#f2f2f2" d="M 0.28125 0.511719 L 24.40625 0.511719 L 24.40625 26.050781 L 0.28125 26.050781 Z M 0.28125 0.511719 " fill-opacity="1" fill-rule="nonzero"/></g></g></g></g></g></g><g clip-path="url(#4588a8064b)"><g transform="matrix(1, 0, 0, 1, 359, 305)"><g clip-path="url(#3e5adf13e5)"><g clip-path="url(#c63ce72ed0)"><path fill="#276043" d="M 0.03125 0.757812 L 276.46875 0.757812 L 276.46875 7.167969 L 0.03125 7.167969 Z M 0.03125 0.757812 " fill-opacity="1" fill-rule="nonzero"/></g></g></g></g><g clip-path="url(#3ba88283b5)"><g transform="matrix(1, 0, 0, 1, 359, 250)"><g clip-path="url(#50990bcbb6)"><g clip-path="url(#8f8bf73e3e)"><path fill="#459f71" d="M 0.03125 0.359375 L 276.484375 0.359375 L 276.484375 59.140625 L 0.03125 59.140625 Z M 0.03125 0.359375 " fill-opacity="1" fill-rule="nonzero"/></g></g></g></g><g clip-path="url(#77cab6f956)"><g transform="matrix(1, 0, 0, 1, 362, 253)"><g clip-path="url(#89c87dc69c)"><g clip-path="url(#3cbb719c69)"><path fill="#70ffb6" d="M 0.265625 0.746094 L 270.277344 0.746094 L 270.277344 52.757812 L 0.265625 52.757812 Z M 0.265625 0.746094 " fill-opacity="1" fill-rule="nonzero"/></g></g></g></g><g clip-path="url(#a242e70502)"><g transform="matrix(1, 0, 0, 1, 362, 253)"><g clip-path="url(#dca27299d8)"><g clip-path="url(#8e3cac1516)"><path fill="#f2f2f2" d="M 0.265625 0.746094 L 4.917969 0.746094 L 4.917969 52.75 L 0.265625 52.75 Z M 0.265625 0.746094 " fill-opacity="1" fill-rule="nonzero"/></g></g></g></g><g clip-path="url(#53e44c60e5)"><g transform="matrix(1, 0, 0, 1, 362, 253)"><g clip-path="url(#7902e895a1)"><g clip-path="url(#9b935d0165)"><path fill="#f2f2f2" d="M 0.265625 4.492188 L 0.265625 0.742188 L 270.238281 0.742188 L 270.238281 4.492188 Z M 0.265625 4.492188 " fill-opacity="1" fill-rule="nonzero"/></g></g></g></g><g transform="matrix(1, 0, 0, 1, 377, 265)"><g clip-path="url(#224574f3ee)"><g clip-path="url(#e527e45a7c)"><g transform="matrix(1, 0, 0, 1, -0.000000000000056843, 28)"><g clip-path="url(#b19c4b718c)"><g clip-path="url(#dae7ac6c95)"><path fill="#353535" d="M 0.523438 0.890625 L 28.164062 0.890625 L 28.164062 3.523438 L 0.523438 3.523438 Z M 0.523438 0.890625 " fill-opacity="1" fill-rule="nonzero"/></g></g></g></g><g clip-path="url(#09a882b912)"><g transform="matrix(1, 0, 0, 1, -0.000000000000056843, 1)"><g clip-path="url(#61ac39e2d2)"><g clip-path="url(#ddfb7d1661)"><path fill="#898686" d="M 0.523438 0.0078125 L 28.160156 0.0078125 L 28.160156 29.15625 L 0.523438 29.15625 Z M 0.523438 0.0078125 " fill-opacity="1" fill-rule="nonzero"/></g></g></g></g><g clip-path="url(#6d1b4eee95)"><g transform="matrix(1, 0, 0, 1, 2, 2)"><g clip-path="url(#cf78184b81)"><g clip-path="url(#3e10219775)"><path fill="#f2f2f2" d="M 0.28125 0.820312 L 24.40625 0.820312 L 24.40625 26.359375 L 0.28125 26.359375 Z M 0.28125 0.820312 " fill-opacity="1" fill-rule="nonzero"/></g></g></g></g></g></g><g clip-path="url(#fc62a54c87)"><g transform="matrix(1, 0, 0, 1, 359, 384)"><g clip-path="url(#b905db3ece)"><g clip-path="url(#e374b87036)"><path fill="#276043" d="M 0.03125 0.0664062 L 276.46875 0.0664062 L 276.46875 6.476562 L 0.03125 6.476562 Z M 0.03125 0.0664062 " fill-opacity="1" fill-rule="nonzero"/></g></g></g></g><g clip-path="url(#b4090bbec7)"><g transform="matrix(1, 0, 0, 1, 359, 328)"><g clip-path="url(#57168c15ce)"><g clip-path="url(#9239930648)"><path fill="#459f71" d="M 0.03125 0.667969 L 276.484375 0.667969 L 276.484375 59.449219 L 0.03125 59.449219 Z M 0.03125 0.667969 " fill-opacity="1" fill-rule="nonzero"/></g></g></g></g><g clip-path="url(#e5f43ed202)"><g transform="matrix(1, 0, 0, 1, 362, 332)"><g clip-path="url(#bd75432cb8)"><g clip-path="url(#bb8f67274f)"><path fill="#70ffb6" d="M 0.265625 0.0546875 L 270.277344 0.0546875 L 270.277344 52.066406 L 0.265625 52.066406 Z M 0.265625 0.0546875 " fill-opacity="1" fill-rule="nonzero"/></g></g></g></g><g clip-path="url(#c15f7af5ac)"><g transform="matrix(1, 0, 0, 1, 362, 332)"><g clip-path="url(#e1d7d05f01)"><g clip-path="url(#969aa6d58c)"><path fill="#f2f2f2" d="M 0.265625 0.0546875 L 4.917969 0.0546875 L 4.917969 52.058594 L 0.265625 52.058594 Z M 0.265625 0.0546875 " fill-opacity="1" fill-rule="nonzero"/></g></g></g></g><g clip-path="url(#e0113b6a82)"><g transform="matrix(1, 0, 0, 1, 362, 332)"><g clip-path="url(#9b92a65eae)"><g clip-path="url(#be52855c9c)"><path fill="#f2f2f2" d="M 0.265625 3.800781 L 0.265625 0.0507812 L 270.238281 0.0507812 L 270.238281 3.800781 Z M 0.265625 3.800781 " fill-opacity="1" fill-rule="nonzero"/></g></g></g></g><g transform="matrix(1, 0, 0, 1, 377, 344)"><g clip-path="url(#b6e4be2a61)"><g clip-path="url(#c8e93d841a)"><g transform="matrix(1, 0, 0, 1, -0.000000000000056843, 28)"><g clip-path="url(#9846fff463)"><g clip-path="url(#b7a49919fc)"><path fill="#353535" d="M 0.523438 0.199219 L 28.164062 0.199219 L 28.164062 2.832031 L 0.523438 2.832031 Z M 0.523438 0.199219 " fill-opacity="1" fill-rule="nonzero"/></g></g></g></g><g clip-path="url(#aa7d6000f5)"><g transform="matrix(1, 0, 0, 1, -0.000000000000056843, -0.000000000000056843)"><g clip-path="url(#7571d0c360)"><g clip-path="url(#317c723b80)"><path fill="#898686" d="M 0.523438 0.316406 L 28.160156 0.316406 L 28.160156 29.464844 L 0.523438 29.464844 Z M 0.523438 0.316406 " fill-opacity="1" fill-rule="nonzero"/></g></g></g></g><g clip-path="url(#cb71a54976)"><g transform="matrix(1, 0, 0, 1, 2, 2)"><g clip-path="url(#0cbb34334b)"><g clip-path="url(#357909d43e)"><path fill="#f2f2f2" d="M 0.28125 0.128906 L 24.40625 0.128906 L 24.40625 25.667969 L 0.28125 25.667969 Z M 0.28125 0.128906 " fill-opacity="1" fill-rule="nonzero"/></g></g></g></g></g></g><g transform="matrix(1, 0, 0, 1, 458, 116)"><g clip-path="url(#b30375630f)"><g clip-path="url(#f1ab737cae)"><g fill="#000000" fill-opacity="1"><g transform="translate(0.534834, 16.20097)"><g><path d="M 0 -1.890625 L 0 -15.078125 L 3.765625 -15.078125 L 3.765625 -13.1875 L 5.65625 -13.1875 L 5.65625 -11.3125 L 7.53125 -11.3125 L 7.53125 -13.1875 L 9.421875 -13.1875 L 9.421875 -15.078125 L 13.1875 -15.078125 L 13.1875 -1.890625 L 9.421875 -1.890625 L 9.421875 -9.421875 L 7.53125 -9.421875 L 7.53125 -5.65625 L 5.65625 -5.65625 L 5.65625 -9.421875 L 3.765625 -9.421875 L 3.765625 -1.890625 Z M 0 -1.890625 "/></g></g></g></g><g fill="#000000" fill-opacity="1"><g transform="translate(15.611593, 16.20097)"><g><path d="M 1.890625 -1.890625 L 1.890625 -3.765625 L 0 -3.765625 L 0 -13.1875 L 1.890625 -13.1875 L 1.890625 -15.078125 L 11.3125 -15.078125 L 11.3125 -13.1875 L 13.1875 -13.1875 L 13.1875 -3.765625 L 11.3125 -3.765625 L 11.3125 -1.890625 Z M 3.765625 -3.765625 L 9.421875 -3.765625 L 9.421875 -13.1875 L 3.765625 -13.1875 Z M 3.765625 -3.765625 "/></g></g></g><g fill="#000000" fill-opacity="1"><g transform="translate(30.688353, 16.20097)"><g><path d="M 5.65625 -1.890625 L 5.65625 -3.765625 L 3.765625 -3.765625 L 3.765625 -5.65625 L 1.890625 -5.65625 L 1.890625 -7.53125 L 0 -7.53125 L 0 -15.078125 L 3.765625 -15.078125 L 3.765625 -9.421875 L 5.65625 -9.421875 L 5.65625 -7.53125 L 7.53125 -7.53125 L 7.53125 -9.421875 L 9.421875 -9.421875 L 9.421875 -15.078125 L 13.1875 -15.078125 L 13.1875 -7.53125 L 11.3125 -7.53125 L 11.3125 -5.65625 L 9.421875 -5.65625 L 9.421875 -3.765625 L 7.53125 -3.765625 L 7.53125 -1.890625 Z M 5.65625 -1.890625 "/></g></g></g><g fill="#000000" fill-opacity="1"><g transform="translate(45.765112, 16.20097)"><g><path d="M 0 -1.890625 L 0 -15.078125 L 13.1875 -15.078125 L 13.1875 -13.1875 L 3.765625 -13.1875 L 3.765625 -9.421875 L 11.3125 -9.421875 L 11.3125 -7.53125 L 3.765625 -7.53125 L 3.765625 -3.765625 L 13.1875 -3.765625 L 13.1875 -1.890625 Z M 0 -1.890625 "/></g></g></g><g clip-path="url(#a9345f09d9)"><g fill="#000000" fill-opacity="1"><g transform="translate(60.841871, 16.20097)"><g/></g></g></g><g fill="#000000" fill-opacity="1"><g transform="translate(75.918631, 16.20097)"><g><path d="M 1.890625 -1.890625 L 1.890625 -3.765625 L 0 -3.765625 L 0 -15.078125 L 3.765625 -15.078125 L 3.765625 -3.765625 L 9.421875 -3.765625 L 9.421875 -15.078125 L 13.1875 -15.078125 L 13.1875 -3.765625 L 11.3125 -3.765625 L 11.3125 -1.890625 Z M 1.890625 -1.890625 "/></g></g></g><g fill="#000000" fill-opacity="1"><g transform="translate(90.99539, 16.20097)"><g><path d="M 0 -1.890625 L 0 -15.078125 L 11.3125 -15.078125 L 11.3125 -13.1875 L 13.1875 -13.1875 L 13.1875 -7.53125 L 11.3125 -7.53125 L 11.3125 -5.65625 L 3.765625 -5.65625 L 3.765625 -1.890625 Z M 3.765625 -7.53125 L 9.421875 -7.53125 L 9.421875 -13.1875 L 3.765625 -13.1875 Z M 3.765625 -7.53125 "/></g></g></g></g></g><g transform="matrix(1, 0, 0, 1, 443, 195)"><g clip-path="url(#80dafcd51c)"><g clip-path="url(#29e817e528)"><g fill="#000000" fill-opacity="1"><g transform="translate(0.458088, 15.352018)"><g><path d="M 0 -1.890625 L 0 -15.078125 L 3.765625 -15.078125 L 3.765625 -13.1875 L 5.65625 -13.1875 L 5.65625 -11.3125 L 7.53125 -11.3125 L 7.53125 -13.1875 L 9.421875 -13.1875 L 9.421875 -15.078125 L 13.1875 -15.078125 L 13.1875 -1.890625 L 9.421875 -1.890625 L 9.421875 -9.421875 L 7.53125 -9.421875 L 7.53125 -5.65625 L 5.65625 -5.65625 L 5.65625 -9.421875 L 3.765625 -9.421875 L 3.765625 -1.890625 Z M 0 -1.890625 "/></g></g></g></g><g clip-path="url(#3da1ac429b)"><g fill="#000000" fill-opacity="1"><g transform="translate(15.534847, 15.352018)"><g><path d="M 1.890625 -1.890625 L 1.890625 -3.765625 L 0 -3.765625 L 0 -13.1875 L 1.890625 -13.1875 L 1.890625 -15.078125 L 11.3125 -15.078125 L 11.3125 -13.1875 L 13.1875 -13.1875 L 13.1875 -3.765625 L 11.3125 -3.765625 L 11.3125 -1.890625 Z M 3.765625 -3.765625 L 9.421875 -3.765625 L 9.421875 -13.1875 L 3.765625 -13.1875 Z M 3.765625 -3.765625 "/></g></g></g></g><g clip-path="url(#7f981b4fa5)"><g fill="#000000" fill-opacity="1"><g transform="translate(30.611607, 15.352018)"><g><path d="M 5.65625 -1.890625 L 5.65625 -3.765625 L 3.765625 -3.765625 L 3.765625 -5.65625 L 1.890625 -5.65625 L 1.890625 -7.53125 L 0 -7.53125 L 0 -15.078125 L 3.765625 -15.078125 L 3.765625 -9.421875 L 5.65625 -9.421875 L 5.65625 -7.53125 L 7.53125 -7.53125 L 7.53125 -9.421875 L 9.421875 -9.421875 L 9.421875 -15.078125 L 13.1875 -15.078125 L 13.1875 -7.53125 L 11.3125 -7.53125 L 11.3125 -5.65625 L 9.421875 -5.65625 L 9.421875 -3.765625 L 7.53125 -3.765625 L 7.53125 -1.890625 Z M 5.65625 -1.890625 "/></g></g></g></g><g clip-path="url(#0104ffab04)"><g fill="#000000" fill-opacity="1"><g transform="translate(45.688366, 15.352018)"><g><path d="M 0 -1.890625 L 0 -15.078125 L 13.1875 -15.078125 L 13.1875 -13.1875 L 3.765625 -13.1875 L 3.765625 -9.421875 L 11.3125 -9.421875 L 11.3125 -7.53125 L 3.765625 -7.53125 L 3.765625 -3.765625 L 13.1875 -3.765625 L 13.1875 -1.890625 Z M 0 -1.890625 "/></g></g></g></g><g clip-path="url(#0c1e20ac55)"><g fill="#000000" fill-opacity="1"><g transform="translate(60.765125, 15.352018)"><g/></g></g></g><g clip-path="url(#573414fe5a)"><g fill="#000000" fill-opacity="1"><g transform="translate(75.841885, 15.352018)"><g><path d="M 1.890625 -1.890625 L 1.890625 -15.078125 L 5.65625 -15.078125 L 5.65625 -3.765625 L 13.1875 -3.765625 L 13.1875 -1.890625 Z M 1.890625 -1.890625 "/></g></g></g></g><g clip-path="url(#eac391063c)"><g fill="#000000" fill-opacity="1"><g transform="translate(90.918644, 15.352018)"><g><path d="M 0 -1.890625 L 0 -15.078125 L 13.1875 -15.078125 L 13.1875 -13.1875 L 3.765625 -13.1875 L 3.765625 -9.421875 L 11.3125 -9.421875 L 11.3125 -7.53125 L 3.765625 -7.53125 L 3.765625 -3.765625 L 13.1875 -3.765625 L 13.1875 -1.890625 Z M 0 -1.890625 "/></g></g></g></g><g clip-path="url(#e927ecdc06)"><g fill="#000000" fill-opacity="1"><g transform="translate(105.995404, 15.352018)"><g><path d="M 0 -1.890625 L 0 -15.078125 L 13.1875 -15.078125 L 13.1875 -13.1875 L 3.765625 -13.1875 L 3.765625 -9.421875 L 11.3125 -9.421875 L 11.3125 -7.53125 L 3.765625 -7.53125 L 3.765625 -1.890625 Z M 0 -1.890625 "/></g></g></g></g><g clip-path="url(#b27ef7b3fa)"><g fill="#000000" fill-opacity="1"><g transform="translate(121.072163, 15.352018)"><g><path d="M 5.65625 -1.890625 L 5.65625 -13.1875 L 1.890625 -13.1875 L 1.890625 -15.078125 L 13.1875 -15.078125 L 13.1875 -13.1875 L 9.421875 -13.1875 L 9.421875 -1.890625 Z M 5.65625 -1.890625 "/></g></g></g></g></g></g><g transform="matrix(1, 0, 0, 1, 443, 273)"><g clip-path="url(#33308616bf)"><g clip-path="url(#8e452c911c)"><g fill="#000000" fill-opacity="1"><g transform="translate(0.458088, 15.660582)"><g><path d="M 0 -1.890625 L 0 -15.078125 L 3.765625 -15.078125 L 3.765625 -13.1875 L 5.65625 -13.1875 L 5.65625 -11.3125 L 7.53125 -11.3125 L 7.53125 -13.1875 L 9.421875 -13.1875 L 9.421875 -15.078125 L 13.1875 -15.078125 L 13.1875 -1.890625 L 9.421875 -1.890625 L 9.421875 -9.421875 L 7.53125 -9.421875 L 7.53125 -5.65625 L 5.65625 -5.65625 L 5.65625 -9.421875 L 3.765625 -9.421875 L 3.765625 -1.890625 Z M 0 -1.890625 "/></g></g></g></g><g clip-path="url(#8796d9b1bb)"><g fill="#000000" fill-opacity="1"><g transform="translate(15.534847, 15.660582)"><g><path d="M 1.890625 -1.890625 L 1.890625 -3.765625 L 0 -3.765625 L 0 -13.1875 L 1.890625 -13.1875 L 1.890625 -15.078125 L 11.3125 -15.078125 L 11.3125 -13.1875 L 13.1875 -13.1875 L 13.1875 -3.765625 L 11.3125 -3.765625 L 11.3125 -1.890625 Z M 3.765625 -3.765625 L 9.421875 -3.765625 L 9.421875 -13.1875 L 3.765625 -13.1875 Z M 3.765625 -3.765625 "/></g></g></g></g><g clip-path="url(#610ed9d806)"><g fill="#000000" fill-opacity="1"><g transform="translate(30.611607, 15.660582)"><g><path d="M 5.65625 -1.890625 L 5.65625 -3.765625 L 3.765625 -3.765625 L 3.765625 -5.65625 L 1.890625 -5.65625 L 1.890625 -7.53125 L 0 -7.53125 L 0 -15.078125 L 3.765625 -15.078125 L 3.765625 -9.421875 L 5.65625 -9.421875 L 5.65625 -7.53125 L 7.53125 -7.53125 L 7.53125 -9.421875 L 9.421875 -9.421875 L 9.421875 -15.078125 L 13.1875 -15.078125 L 13.1875 -7.53125 L 11.3125 -7.53125 L 11.3125 -5.65625 L 9.421875 -5.65625 L 9.421875 -3.765625 L 7.53125 -3.765625 L 7.53125 -1.890625 Z M 5.65625 -1.890625 "/></g></g></g></g><g clip-path="url(#7a55d35a9e)"><g fill="#000000" fill-opacity="1"><g transform="translate(45.688366, 15.660582)"><g><path d="M 0 -1.890625 L 0 -15.078125 L 13.1875 -15.078125 L 13.1875 -13.1875 L 3.765625 -13.1875 L 3.765625 -9.421875 L 11.3125 -9.421875 L 11.3125 -7.53125 L 3.765625 -7.53125 L 3.765625 -3.765625 L 13.1875 -3.765625 L 13.1875 -1.890625 Z M 0 -1.890625 "/></g></g></g></g><g clip-path="url(#75ed780559)"><g fill="#000000" fill-opacity="1"><g transform="translate(60.765125, 15.660582)"><g/></g></g></g><g clip-path="url(#8bcbb48a3c)"><g fill="#000000" fill-opacity="1"><g transform="translate(75.841885, 15.660582)"><g><path d="M 0 -1.890625 L 0 -15.078125 L 11.3125 -15.078125 L 11.3125 -13.1875 L 13.1875 -13.1875 L 13.1875 -9.421875 L 11.3125 -9.421875 L 11.3125 -7.53125 L 13.1875 -7.53125 L 13.1875 -3.765625 L 11.3125 -3.765625 L 11.3125 -1.890625 Z M 3.765625 -9.421875 L 9.421875 -9.421875 L 9.421875 -13.1875 L 3.765625 -13.1875 Z M 3.765625 -3.765625 L 9.421875 -3.765625 L 9.421875 -7.53125 L 3.765625 -7.53125 Z M 3.765625 -3.765625 "/></g></g></g></g><g clip-path="url(#2895fca667)"><g fill="#000000" fill-opacity="1"><g transform="translate(90.918644, 15.660582)"><g><path d="M 0 -1.890625 L 0 -11.3125 L 1.890625 -11.3125 L 1.890625 -13.1875 L 3.765625 -13.1875 L 3.765625 -15.078125 L 9.421875 -15.078125 L 9.421875 -13.1875 L 11.3125 -13.1875 L 11.3125 -11.3125 L 13.1875 -11.3125 L 13.1875 -1.890625 L 9.421875 -1.890625 L 9.421875 -5.65625 L 3.765625 -5.65625 L 3.765625 -1.890625 Z M 3.765625 -7.53125 L 9.421875 -7.53125 L 9.421875 -11.3125 L 7.53125 -11.3125 L 7.53125 -13.1875 L 5.65625 -13.1875 L 5.65625 -11.3125 L 3.765625 -11.3125 Z M 3.765625 -7.53125 "/></g></g></g></g><g clip-path="url(#c0982a222a)"><g fill="#000000" fill-opacity="1"><g transform="translate(105.995404, 15.660582)"><g><path d="M 3.765625 -1.890625 L 3.765625 -3.765625 L 1.890625 -3.765625 L 1.890625 -5.65625 L 0 -5.65625 L 0 -11.3125 L 1.890625 -11.3125 L 1.890625 -13.1875 L 3.765625 -13.1875 L 3.765625 -15.078125 L 11.3125 -15.078125 L 11.3125 -13.1875 L 13.1875 -13.1875 L 13.1875 -11.3125 L 9.421875 -11.3125 L 9.421875 -13.1875 L 5.65625 -13.1875 L 5.65625 -11.3125 L 3.765625 -11.3125 L 3.765625 -5.65625 L 5.65625 -5.65625 L 5.65625 -3.765625 L 9.421875 -3.765625 L 9.421875 -5.65625 L 13.1875 -5.65625 L 13.1875 -3.765625 L 11.3125 -3.765625 L 11.3125 -1.890625 Z M 3.765625 -1.890625 "/></g></g></g></g><g clip-path="url(#c4eeb0a8dd)"><g fill="#000000" fill-opacity="1"><g transform="translate(121.072163, 15.660582)"><g><path d="M 0 -1.890625 L 0 -15.078125 L 3.765625 -15.078125 L 3.765625 -9.421875 L 5.65625 -9.421875 L 5.65625 -11.3125 L 7.53125 -11.3125 L 7.53125 -13.1875 L 9.421875 -13.1875 L 9.421875 -15.078125 L 13.1875 -15.078125 L 13.1875 -13.1875 L 11.3125 -13.1875 L 11.3125 -11.3125 L 9.421875 -11.3125 L 9.421875 -9.421875 L 7.53125 -9.421875 L 7.53125 -7.53125 L 9.421875 -7.53125 L 9.421875 -5.65625 L 11.3125 -5.65625 L 11.3125 -3.765625 L 13.1875 -3.765625 L 13.1875 -1.890625 L 7.53125 -1.890625 L 7.53125 -3.765625 L 5.65625 -3.765625 L 5.65625 -5.65625 L 3.765625 -5.65625 L 3.765625 -1.890625 Z M 0 -1.890625 "/></g></g></g></g></g></g><g transform="matrix(1, 0, 0, 1, 443, 351)"><g clip-path="url(#09debec02f)"><g clip-path="url(#f2f6fd4338)"><g fill="#000000" fill-opacity="1"><g transform="translate(0.458088, 15.96916)"><g><path d="M 0 -1.890625 L 0 -15.078125 L 3.765625 -15.078125 L 3.765625 -13.1875 L 5.65625 -13.1875 L 5.65625 -11.3125 L 7.53125 -11.3125 L 7.53125 -13.1875 L 9.421875 -13.1875 L 9.421875 -15.078125 L 13.1875 -15.078125 L 13.1875 -1.890625 L 9.421875 -1.890625 L 9.421875 -9.421875 L 7.53125 -9.421875 L 7.53125 -5.65625 L 5.65625 -5.65625 L 5.65625 -9.421875 L 3.765625 -9.421875 L 3.765625 -1.890625 Z M 0 -1.890625 "/></g></g></g></g><g clip-path="url(#fbcc80635a)"><g fill="#000000" fill-opacity="1"><g transform="translate(15.534847, 15.96916)"><g><path d="M 1.890625 -1.890625 L 1.890625 -3.765625 L 0 -3.765625 L 0 -13.1875 L 1.890625 -13.1875 L 1.890625 -15.078125 L 11.3125 -15.078125 L 11.3125 -13.1875 L 13.1875 -13.1875 L 13.1875 -3.765625 L 11.3125 -3.765625 L 11.3125 -1.890625 Z M 3.765625 -3.765625 L 9.421875 -3.765625 L 9.421875 -13.1875 L 3.765625 -13.1875 Z M 3.765625 -3.765625 "/></g></g></g></g><g clip-path="url(#357805a199)"><g fill="#000000" fill-opacity="1"><g transform="translate(30.611607, 15.96916)"><g><path d="M 5.65625 -1.890625 L 5.65625 -3.765625 L 3.765625 -3.765625 L 3.765625 -5.65625 L 1.890625 -5.65625 L 1.890625 -7.53125 L 0 -7.53125 L 0 -15.078125 L 3.765625 -15.078125 L 3.765625 -9.421875 L 5.65625 -9.421875 L 5.65625 -7.53125 L 7.53125 -7.53125 L 7.53125 -9.421875 L 9.421875 -9.421875 L 9.421875 -15.078125 L 13.1875 -15.078125 L 13.1875 -7.53125 L 11.3125 -7.53125 L 11.3125 -5.65625 L 9.421875 -5.65625 L 9.421875 -3.765625 L 7.53125 -3.765625 L 7.53125 -1.890625 Z M 5.65625 -1.890625 "/></g></g></g></g><g clip-path="url(#7df889587e)"><g fill="#000000" fill-opacity="1"><g transform="translate(45.688366, 15.96916)"><g><path d="M 0 -1.890625 L 0 -15.078125 L 13.1875 -15.078125 L 13.1875 -13.1875 L 3.765625 -13.1875 L 3.765625 -9.421875 L 11.3125 -9.421875 L 11.3125 -7.53125 L 3.765625 -7.53125 L 3.765625 -3.765625 L 13.1875 -3.765625 L 13.1875 -1.890625 Z M 0 -1.890625 "/></g></g></g></g><g fill="#000000" fill-opacity="1"><g transform="translate(60.765125, 15.96916)"><g/></g></g><g clip-path="url(#052464146e)"><g fill="#000000" fill-opacity="1"><g transform="translate(75.841885, 15.96916)"><g><path d="M 1.890625 -1.890625 L 1.890625 -15.078125 L 5.65625 -15.078125 L 5.65625 -3.765625 L 13.1875 -3.765625 L 13.1875 -1.890625 Z M 1.890625 -1.890625 "/></g></g></g></g><g clip-path="url(#675ff438bb)"><g fill="#000000" fill-opacity="1"><g transform="translate(90.918644, 15.96916)"><g><path d="M 0 -1.890625 L 0 -15.078125 L 13.1875 -15.078125 L 13.1875 -13.1875 L 3.765625 -13.1875 L 3.765625 -9.421875 L 11.3125 -9.421875 L 11.3125 -7.53125 L 3.765625 -7.53125 L 3.765625 -3.765625 L 13.1875 -3.765625 L 13.1875 -1.890625 Z M 0 -1.890625 "/></g></g></g></g><g clip-path="url(#3be98f83a7)"><g fill="#000000" fill-opacity="1"><g transform="translate(105.995404, 15.96916)"><g><path d="M 0 -1.890625 L 0 -15.078125 L 13.1875 -15.078125 L 13.1875 -13.1875 L 3.765625 -13.1875 L 3.765625 -9.421875 L 11.3125 -9.421875 L 11.3125 -7.53125 L 3.765625 -7.53125 L 3.765625 -1.890625 Z M 0 -1.890625 "/></g></g></g></g><g clip-path="url(#bcde5e8b84)"><g fill="#000000" fill-opacity="1"><g transform="translate(121.072163, 15.96916)"><g><path d="M 5.65625 -1.890625 L 5.65625 -13.1875 L 1.890625 -13.1875 L 1.890625 -15.078125 L 13.1875 -15.078125 L 13.1875 -13.1875 L 9.421875 -13.1875 L 9.421875 -1.890625 Z M 5.65625 -1.890625 "/></g></g></g></g></g></g><g fill="#000000" fill-opacity="1"><g transform="translate(251.280182, 67.704885)"><g><path d="M 1.390625 -5.5625 L 1.390625 -8.34375 L 9.734375 -8.34375 L 9.734375 -5.5625 Z M 1.390625 -5.5625 "/></g></g></g><g fill="#000000" fill-opacity="1"><g transform="translate(262.403621, 67.704885)"><g/></g></g><g fill="#000000" fill-opacity="1"><g transform="translate(269.355769, 67.704885)"><g><path d="M 1.390625 0 L 1.390625 -19.46875 L 4.171875 -19.46875 L 4.171875 -11.125 L 9.734375 -11.125 L 9.734375 -8.34375 L 4.171875 -8.34375 L 4.171875 0 Z M 9.734375 -5.5625 L 9.734375 -8.34375 L 12.515625 -8.34375 L 12.515625 -5.5625 Z M 9.734375 -11.125 L 9.734375 -13.90625 L 12.515625 -13.90625 L 12.515625 -11.125 Z M 12.515625 0 L 12.515625 -5.5625 L 15.296875 -5.5625 L 15.296875 0 Z M 12.515625 -13.90625 L 12.515625 -19.46875 L 15.296875 -19.46875 L 15.296875 -13.90625 Z M 12.515625 -13.90625 "/></g></g></g><g fill="#000000" fill-opacity="1"><g transform="translate(286.040933, 67.704885)"><g><path d="M 1.390625 0 L 1.390625 -19.46875 L 15.296875 -19.46875 L 15.296875 -16.6875 L 4.171875 -16.6875 L 4.171875 -11.125 L 12.515625 -11.125 L 12.515625 -8.34375 L 4.171875 -8.34375 L 4.171875 -2.78125 L 15.265625 -2.78125 L 15.265625 0 Z M 1.390625 0 "/></g></g></g><g fill="#000000" fill-opacity="1"><g transform="translate(302.726097, 67.704885)"><g><path d="M 6.953125 0 L 6.953125 -8.34375 L 9.734375 -8.34375 L 9.734375 0 Z M 1.390625 -13.90625 L 1.390625 -19.46875 L 4.171875 -19.46875 L 4.171875 -13.90625 Z M 4.171875 -8.34375 L 4.171875 -13.90625 L 6.953125 -13.90625 L 6.953125 -8.34375 Z M 9.734375 -8.34375 L 9.734375 -13.90625 L 12.515625 -13.90625 L 12.515625 -8.34375 Z M 12.515625 -13.90625 L 12.515625 -19.46875 L 15.296875 -19.46875 L 15.296875 -13.90625 Z M 12.515625 -13.90625 "/></g></g></g><g fill="#000000" fill-opacity="1"><g transform="translate(319.411261, 67.704885)"><g/></g></g><g fill="#000000" fill-opacity="1"><g transform="translate(326.363409, 67.704885)"><g><path d="M 1.390625 0 L 1.390625 -19.46875 L 12.515625 -19.46875 L 12.515625 -16.6875 L 4.171875 -16.6875 L 4.171875 -11.125 L 12.515625 -11.125 L 12.515625 -8.34375 L 4.171875 -8.34375 L 4.171875 -2.78125 L 12.515625 -2.78125 L 12.515625 0 Z M 12.515625 -2.78125 L 12.515625 -8.34375 L 15.296875 -8.34375 L 15.296875 -2.78125 Z M 12.515625 -11.125 L 12.515625 -16.6875 L 15.296875 -16.6875 L 15.296875 -11.125 Z M 12.515625 -11.125 "/></g></g></g><g fill="#000000" fill-opacity="1"><g transform="translate(343.048573, 67.704885)"><g><path d="M 1.390625 0 L 1.390625 -19.46875 L 4.171875 -19.46875 L 4.171875 0 Z M 1.390625 0 "/></g></g></g><g fill="#000000" fill-opacity="1"><g transform="translate(348.610298, 67.704885)"><g><path d="M 12.515625 0 L 12.515625 -8.34375 L 9.734375 -8.34375 L 9.734375 -11.125 L 12.515625 -11.125 L 12.515625 -19.46875 L 15.296875 -19.46875 L 15.296875 0 Z M 1.390625 0 L 1.390625 -19.46875 L 4.171875 -19.46875 L 4.171875 -16.6875 L 6.953125 -16.6875 L 6.953125 -13.90625 L 4.171875 -13.90625 L 4.171875 0 Z M 6.953125 -11.125 L 6.953125 -13.90625 L 9.734375 -13.90625 L 9.734375 -11.125 Z M 6.953125 -11.125 "/></g></g></g><g fill="#000000" fill-opacity="1"><g transform="translate(365.295462, 67.704885)"><g><path d="M 1.390625 0 L 1.390625 -19.46875 L 12.515625 -19.46875 L 12.515625 -16.6875 L 4.171875 -16.6875 L 4.171875 -2.78125 L 12.515625 -2.78125 L 12.515625 0 Z M 12.515625 -2.78125 L 12.515625 -16.6875 L 15.296875 -16.6875 L 15.296875 -2.78125 Z M 12.515625 -2.78125 "/></g></g></g><g fill="#000000" fill-opacity="1"><g transform="translate(381.980626, 67.704885)"><g><path d="M 4.171875 -16.6875 L 4.171875 -11.125 L 1.390625 -11.125 L 1.390625 -16.6875 Z M 1.390625 -2.78125 L 1.390625 -5.5625 L 4.171875 -5.5625 L 4.171875 -2.78125 Z M 4.171875 0 L 4.171875 -2.78125 L 12.515625 -2.78125 L 12.515625 0 Z M 4.171875 -8.34375 L 4.171875 -11.125 L 12.515625 -11.125 L 12.515625 -8.34375 Z M 4.171875 -16.6875 L 4.171875 -19.46875 L 12.515625 -19.46875 L 12.515625 -16.6875 Z M 12.515625 -2.78125 L 12.515625 -8.34375 L 15.296875 -8.34375 L 15.296875 -2.78125 Z M 12.515625 -13.90625 L 12.515625 -16.6875 L 15.296875 -16.6875 L 15.296875 -13.90625 Z M 12.515625 -13.90625 "/></g></g></g><g fill="#000000" fill-opacity="1"><g transform="translate(398.66579, 67.704885)"><g/></g></g><g fill="#000000" fill-opacity="1"><g transform="translate(405.617938, 67.704885)"><g><path d="M 1.390625 -5.5625 L 1.390625 -8.34375 L 9.734375 -8.34375 L 9.734375 -5.5625 Z M 1.390625 -5.5625 "/></g></g></g><g fill="#000000" fill-opacity="1"><g transform="translate(416.748919, 67.704885)"><g/></g></g><g clip-path="url(#96d53dd5c7)"><g transform="matrix(1, 0, 0, 1, 132, 212)"><g clip-path="url(#27435ee162)"><g clip-path="url(#d266f1a87a)"><path fill="#353535" d="M 0.214844 0.046875 L 84.386719 0.046875 L 84.386719 9.042969 L 0.214844 9.042969 Z M 0.214844 0.046875 " fill-opacity="1" fill-rule="nonzero"/></g></g></g></g><g clip-path="url(#77311ca219)"><g transform="matrix(1, 0, 0, 1, 132, 134)"><g clip-path="url(#79156b6231)"><g clip-path="url(#55ca28e055)"><path fill="#898686" d="M 0.214844 0.320312 L 84.300781 0.320312 L 84.300781 82.792969 L 0.214844 82.792969 Z M 0.214844 0.320312 " fill-opacity="1" fill-rule="nonzero"/></g></g></g></g><g clip-path="url(#33f9ad3666)"><g transform="matrix(1, 0, 0, 1, 136, 139)"><g clip-path="url(#fe3954f2b9)"><g clip-path="url(#1f406534de)"><path fill="#e4e4e4" d="M 0.75 0.0703125 L 73.636719 0.0703125 L 73.636719 72.953125 L 0.75 72.953125 Z M 0.75 0.0703125 " fill-opacity="1" fill-rule="nonzero"/></g></g></g></g><g clip-path="url(#e5c1457983)"><g transform="matrix(1, 0, 0, 1, 136, 139)"><g clip-path="url(#60dd83a623)"><g clip-path="url(#64abb02e60)"><path fill="#f2f2f2" d="M 0.75 0.0703125 L 7.28125 0.0703125 L 7.28125 73.035156 L 0.75 73.035156 Z M 0.75 0.0703125 " fill-opacity="1" fill-rule="nonzero"/></g></g></g></g><g clip-path="url(#65c6c8525b)"><g transform="matrix(1, 0, 0, 1, 136, 139)"><g clip-path="url(#c7012d292d)"><g clip-path="url(#b70cc5124c)"><path fill="#f2f2f2" d="M 0.75 5.320312 L 0.75 0.0585938 L 73.628906 0.0585938 L 73.628906 5.320312 Z M 0.75 5.320312 " fill-opacity="1" fill-rule="nonzero"/></g></g></g></g><g clip-path="url(#6a6cc99e1b)"><g transform="matrix(1, 0, 0, 1, 132, 303)"><g clip-path="url(#87d60ddca3)"><g clip-path="url(#f3ccf454a6)"><path fill="#353535" d="M 0.214844 0.171875 L 84.386719 0.171875 L 84.386719 9.167969 L 0.214844 9.167969 Z M 0.214844 0.171875 " fill-opacity="1" fill-rule="nonzero"/></g></g></g></g><g clip-path="url(#0b83695771)"><g transform="matrix(1, 0, 0, 1, 132, 225)"><g clip-path="url(#154376c947)"><g clip-path="url(#85f1f3c846)"><path fill="#898686" d="M 0.214844 0.445312 L 84.300781 0.445312 L 84.300781 82.921875 L 0.214844 82.921875 Z M 0.214844 0.445312 " fill-opacity="1" fill-rule="nonzero"/></g></g></g></g><g clip-path="url(#02ed9844f8)"><g transform="matrix(1, 0, 0, 1, 136, 230)"><g clip-path="url(#c22712a40c)"><g clip-path="url(#a11ad09845)"><path fill="#e4e4e4" d="M 0.75 0.195312 L 73.636719 0.195312 L 73.636719 73.082031 L 0.75 73.082031 Z M 0.75 0.195312 " fill-opacity="1" fill-rule="nonzero"/></g></g></g></g><g clip-path="url(#8de5f4f2d3)"><g transform="matrix(1, 0, 0, 1, 136, 230)"><g clip-path="url(#6889d3f95b)"><g clip-path="url(#2c66687d5e)"><path fill="#f2f2f2" d="M 0.75 0.195312 L 7.28125 0.195312 L 7.28125 73.160156 L 0.75 73.160156 Z M 0.75 0.195312 " fill-opacity="1" fill-rule="nonzero"/></g></g></g></g><g clip-path="url(#e30bcd88a5)"><g transform="matrix(1, 0, 0, 1, 136, 230)"><g clip-path="url(#5ae3f347db)"><g clip-path="url(#fc41716dbf)"><path fill="#f2f2f2" d="M 0.75 5.449219 L 0.75 0.1875 L 73.628906 0.1875 L 73.628906 5.449219 Z M 0.75 5.449219 " fill-opacity="1" fill-rule="nonzero"/></g></g></g></g><g clip-path="url(#292d39c577)"><g transform="matrix(1, 0, 0, 1, 40, 303)"><g clip-path="url(#f67237964e)"><g clip-path="url(#3a41e6cf79)"><path fill="#353535" d="M 0.503906 0.171875 L 84.675781 0.171875 L 84.675781 9.167969 L 0.503906 9.167969 Z M 0.503906 0.171875 " fill-opacity="1" fill-rule="nonzero"/></g></g></g></g><g clip-path="url(#d07b17e419)"><g transform="matrix(1, 0, 0, 1, 40, 225)"><g clip-path="url(#3c5b1f88d2)"><g clip-path="url(#270ef32519)"><path fill="#898686" d="M 0.503906 0.445312 L 84.589844 0.445312 L 84.589844 82.921875 L 0.503906 82.921875 Z M 0.503906 0.445312 " fill-opacity="1" fill-rule="nonzero"/></g></g></g></g><g clip-path="url(#59759cecd1)"><g transform="matrix(1, 0, 0, 1, 45, 230)"><g clip-path="url(#99e8d1385b)"><g clip-path="url(#e4d709cfdf)"><path fill="#e4e4e4" d="M 0.0390625 0.195312 L 72.925781 0.195312 L 72.925781 73.082031 L 0.0390625 73.082031 Z M 0.0390625 0.195312 " fill-opacity="1" fill-rule="nonzero"/></g></g></g></g><g clip-path="url(#45a1f9a8e9)"><g transform="matrix(1, 0, 0, 1, 45, 230)"><g clip-path="url(#2dd9c87e10)"><g clip-path="url(#38863480de)"><path fill="#f2f2f2" d="M 0.0390625 0.195312 L 6.570312 0.195312 L 6.570312 73.160156 L 0.0390625 73.160156 Z M 0.0390625 0.195312 " fill-opacity="1" fill-rule="nonzero"/></g></g></g></g><g clip-path="url(#78bddb6300)"><g transform="matrix(1, 0, 0, 1, 45, 230)"><g clip-path="url(#0350beee10)"><g clip-path="url(#29eabf3916)"><path fill="#f2f2f2" d="M 0.0390625 5.449219 L 0.0390625 0.1875 L 72.917969 0.1875 L 72.917969 5.449219 Z M 0.0390625 5.449219 " fill-opacity="1" fill-rule="nonzero"/></g></g></g></g><g clip-path="url(#210dea0906)"><g transform="matrix(1, 0, 0, 1, 223, 303)"><g clip-path="url(#8411d05e6d)"><g clip-path="url(#6a2db6107b)"><path fill="#353535" d="M 0.898438 0.171875 L 85.074219 0.171875 L 85.074219 9.167969 L 0.898438 9.167969 Z M 0.898438 0.171875 " fill-opacity="1" fill-rule="nonzero"/></g></g></g></g><g clip-path="url(#68a9f8353d)"><g transform="matrix(1, 0, 0, 1, 223, 225)"><g clip-path="url(#8773a77fae)"><g clip-path="url(#5645bd20c3)"><path fill="#898686" d="M 0.898438 0.445312 L 84.984375 0.445312 L 84.984375 82.921875 L 0.898438 82.921875 Z M 0.898438 0.445312 " fill-opacity="1" fill-rule="nonzero"/></g></g></g></g><g clip-path="url(#98687bfe1b)"><g transform="matrix(1, 0, 0, 1, 228, 230)"><g clip-path="url(#487b3cf7b3)"><g clip-path="url(#8fb0e43306)"><path fill="#e4e4e4" d="M 0.4375 0.195312 L 73.320312 0.195312 L 73.320312 73.082031 L 0.4375 73.082031 Z M 0.4375 0.195312 " fill-opacity="1" fill-rule="nonzero"/></g></g></g></g><g clip-path="url(#55fc9b89fc)"><g transform="matrix(1, 0, 0, 1, 228, 230)"><g clip-path="url(#11594b918d)"><g clip-path="url(#a2991a42a4)"><path fill="#f2f2f2" d="M 0.4375 0.195312 L 6.96875 0.195312 L 6.96875 73.160156 L 0.4375 73.160156 Z M 0.4375 0.195312 " fill-opacity="1" fill-rule="nonzero"/></g></g></g></g><g clip-path="url(#a868adecec)"><g transform="matrix(1, 0, 0, 1, 228, 230)"><g clip-path="url(#e938d788eb)"><g clip-path="url(#9f1b71ab15)"><path fill="#f2f2f2" d="M 0.433594 5.449219 L 0.433594 0.1875 L 73.3125 0.1875 L 73.3125 5.449219 Z M 0.433594 5.449219 " fill-opacity="1" fill-rule="nonzero"/></g></g></g></g><g transform="matrix(1, 0, 0, 1, 159, 155)"><g clip-path="url(#9836997aac)"><g fill="#000000" fill-opacity="1"><g transform="translate(0.602197, 30.476125)"><g><path d="M 9.90625 0 L 5.328125 0 L 0.5625 -20.765625 L 4.65625 -20.765625 L 7.796875 -6.15625 L 8.15625 -6.15625 L 11.875 -20.765625 L 15.375 -20.765625 L 19.171875 -6.15625 L 19.515625 -6.15625 L 22.671875 -20.765625 L 26.625 -20.765625 L 21.875 0 L 17.28125 0 L 13.640625 -13.390625 L 13.34375 -13.390625 Z M 9.90625 0 "/></g></g></g></g></g><g transform="matrix(1, 0, 0, 1, 71, 244)"><g clip-path="url(#6755752df1)"><g clip-path="url(#31a5c6c9ef)"><g fill="#000000" fill-opacity="1"><g transform="translate(0.362521, 30.25542)"><g><path d="M 19.921875 0 L 15.609375 0 L 14.046875 -4.78125 L 6.09375 -4.78125 L 4.53125 0 L 0.3125 0 L 7.484375 -20.765625 L 12.75 -20.765625 Z M 9.875 -16.421875 L 7.203125 -8.234375 L 12.90625 -8.234375 L 10.21875 -16.421875 Z M 9.875 -16.421875 "/></g></g></g></g></g></g><g transform="matrix(1, 0, 0, 1, 163, 246)"><g clip-path="url(#63d33c407e)"><g fill="#000000" fill-opacity="1"><g transform="translate(0.226147, 29.805063)"><g><path d="M 9.203125 0.296875 C 7.765625 0.296875 6.484375 0.117188 5.359375 -0.234375 C 4.234375 -0.585938 3.296875 -1.050781 2.546875 -1.625 C 1.804688 -2.207031 1.238281 -2.84375 0.84375 -3.53125 L 3.09375 -6.296875 L 3.453125 -6.296875 C 4.078125 -5.359375 4.867188 -4.613281 5.828125 -4.0625 C 6.785156 -3.519531 7.910156 -3.25 9.203125 -3.25 C 10.296875 -3.25 11.117188 -3.476562 11.671875 -3.9375 C 12.234375 -4.40625 12.515625 -5.046875 12.515625 -5.859375 C 12.515625 -6.359375 12.425781 -6.769531 12.25 -7.09375 C 12.070312 -7.425781 11.773438 -7.710938 11.359375 -7.953125 C 10.941406 -8.191406 10.378906 -8.394531 9.671875 -8.5625 L 7 -9.171875 C 5.132812 -9.597656 3.742188 -10.304688 2.828125 -11.296875 C 1.921875 -12.285156 1.46875 -13.570312 1.46875 -15.15625 C 1.46875 -16.320312 1.757812 -17.347656 2.34375 -18.234375 C 2.925781 -19.128906 3.78125 -19.820312 4.90625 -20.3125 C 6.03125 -20.8125 7.375 -21.0625 8.9375 -21.0625 C 10.53125 -21.0625 11.894531 -20.847656 13.03125 -20.421875 C 14.175781 -20.003906 15.144531 -19.359375 15.9375 -18.484375 L 13.90625 -15.703125 L 13.546875 -15.703125 C 12.960938 -16.316406 12.289062 -16.773438 11.53125 -17.078125 C 10.769531 -17.390625 9.90625 -17.546875 8.9375 -17.546875 C 7.800781 -17.546875 6.941406 -17.347656 6.359375 -16.953125 C 5.773438 -16.554688 5.484375 -16.007812 5.484375 -15.3125 C 5.484375 -14.65625 5.6875 -14.128906 6.09375 -13.734375 C 6.507812 -13.347656 7.222656 -13.046875 8.234375 -12.828125 L 10.96875 -12.265625 C 12.976562 -11.835938 14.4375 -11.113281 15.34375 -10.09375 C 16.257812 -9.082031 16.71875 -7.757812 16.71875 -6.125 C 16.71875 -4.820312 16.4375 -3.691406 15.875 -2.734375 C 15.3125 -1.773438 14.46875 -1.03125 13.34375 -0.5 C 12.21875 0.03125 10.835938 0.296875 9.203125 0.296875 Z M 9.203125 0.296875 "/></g></g></g></g></g><g transform="matrix(1, 0, 0, 1, 254, 246)"><g clip-path="url(#60de99b4d0)"><g fill="#000000" fill-opacity="1"><g transform="translate(0.878645, 29.805063)"><g><path d="M 10.171875 -20.765625 C 13.535156 -20.765625 16.101562 -19.890625 17.875 -18.140625 C 19.65625 -16.398438 20.546875 -13.8125 20.546875 -10.375 C 20.546875 -6.945312 19.65625 -4.359375 17.875 -2.609375 C 16.101562 -0.867188 13.535156 0 10.171875 0 L 2.703125 0 L 2.703125 -20.765625 Z M 9.921875 -3.453125 C 12.066406 -3.453125 13.664062 -4 14.71875 -5.09375 C 15.78125 -6.1875 16.3125 -7.945312 16.3125 -10.375 C 16.3125 -12.8125 15.78125 -14.578125 14.71875 -15.671875 C 13.664062 -16.765625 12.066406 -17.3125 9.921875 -17.3125 L 6.796875 -17.3125 L 6.796875 -3.453125 Z M 9.921875 -3.453125 "/></g></g></g></g></g><g transform="matrix(1, 0, 0, 1, 384, 114)"><g clip-path="url(#97a2355366)"><g fill="#000000" fill-opacity="1"><g transform="translate(0.937805, 14.524372)"><g><path d="M 4.671875 0 L 2.515625 0 L 0.265625 -9.78125 L 2.1875 -9.78125 L 3.671875 -2.90625 L 3.84375 -2.90625 L 5.59375 -9.78125 L 7.25 -9.78125 L 9.03125 -2.90625 L 9.203125 -2.90625 L 10.6875 -9.78125 L 12.546875 -9.78125 L 10.3125 0 L 8.140625 0 L 6.4375 -6.3125 L 6.296875 -6.3125 Z M 4.671875 0 "/></g></g></g></g></g><g transform="matrix(1, 0, 0, 1, 386, 193)"><g clip-path="url(#89413570b2)"><g clip-path="url(#2efa6d2cbb)"><g fill="#000000" fill-opacity="1"><g transform="translate(0.5738, 14.307493)"><g><path d="M 9.390625 0 L 7.359375 0 L 6.625 -2.25 L 2.875 -2.25 L 2.140625 0 L 0.140625 0 L 3.53125 -9.78125 L 6.015625 -9.78125 Z M 4.65625 -7.734375 L 3.390625 -3.875 L 6.078125 -3.875 L 4.8125 -7.734375 Z M 4.65625 -7.734375 "/></g></g></g></g></g></g><g transform="matrix(1, 0, 0, 1, 386, 270)"><g clip-path="url(#426ee45e1c)"><g clip-path="url(#ccf18b15e5)"><g fill="#000000" fill-opacity="1"><g transform="translate(0.5738, 14.983977)"><g><path d="M 4.328125 0.140625 C 3.648438 0.140625 3.046875 0.0546875 2.515625 -0.109375 C 1.992188 -0.273438 1.554688 -0.492188 1.203125 -0.765625 C 0.847656 -1.035156 0.578125 -1.335938 0.390625 -1.671875 L 1.453125 -2.96875 L 1.625 -2.96875 C 1.914062 -2.53125 2.285156 -2.179688 2.734375 -1.921875 C 3.191406 -1.660156 3.722656 -1.53125 4.328125 -1.53125 C 4.847656 -1.53125 5.238281 -1.640625 5.5 -1.859375 C 5.769531 -2.078125 5.90625 -2.378906 5.90625 -2.765625 C 5.90625 -2.992188 5.859375 -3.1875 5.765625 -3.34375 C 5.679688 -3.5 5.539062 -3.632812 5.34375 -3.75 C 5.15625 -3.863281 4.894531 -3.957031 4.5625 -4.03125 L 3.296875 -4.328125 C 2.421875 -4.523438 1.765625 -4.851562 1.328125 -5.3125 C 0.898438 -5.78125 0.6875 -6.390625 0.6875 -7.140625 C 0.6875 -7.691406 0.820312 -8.175781 1.09375 -8.59375 C 1.375 -9.019531 1.78125 -9.347656 2.3125 -9.578125 C 2.84375 -9.804688 3.472656 -9.921875 4.203125 -9.921875 C 4.960938 -9.921875 5.609375 -9.820312 6.140625 -9.625 C 6.679688 -9.425781 7.132812 -9.125 7.5 -8.71875 L 6.546875 -7.40625 L 6.390625 -7.40625 C 6.109375 -7.6875 5.785156 -7.898438 5.421875 -8.046875 C 5.066406 -8.191406 4.660156 -8.265625 4.203125 -8.265625 C 3.671875 -8.265625 3.265625 -8.171875 2.984375 -7.984375 C 2.710938 -7.796875 2.578125 -7.539062 2.578125 -7.21875 C 2.578125 -6.90625 2.675781 -6.65625 2.875 -6.46875 C 3.070312 -6.289062 3.40625 -6.148438 3.875 -6.046875 L 5.171875 -5.78125 C 6.117188 -5.582031 6.804688 -5.242188 7.234375 -4.765625 C 7.660156 -4.285156 7.875 -3.660156 7.875 -2.890625 C 7.875 -2.273438 7.738281 -1.738281 7.46875 -1.28125 C 7.207031 -0.832031 6.8125 -0.484375 6.28125 -0.234375 C 5.757812 0.015625 5.109375 0.140625 4.328125 0.140625 Z M 4.328125 0.140625 "/></g></g></g></g></g></g><g transform="matrix(1, 0, 0, 1, 385, 348)"><g clip-path="url(#5f46d1fb86)"><g fill="#000000" fill-opacity="1"><g transform="translate(1.106369, 15.071011)"><g><path d="M 4.796875 -9.78125 C 6.378906 -9.78125 7.585938 -9.367188 8.421875 -8.546875 C 9.265625 -7.722656 9.6875 -6.503906 9.6875 -4.890625 C 9.6875 -3.273438 9.265625 -2.054688 8.421875 -1.234375 C 7.585938 -0.410156 6.378906 0 4.796875 0 L 1.265625 0 L 1.265625 -9.78125 Z M 4.671875 -1.625 C 5.679688 -1.625 6.4375 -1.878906 6.9375 -2.390625 C 7.4375 -2.910156 7.6875 -3.742188 7.6875 -4.890625 C 7.6875 -6.035156 7.4375 -6.863281 6.9375 -7.375 C 6.4375 -7.894531 5.679688 -8.15625 4.671875 -8.15625 L 3.203125 -8.15625 L 3.203125 -1.625 Z M 4.671875 -1.625 "/></g></g></g></g></g></svg>