<svg xmlns="http://www.w3.org/2000/svg" xmlns:xlink="http://www.w3.org/1999/xlink" width="900" zoomAndPan="magnify" viewBox="0 0 675 449.999984" height="600" preserveAspectRatio="xMidYMid meet" version="1.0"><defs><g/><clipPath id="4976de736f"><path d="M 0 0 L 675 0 L 675 450 L 0 450 Z M 0 0 " clip-rule="nonzero"/></clipPath><clipPath id="ef0cccf911"><rect x="0" width="675" y="0" height="450"/></clipPath><clipPath id="e2dd647504"><path d="M 9.332031 6.832031 L 667.667969 6.832031 L 667.667969 441.832031 L 9.332031 441.832031 Z M 9.332031 6.832031 " clip-rule="nonzero"/></clipPath><clipPath id="4d7ca37371"><path d="M 0.332031 0.832031 L 658 0.832031 L 658 435.832031 L 0.332031 435.832031 Z M 0.332031 0.832031 " clip-rule="nonzero"/></clipPath><clipPath id="f4b31edbe8"><rect x="0" width="659" y="0" height="436"/></clipPath><clipPath id="2577767557"><path d="M 13.574219 6.832031 L 666.667969 6.832031 L 666.667969 15.832031 L 13.574219 15.832031 Z M 13.574219 6.832031 " clip-rule="nonzero"/></clipPath><clipPath id="cbde1bc6cd"><path d="M 0.574219 0.832031 L 653.667969 0.832031 L 653.667969 9.832031 L 0.574219 9.832031 Z M 0.574219 0.832031 " clip-rule="nonzero"/></clipPath><clipPath id="79a5ead0be"><rect x="0" width="654" y="0" height="10"/></clipPath><clipPath id="cf8e03434e"><path d="M 9.339844 6.828125 L 17.820312 6.828125 L 17.820312 441.828125 L 9.339844 441.828125 Z M 9.339844 6.828125 " clip-rule="nonzero"/></clipPath><clipPath id="c1ee4b8f5f"><path d="M 0.339844 0.828125 L 8.820312 0.828125 L 8.820312 435.828125 L 0.339844 435.828125 Z M 0.339844 0.828125 " clip-rule="nonzero"/></clipPath><clipPath id="67f22d4784"><rect x="0" width="9" y="0" height="436"/></clipPath><clipPath id="ae442978ba"><path d="M 50.285156 207.089844 L 334.472656 207.089844 L 334.472656 289.5625 L 50.285156 289.5625 Z M 50.285156 207.089844 " clip-rule="nonzero"/></clipPath><clipPath id="d7654b2a93"><path d="M 0.285156 0.0898438 L 284.472656 0.0898438 L 284.472656 82.5625 L 0.285156 82.5625 Z M 0.285156 0.0898438 " clip-rule="nonzero"/></clipPath><clipPath id="adae884b65"><rect x="0" width="285" y="0" height="83"/></clipPath><clipPath id="bf12ad2c4e"><path d="M 54.824219 211.839844 L 328.710938 211.839844 L 328.710938 284.816406 L 54.824219 284.816406 Z M 54.824219 211.839844 " clip-rule="nonzero"/></clipPath><clipPath id="023cc04a5e"><path d="M 0.824219 0.839844 L 274.710938 0.839844 L 274.710938 73.816406 L 0.824219 73.816406 Z M 0.824219 0.839844 " clip-rule="nonzero"/></clipPath><clipPath id="9b02ab4882"><rect x="0" width="275" y="0" height="74"/></clipPath><clipPath id="960e434ac0"><path d="M 353.5625 356.28125 L 630 356.28125 L 630 362.695312 L 353.5625 362.695312 Z M 353.5625 356.28125 " clip-rule="nonzero"/></clipPath><clipPath id="38c51d32ed"><path d="M 0.5625 0.28125 L 277 0.28125 L 277 6.695312 L 0.5625 6.695312 Z M 0.5625 0.28125 " clip-rule="nonzero"/></clipPath><clipPath id="3195799687"><rect x="0" width="277" y="0" height="7"/></clipPath><clipPath id="e3c44daa9a"><path d="M 353.5625 123.476562 L 630 123.476562 L 630 359.664062 L 353.5625 359.664062 Z M 353.5625 123.476562 " clip-rule="nonzero"/></clipPath><clipPath id="0ced6f1e6a"><path d="M 0.5625 0.476562 L 277 0.476562 L 277 236.664062 L 0.5625 236.664062 Z M 0.5625 0.476562 " clip-rule="nonzero"/></clipPath><clipPath id="7d7b26a1a7"><rect x="0" width="277" y="0" height="237"/></clipPath><clipPath id="7242c890ac"><path d="M 356.796875 127.679688 L 626.765625 127.679688 L 626.765625 356.28125 L 356.796875 356.28125 Z M 356.796875 127.679688 " clip-rule="nonzero"/></clipPath><clipPath id="1519cb7c68"><path d="M 0.796875 0.679688 L 270.765625 0.679688 L 270.765625 229.28125 L 0.796875 229.28125 Z M 0.796875 0.679688 " clip-rule="nonzero"/></clipPath><clipPath id="ab3e52932d"><rect x="0" width="271" y="0" height="230"/></clipPath><clipPath id="a21b390c7a"><path d="M 356.796875 127.679688 L 360.546875 127.679688 L 360.546875 356.28125 L 356.796875 356.28125 Z M 356.796875 127.679688 " clip-rule="nonzero"/></clipPath><clipPath id="0948366442"><path d="M 0.796875 0.679688 L 4.546875 0.679688 L 4.546875 229.28125 L 0.796875 229.28125 Z M 0.796875 0.679688 " clip-rule="nonzero"/></clipPath><clipPath id="7406a6f7a4"><rect x="0" width="5" y="0" height="230"/></clipPath><clipPath id="8da05c018b"><path d="M 356.800781 127.679688 L 626.769531 127.679688 L 626.769531 131.429688 L 356.800781 131.429688 Z M 356.800781 127.679688 " clip-rule="nonzero"/></clipPath><clipPath id="bbbfe3bda2"><path d="M 0.800781 0.679688 L 270.769531 0.679688 L 270.769531 4.429688 L 0.800781 4.429688 Z M 0.800781 0.679688 " clip-rule="nonzero"/></clipPath><clipPath id="d0ac2d48f2"><rect x="0" width="271" y="0" height="5"/></clipPath><clipPath id="921a858a2e"><rect x="0" width="95" y="0" height="21"/></clipPath><clipPath id="5050b9b024"><path d="M 45 276.34375 L 329.183594 276.34375 L 329.183594 285.339844 L 45 285.339844 Z M 45 276.34375 " clip-rule="nonzero"/></clipPath><clipPath id="c1f3c10812"><path d="M 0 0.34375 L 284.183594 0.34375 L 284.183594 9.339844 L 0 9.339844 Z M 0 0.34375 " clip-rule="nonzero"/></clipPath><clipPath id="eb10bdda93"><rect x="0" width="285" y="0" height="10"/></clipPath><clipPath id="926ff216ca"><path d="M 45 198.621094 L 329.183594 198.621094 L 329.183594 281.09375 L 45 281.09375 Z M 45 198.621094 " clip-rule="nonzero"/></clipPath><clipPath id="9f7d95af83"><path d="M 0 0.621094 L 284.183594 0.621094 L 284.183594 83.09375 L 0 83.09375 Z M 0 0.621094 " clip-rule="nonzero"/></clipPath><clipPath id="fca13131d9"><rect x="0" width="285" y="0" height="84"/></clipPath><clipPath id="8fba3e2a88"><path d="M 49.535156 203.367188 L 323.421875 203.367188 L 323.421875 276.34375 L 49.535156 276.34375 Z M 49.535156 203.367188 " clip-rule="nonzero"/></clipPath><clipPath id="9b8591c56b"><path d="M 0.535156 0.367188 L 274.421875 0.367188 L 274.421875 73.34375 L 0.535156 73.34375 Z M 0.535156 0.367188 " clip-rule="nonzero"/></clipPath><clipPath id="ab4872bb37"><rect x="0" width="275" y="0" height="74"/></clipPath><clipPath id="56e58a02aa"><path d="M 49.539062 203.363281 L 323.425781 203.363281 L 323.425781 209.304688 L 49.539062 209.304688 Z M 49.539062 203.363281 " clip-rule="nonzero"/></clipPath><clipPath id="6fc352c198"><path d="M 0.539062 0.363281 L 274.425781 0.363281 L 274.425781 6.304688 L 0.539062 6.304688 Z M 0.539062 0.363281 " clip-rule="nonzero"/></clipPath><clipPath id="09adb33ec9"><rect x="0" width="275" y="0" height="7"/></clipPath><clipPath id="d9d40dba5f"><path d="M 49.535156 205.886719 L 55.15625 205.886719 L 55.15625 276.335938 L 49.535156 276.335938 Z M 49.535156 205.886719 " clip-rule="nonzero"/></clipPath><clipPath id="098debbc2a"><path d="M 0.535156 0.886719 L 6.15625 0.886719 L 6.15625 71.335938 L 0.535156 71.335938 Z M 0.535156 0.886719 " clip-rule="nonzero"/></clipPath><clipPath id="187b81f8c4"><rect x="0" width="7" y="0" height="72"/></clipPath><clipPath id="91c0e5e521"><path d="M 0.71875 0.160156 L 10 0.160156 L 10 10 L 0.71875 10 Z M 0.71875 0.160156 " clip-rule="nonzero"/></clipPath><clipPath id="5cbbdf35d2"><path d="M 12 0.160156 L 20 0.160156 L 20 10 L 12 10 Z M 12 0.160156 " clip-rule="nonzero"/></clipPath><clipPath id="d84ba668fd"><path d="M 20 0.160156 L 30 0.160156 L 30 10 L 20 10 Z M 20 0.160156 " clip-rule="nonzero"/></clipPath><clipPath id="3183d4a0cc"><path d="M 32 0.160156 L 40 0.160156 L 40 10 L 32 10 Z M 32 0.160156 " clip-rule="nonzero"/></clipPath><clipPath id="dfc8f45ddc"><path d="M 40 0.160156 L 50 0.160156 L 50 10 L 40 10 Z M 40 0.160156 " clip-rule="nonzero"/></clipPath><clipPath id="94b179a30b"><path d="M 50 0.160156 L 60 0.160156 L 60 10 L 50 10 Z M 50 0.160156 " clip-rule="nonzero"/></clipPath><clipPath id="fa99dfe555"><path d="M 60 10 L 61 10 L 61 10.480469 L 60 10.480469 Z M 60 10 " clip-rule="nonzero"/></clipPath><clipPath id="8788f5f717"><path d="M 71 0.160156 L 80 0.160156 L 80 10 L 71 10 Z M 71 0.160156 " clip-rule="nonzero"/></clipPath><clipPath id="846de67457"><path d="M 80 10 L 81 10 L 81 10.480469 L 80 10.480469 Z M 80 10 " clip-rule="nonzero"/></clipPath><clipPath id="253fb05b80"><path d="M 90 0.160156 L 100 0.160156 L 100 10 L 90 10 Z M 90 0.160156 " clip-rule="nonzero"/></clipPath><clipPath id="7b6d604a5f"><path d="M 100 0.160156 L 110 0.160156 L 110 10 L 100 10 Z M 100 0.160156 " clip-rule="nonzero"/></clipPath><clipPath id="87f5e2859c"><path d="M 110 0.160156 L 120 0.160156 L 120 10 L 110 10 Z M 110 0.160156 " clip-rule="nonzero"/></clipPath><clipPath id="19707be515"><path d="M 120 10 L 121 10 L 121 10.480469 L 120 10.480469 Z M 120 10 " clip-rule="nonzero"/></clipPath><clipPath id="48bff90e7c"><path d="M 131 0.160156 L 140 0.160156 L 140 10 L 131 10 Z M 131 0.160156 " clip-rule="nonzero"/></clipPath><clipPath id="4cde0f8e2b"><path d="M 140 0.160156 L 150 0.160156 L 150 10 L 140 10 Z M 140 0.160156 " clip-rule="nonzero"/></clipPath><clipPath id="182ef05002"><path d="M 151 0.160156 L 160 0.160156 L 160 10 L 151 10 Z M 151 0.160156 " clip-rule="nonzero"/></clipPath><clipPath id="a882857fee"><path d="M 160 0.160156 L 170 0.160156 L 170 10 L 160 10 Z M 160 0.160156 " clip-rule="nonzero"/></clipPath><clipPath id="0ce89f4c2c"><path d="M 170 10 L 171 10 L 171 10.480469 L 170 10.480469 Z M 170 10 " clip-rule="nonzero"/></clipPath><clipPath id="74540946fb"><path d="M 180 0.160156 L 190 0.160156 L 190 10 L 180 10 Z M 180 0.160156 " clip-rule="nonzero"/></clipPath><clipPath id="01da2b0891"><path d="M 190 0.160156 L 200 0.160156 L 200 10 L 190 10 Z M 190 0.160156 " clip-rule="nonzero"/></clipPath><clipPath id="90a76c5c7b"><path d="M 200 0.160156 L 210 0.160156 L 210 10 L 200 10 Z M 200 0.160156 " clip-rule="nonzero"/></clipPath><clipPath id="8133abe12d"><path d="M 210 0.160156 L 220 0.160156 L 220 10 L 210 10 Z M 210 0.160156 " clip-rule="nonzero"/></clipPath><clipPath id="fda37337ce"><path d="M 220 0.160156 L 230 0.160156 L 230 10 L 220 10 Z M 220 0.160156 " clip-rule="nonzero"/></clipPath><clipPath id="972604eb2d"><rect x="0" width="231" y="0" height="11"/></clipPath></defs><rect x="-67.5" width="810" fill="#ffffff" y="-44.999998" height="539.99998" fill-opacity="1"/><rect x="-67.5" width="810" fill="#7dbcf6" y="-44.999998" height="539.99998" fill-opacity="1"/><g transform="matrix(1, 0, 0, 1, 0, 0)"><g clip-path="url(#ef0cccf911)"><g clip-path="url(#4976de736f)"><rect x="-148.5" width="972" fill="#307476" height="647.999977" y="-98.999996" fill-opacity="1"/></g></g></g><g clip-path="url(#e2dd647504)"><g transform="matrix(1, 0, 0, 1, 9, 6)"><g clip-path="url(#f4b31edbe8)"><g clip-path="url(#4d7ca37371)"><path fill="#5ce1e6" d="M 0.332031 0.832031 L 657.929688 0.832031 L 657.929688 435.832031 L 0.332031 435.832031 Z M 0.332031 0.832031 " fill-opacity="1" fill-rule="nonzero"/></g></g></g></g><g clip-path="url(#2577767557)"><g transform="matrix(1, 0, 0, 1, 13, 6)"><g clip-path="url(#79a5ead0be)"><g clip-path="url(#cbde1bc6cd)"><path fill="#f2f2f2" d="M 0.574219 0.832031 L 653.671875 0.832031 L 653.671875 9.832031 L 0.574219 9.832031 Z M 0.574219 0.832031 " fill-opacity="1" fill-rule="nonzero"/></g></g></g></g><g clip-path="url(#cf8e03434e)"><g transform="matrix(1, 0, 0, 1, 9, 6)"><g clip-path="url(#67f22d4784)"><g clip-path="url(#c1ee4b8f5f)"><path fill="#f2f2f2" d="M 0.339844 435.828125 L 0.339844 0.824219 L 8.820312 0.824219 L 8.820312 435.828125 Z M 0.339844 435.828125 " fill-opacity="1" fill-rule="nonzero"/></g></g></g></g><g clip-path="url(#ae442978ba)"><g transform="matrix(1, 0, 0, 1, 50, 207)"><g clip-path="url(#adae884b65)"><g clip-path="url(#d7654b2a93)"><path fill="#000000" d="M 0.285156 0.0898438 L 284.4375 0.0898438 L 284.4375 82.5625 L 0.285156 82.5625 Z M 0.285156 0.0898438 " fill-opacity="1" fill-rule="nonzero"/></g></g></g></g><g clip-path="url(#bf12ad2c4e)"><g transform="matrix(1, 0, 0, 1, 54, 211)"><g clip-path="url(#9b02ab4882)"><g clip-path="url(#023cc04a5e)"><path fill="#e4e4e4" d="M 0.824219 0.839844 L 274.769531 0.839844 L 274.769531 73.816406 L 0.824219 73.816406 Z M 0.824219 0.839844 " fill-opacity="1" fill-rule="nonzero"/></g></g></g></g><g fill="#000000" fill-opacity="1"><g transform="translate(245.713776, 67.704885)"><g><path d="M 1.390625 -5.5625 L 1.390625 -8.34375 L 9.734375 -8.34375 L 9.734375 -5.5625 Z M 1.390625 -5.5625 "/></g></g></g><g fill="#000000" fill-opacity="1"><g transform="translate(256.837215, 67.704885)"><g/></g></g><g fill="#000000" fill-opacity="1"><g transform="translate(263.789363, 67.704885)"><g><path d="M 12.515625 -2.78125 L 12.515625 0 L 4.171875 0 L 4.171875 -2.78125 Z M 1.390625 -2.78125 L 1.390625 -16.6875 L 4.171875 -16.6875 L 4.171875 -2.78125 Z M 4.171875 -16.6875 L 4.171875 -19.46875 L 12.515625 -19.46875 L 12.515625 -16.6875 Z M 9.734375 -8.34375 L 9.734375 -11.125 L 15.296875 -11.125 L 15.296875 -2.78125 L 12.515625 -2.78125 L 12.515625 -8.34375 Z M 12.515625 -13.90625 L 12.515625 -16.6875 L 15.296875 -16.6875 L 15.296875 -13.90625 Z M 12.515625 -13.90625 "/></g></g></g><g fill="#000000" fill-opacity="1"><g transform="translate(280.474527, 67.704885)"><g><path d="M 1.390625 0 L 1.390625 -16.6875 L 4.171875 -16.6875 L 4.171875 -8.34375 L 12.515625 -8.34375 L 12.515625 -16.6875 L 15.296875 -16.6875 L 15.296875 0 L 12.515625 0 L 12.515625 -5.5625 L 4.171875 -5.5625 L 4.171875 0 Z M 4.171875 -16.6875 L 4.171875 -19.46875 L 12.515625 -19.46875 L 12.515625 -16.6875 Z M 4.171875 -16.6875 "/></g></g></g><g fill="#000000" fill-opacity="1"><g transform="translate(297.159691, 67.704885)"><g><path d="M 12.515625 0 L 12.515625 -13.90625 L 9.734375 -13.90625 L 9.734375 -16.6875 L 12.515625 -16.6875 L 12.515625 -19.46875 L 15.296875 -19.46875 L 15.296875 0 Z M 1.390625 0 L 1.390625 -19.46875 L 4.171875 -19.46875 L 4.171875 -16.6875 L 6.953125 -16.6875 L 6.953125 -13.90625 L 4.171875 -13.90625 L 4.171875 0 Z M 6.953125 -11.125 L 6.953125 -13.90625 L 9.734375 -13.90625 L 9.734375 -11.125 Z M 6.953125 -11.125 "/></g></g></g><g fill="#000000" fill-opacity="1"><g transform="translate(313.844855, 67.704885)"><g><path d="M 1.390625 0 L 1.390625 -19.46875 L 15.296875 -19.46875 L 15.296875 -16.6875 L 4.171875 -16.6875 L 4.171875 -11.125 L 12.515625 -11.125 L 12.515625 -8.34375 L 4.171875 -8.34375 L 4.171875 -2.78125 L 15.265625 -2.78125 L 15.265625 0 Z M 1.390625 0 "/></g></g></g><g fill="#000000" fill-opacity="1"><g transform="translate(330.530019, 67.704885)"><g/></g></g><g fill="#000000" fill-opacity="1"><g transform="translate(337.482167, 67.704885)"><g><path d="M 1.390625 0 L 1.390625 -19.46875 L 12.515625 -19.46875 L 12.515625 -16.6875 L 4.171875 -16.6875 L 4.171875 -11.125 L 12.515625 -11.125 L 12.515625 -8.34375 L 4.171875 -8.34375 L 4.171875 0 Z M 12.515625 -11.125 L 12.515625 -16.6875 L 15.296875 -16.6875 L 15.296875 -11.125 Z M 12.515625 -11.125 "/></g></g></g><g fill="#000000" fill-opacity="1"><g transform="translate(354.167331, 67.704885)"><g><path d="M 1.390625 0 L 1.390625 -19.46875 L 4.171875 -19.46875 L 4.171875 -2.78125 L 15.296875 -2.78125 L 15.296875 0 Z M 1.390625 0 "/></g></g></g><g fill="#000000" fill-opacity="1"><g transform="translate(370.852495, 67.704885)"><g><path d="M 1.390625 0 L 1.390625 -16.6875 L 4.171875 -16.6875 L 4.171875 -8.34375 L 12.515625 -8.34375 L 12.515625 -16.6875 L 15.296875 -16.6875 L 15.296875 0 L 12.515625 0 L 12.515625 -5.5625 L 4.171875 -5.5625 L 4.171875 0 Z M 4.171875 -16.6875 L 4.171875 -19.46875 L 12.515625 -19.46875 L 12.515625 -16.6875 Z M 4.171875 -16.6875 "/></g></g></g><g fill="#000000" fill-opacity="1"><g transform="translate(387.537659, 67.704885)"><g><path d="M 6.953125 0 L 6.953125 -8.34375 L 9.734375 -8.34375 L 9.734375 0 Z M 1.390625 -13.90625 L 1.390625 -19.46875 L 4.171875 -19.46875 L 4.171875 -13.90625 Z M 4.171875 -8.34375 L 4.171875 -13.90625 L 6.953125 -13.90625 L 6.953125 -8.34375 Z M 9.734375 -8.34375 L 9.734375 -13.90625 L 12.515625 -13.90625 L 12.515625 -8.34375 Z M 12.515625 -13.90625 L 12.515625 -19.46875 L 15.296875 -19.46875 L 15.296875 -13.90625 Z M 12.515625 -13.90625 "/></g></g></g><g fill="#000000" fill-opacity="1"><g transform="translate(404.222823, 67.704885)"><g/></g></g><g fill="#000000" fill-opacity="1"><g transform="translate(411.174971, 67.704885)"><g><path d="M 1.390625 -5.5625 L 1.390625 -8.34375 L 9.734375 -8.34375 L 9.734375 -5.5625 Z M 1.390625 -5.5625 "/></g></g></g><g fill="#000000" fill-opacity="1"><g transform="translate(422.303606, 67.704885)"><g/></g></g><g clip-path="url(#960e434ac0)"><g transform="matrix(1, 0, 0, 1, 353, 356)"><g clip-path="url(#3195799687)"><g clip-path="url(#38c51d32ed)"><path fill="#276043" d="M 0.5625 0.28125 L 277.003906 0.28125 L 277.003906 6.695312 L 0.5625 6.695312 Z M 0.5625 0.28125 " fill-opacity="1" fill-rule="nonzero"/></g></g></g></g><g clip-path="url(#e3c44daa9a)"><g transform="matrix(1, 0, 0, 1, 353, 123)"><g clip-path="url(#7d7b26a1a7)"><g clip-path="url(#0ced6f1e6a)"><path fill="#459f71" d="M 0.5625 0.476562 L 277.347656 0.476562 L 277.347656 236.664062 L 0.5625 236.664062 Z M 0.5625 0.476562 " fill-opacity="1" fill-rule="nonzero"/></g></g></g></g><g clip-path="url(#7242c890ac)"><g transform="matrix(1, 0, 0, 1, 356, 127)"><g clip-path="url(#ab3e52932d)"><g clip-path="url(#1519cb7c68)"><path fill="#70ffb6" d="M 0.796875 0.679688 L 270.476562 0.679688 L 270.476562 229.28125 L 0.796875 229.28125 Z M 0.796875 0.679688 " fill-opacity="1" fill-rule="nonzero"/></g></g></g></g><g clip-path="url(#a21b390c7a)"><g transform="matrix(1, 0, 0, 1, 356, 127)"><g clip-path="url(#7406a6f7a4)"><g clip-path="url(#0948366442)"><path fill="#f2f2f2" d="M 0.796875 0.679688 L 4.546875 0.679688 L 4.546875 229.285156 L 0.796875 229.285156 Z M 0.796875 0.679688 " fill-opacity="1" fill-rule="nonzero"/></g></g></g></g><g clip-path="url(#8da05c018b)"><g transform="matrix(1, 0, 0, 1, 356, 127)"><g clip-path="url(#d0ac2d48f2)"><g clip-path="url(#bbbfe3bda2)"><path fill="#f2f2f2" d="M 0.800781 4.429688 L 0.800781 0.679688 L 270.769531 0.679688 L 270.769531 4.429688 Z M 0.800781 4.429688 " fill-opacity="1" fill-rule="nonzero"/></g></g></g></g><g fill="#000000" fill-opacity="1"><g transform="translate(386.192854, 217.376335)"><g><path d="M 1 0 L 1 -13.890625 L 10.921875 -13.890625 L 10.921875 -11.90625 L 2.984375 -11.90625 L 2.984375 -7.9375 L 8.9375 -7.9375 L 8.9375 -5.953125 L 2.984375 -5.953125 L 2.984375 -1.984375 L 10.890625 -1.984375 L 10.890625 0 Z M 1 0 "/></g></g></g><g fill="#000000" fill-opacity="1"><g transform="translate(398.089742, 217.376335)"><g><path d="M 2.984375 0 L 2.984375 -1.984375 L 8.9375 -1.984375 L 8.9375 -3.96875 L 2.984375 -3.96875 L 2.984375 -5.953125 L 8.9375 -5.953125 L 8.9375 -7.9375 L 10.921875 -7.9375 L 10.921875 0 Z M 1 -1.984375 L 1 -3.96875 L 2.984375 -3.96875 L 2.984375 -1.984375 Z M 2.984375 -7.9375 L 2.984375 -9.921875 L 8.9375 -9.921875 L 8.9375 -7.9375 Z M 2.984375 -7.9375 "/></g></g></g><g fill="#000000" fill-opacity="1"><g transform="translate(409.98663, 217.376335)"><g><path d="M 2.984375 -7.9375 L 2.984375 -1.984375 L 1 -1.984375 L 1 -7.9375 Z M 2.984375 0 L 2.984375 -1.984375 L 8.9375 -1.984375 L 8.9375 0 Z M 2.984375 -7.9375 L 2.984375 -9.921875 L 8.9375 -9.921875 L 8.9375 -7.9375 Z M 2.984375 -7.9375 "/></g></g></g><g fill="#000000" fill-opacity="1"><g transform="translate(419.900703, 217.376335)"><g><path d="M 1 0 L 1 -13.890625 L 2.984375 -13.890625 L 2.984375 -7.9375 L 4.96875 -7.9375 L 4.96875 -5.953125 L 2.984375 -5.953125 L 2.984375 0 Z M 4.96875 -7.9375 L 4.96875 -9.921875 L 8.9375 -9.921875 L 8.9375 -7.9375 Z M 8.9375 0 L 8.9375 -7.9375 L 10.921875 -7.9375 L 10.921875 0 Z M 8.9375 0 "/></g></g></g><g fill="#000000" fill-opacity="1"><g transform="translate(431.797591, 217.376335)"><g/></g></g><g fill="#000000" fill-opacity="1"><g transform="translate(436.754622, 217.376335)"><g><path d="M 1 -1.984375 L 1 -13.890625 L 2.984375 -13.890625 L 2.984375 -9.921875 L 6.953125 -9.921875 L 6.953125 -7.9375 L 2.984375 -7.9375 L 2.984375 -1.984375 Z M 2.984375 0 L 2.984375 -1.984375 L 6.953125 -1.984375 L 6.953125 0 Z M 2.984375 0 "/></g></g></g><g fill="#000000" fill-opacity="1"><g transform="translate(444.68588, 217.376335)"><g><path d="M 1 0 L 1 -9.921875 L 2.984375 -9.921875 L 2.984375 0 Z M 1 -11.90625 L 1 -13.890625 L 2.984375 -13.890625 L 2.984375 -11.90625 Z M 1 -11.90625 "/></g></g></g><g fill="#000000" fill-opacity="1"><g transform="translate(448.651509, 217.376335)"><g><path d="M 12.90625 0 L 12.90625 -7.9375 L 14.890625 -7.9375 L 14.890625 0 Z M 1 0 L 1 -7.9375 L 2.984375 -7.9375 L 2.984375 0 Z M 2.984375 -7.9375 L 2.984375 -9.921875 L 6.953125 -9.921875 L 6.953125 -7.9375 Z M 6.953125 0 L 6.953125 -7.9375 L 8.9375 -7.9375 L 8.9375 0 Z M 8.9375 -7.9375 L 8.9375 -9.921875 L 12.90625 -9.921875 L 12.90625 -7.9375 Z M 8.9375 -7.9375 "/></g></g></g><g fill="#000000" fill-opacity="1"><g transform="translate(464.514026, 217.376335)"><g><path d="M 1 -1.984375 L 1 -7.9375 L 2.984375 -7.9375 L 2.984375 -5.953125 L 8.9375 -5.953125 L 8.9375 -3.96875 L 2.984375 -3.96875 L 2.984375 -1.984375 Z M 2.984375 0 L 2.984375 -1.984375 L 8.9375 -1.984375 L 8.9375 0 Z M 2.984375 -7.9375 L 2.984375 -9.921875 L 8.9375 -9.921875 L 8.9375 -7.9375 Z M 8.9375 -5.953125 L 8.9375 -7.9375 L 10.921875 -7.9375 L 10.921875 -5.953125 Z M 8.9375 -5.953125 "/></g></g></g><g fill="#000000" fill-opacity="1"><g transform="translate(476.410914, 217.376335)"><g/></g></g><g fill="#000000" fill-opacity="1"><g transform="translate(481.367945, 217.376335)"><g><path d="M 8.9375 1.984375 L 8.9375 3.96875 L 2.984375 3.96875 L 2.984375 1.984375 Z M 1 -1.984375 L 1 -9.921875 L 2.984375 -9.921875 L 2.984375 -1.984375 Z M 2.984375 0 L 2.984375 -1.984375 L 8.9375 -1.984375 L 8.9375 -9.921875 L 10.921875 -9.921875 L 10.921875 1.984375 L 8.9375 1.984375 L 8.9375 0 Z M 2.984375 0 "/></g></g></g><g fill="#000000" fill-opacity="1"><g transform="translate(493.264833, 217.376335)"><g><path d="M 8.9375 -1.984375 L 8.9375 0 L 2.984375 0 L 2.984375 -1.984375 Z M 1 -1.984375 L 1 -7.9375 L 2.984375 -7.9375 L 2.984375 -1.984375 Z M 2.984375 -7.9375 L 2.984375 -9.921875 L 8.9375 -9.921875 L 8.9375 -7.9375 Z M 8.9375 -1.984375 L 8.9375 -7.9375 L 10.921875 -7.9375 L 10.921875 -1.984375 Z M 8.9375 -1.984375 "/></g></g></g><g fill="#000000" fill-opacity="1"><g transform="translate(505.16172, 217.376335)"><g><path d="M 8.9375 -1.984375 L 8.9375 0 L 2.984375 0 L 2.984375 -1.984375 Z M 1 -1.984375 L 1 -9.921875 L 2.984375 -9.921875 L 2.984375 -1.984375 Z M 8.9375 -1.984375 L 8.9375 -9.921875 L 10.921875 -9.921875 L 10.921875 -1.984375 Z M 8.9375 -1.984375 "/></g></g></g><g fill="#000000" fill-opacity="1"><g transform="translate(517.058608, 217.376335)"><g/></g></g><g fill="#000000" fill-opacity="1"><g transform="translate(522.015639, 217.376335)"><g><path d="M 2.984375 0 L 2.984375 -1.984375 L 8.9375 -1.984375 L 8.9375 -7.9375 L 2.984375 -7.9375 L 2.984375 -9.921875 L 8.9375 -9.921875 L 8.9375 -13.890625 L 10.921875 -13.890625 L 10.921875 0 Z M 1 -1.984375 L 1 -7.9375 L 2.984375 -7.9375 L 2.984375 -1.984375 Z M 1 -1.984375 "/></g></g></g><g fill="#000000" fill-opacity="1"><g transform="translate(533.912527, 217.376335)"><g><path d="M 1 -1.984375 L 1 -7.9375 L 2.984375 -7.9375 L 2.984375 -5.953125 L 8.9375 -5.953125 L 8.9375 -3.96875 L 2.984375 -3.96875 L 2.984375 -1.984375 Z M 2.984375 0 L 2.984375 -1.984375 L 8.9375 -1.984375 L 8.9375 0 Z M 2.984375 -7.9375 L 2.984375 -9.921875 L 8.9375 -9.921875 L 8.9375 -7.9375 Z M 8.9375 -5.953125 L 8.9375 -7.9375 L 10.921875 -7.9375 L 10.921875 -5.953125 Z M 8.9375 -5.953125 "/></g></g></g><g fill="#000000" fill-opacity="1"><g transform="translate(545.809415, 217.376335)"><g><path d="M 2.984375 -7.9375 L 2.984375 -5.953125 L 1 -5.953125 L 1 -7.9375 Z M 1 0 L 1 -1.984375 L 6.953125 -1.984375 L 6.953125 0 Z M 2.984375 -3.96875 L 2.984375 -5.953125 L 6.953125 -5.953125 L 6.953125 -3.96875 Z M 2.984375 -7.9375 L 2.984375 -9.921875 L 8.9375 -9.921875 L 8.9375 -7.9375 Z M 6.953125 -1.984375 L 6.953125 -3.96875 L 8.9375 -3.96875 L 8.9375 -1.984375 Z M 6.953125 -1.984375 "/></g></g></g><g fill="#000000" fill-opacity="1"><g transform="translate(555.723488, 217.376335)"><g><path d="M 1 -1.984375 L 1 -13.890625 L 2.984375 -13.890625 L 2.984375 -9.921875 L 6.953125 -9.921875 L 6.953125 -7.9375 L 2.984375 -7.9375 L 2.984375 -1.984375 Z M 2.984375 0 L 2.984375 -1.984375 L 6.953125 -1.984375 L 6.953125 0 Z M 2.984375 0 "/></g></g></g><g fill="#000000" fill-opacity="1"><g transform="translate(563.654746, 217.376335)"><g><path d="M 1 0 L 1 -9.921875 L 2.984375 -9.921875 L 2.984375 -7.9375 L 4.96875 -7.9375 L 4.96875 -5.953125 L 2.984375 -5.953125 L 2.984375 0 Z M 4.96875 -7.9375 L 4.96875 -9.921875 L 8.9375 -9.921875 L 8.9375 -7.9375 Z M 4.96875 -7.9375 "/></g></g></g><g fill="#000000" fill-opacity="1"><g transform="translate(573.56882, 217.376335)"><g><path d="M 8.9375 -1.984375 L 8.9375 0 L 2.984375 0 L 2.984375 -1.984375 Z M 1 -1.984375 L 1 -7.9375 L 2.984375 -7.9375 L 2.984375 -1.984375 Z M 2.984375 -7.9375 L 2.984375 -9.921875 L 8.9375 -9.921875 L 8.9375 -7.9375 Z M 8.9375 -1.984375 L 8.9375 -7.9375 L 10.921875 -7.9375 L 10.921875 -1.984375 Z M 8.9375 -1.984375 "/></g></g></g><g fill="#000000" fill-opacity="1"><g transform="translate(585.465696, 217.376335)"><g><path d="M 8.9375 1.984375 L 8.9375 3.96875 L 2.984375 3.96875 L 2.984375 1.984375 Z M 1 -1.984375 L 1 -9.921875 L 2.984375 -9.921875 L 2.984375 -1.984375 Z M 2.984375 0 L 2.984375 -1.984375 L 8.9375 -1.984375 L 8.9375 -9.921875 L 10.921875 -9.921875 L 10.921875 1.984375 L 8.9375 1.984375 L 8.9375 0 Z M 2.984375 0 "/></g></g></g><g fill="#000000" fill-opacity="1"><g transform="translate(395.110822, 245.126333)"><g><path d="M 1 -1.984375 L 1 -13.890625 L 2.984375 -13.890625 L 2.984375 -9.921875 L 6.953125 -9.921875 L 6.953125 -7.9375 L 2.984375 -7.9375 L 2.984375 -1.984375 Z M 2.984375 0 L 2.984375 -1.984375 L 6.953125 -1.984375 L 6.953125 0 Z M 2.984375 0 "/></g></g></g><g fill="#000000" fill-opacity="1"><g transform="translate(403.042081, 245.126333)"><g><path d="M 1 0 L 1 -13.890625 L 2.984375 -13.890625 L 2.984375 -7.9375 L 4.96875 -7.9375 L 4.96875 -5.953125 L 2.984375 -5.953125 L 2.984375 0 Z M 4.96875 -7.9375 L 4.96875 -9.921875 L 8.9375 -9.921875 L 8.9375 -7.9375 Z M 8.9375 0 L 8.9375 -7.9375 L 10.921875 -7.9375 L 10.921875 0 Z M 8.9375 0 "/></g></g></g><g fill="#000000" fill-opacity="1"><g transform="translate(414.938968, 245.126333)"><g><path d="M 1 -1.984375 L 1 -7.9375 L 2.984375 -7.9375 L 2.984375 -5.953125 L 8.9375 -5.953125 L 8.9375 -3.96875 L 2.984375 -3.96875 L 2.984375 -1.984375 Z M 2.984375 0 L 2.984375 -1.984375 L 8.9375 -1.984375 L 8.9375 0 Z M 2.984375 -7.9375 L 2.984375 -9.921875 L 8.9375 -9.921875 L 8.9375 -7.9375 Z M 8.9375 -5.953125 L 8.9375 -7.9375 L 10.921875 -7.9375 L 10.921875 -5.953125 Z M 8.9375 -5.953125 "/></g></g></g><g fill="#000000" fill-opacity="1"><g transform="translate(426.835856, 245.126333)"><g/></g></g><g fill="#000000" fill-opacity="1"><g transform="translate(431.792887, 245.126333)"><g><path d="M 1 -1.984375 L 1 -7.9375 L 2.984375 -7.9375 L 2.984375 -5.953125 L 8.9375 -5.953125 L 8.9375 -3.96875 L 2.984375 -3.96875 L 2.984375 -1.984375 Z M 2.984375 0 L 2.984375 -1.984375 L 8.9375 -1.984375 L 8.9375 0 Z M 2.984375 -7.9375 L 2.984375 -9.921875 L 8.9375 -9.921875 L 8.9375 -7.9375 Z M 8.9375 -5.953125 L 8.9375 -7.9375 L 10.921875 -7.9375 L 10.921875 -5.953125 Z M 8.9375 -5.953125 "/></g></g></g><g fill="#000000" fill-opacity="1"><g transform="translate(443.689775, 245.126333)"><g><path d="M 8.9375 0 L 8.9375 -7.9375 L 10.921875 -7.9375 L 10.921875 0 Z M 1 0 L 1 -7.9375 L 2.984375 -7.9375 L 2.984375 0 Z M 2.984375 -7.9375 L 2.984375 -9.921875 L 8.9375 -9.921875 L 8.9375 -7.9375 Z M 2.984375 -7.9375 "/></g></g></g><g fill="#000000" fill-opacity="1"><g transform="translate(455.586663, 245.126333)"><g><path d="M 1 -1.984375 L 1 -7.9375 L 2.984375 -7.9375 L 2.984375 -5.953125 L 8.9375 -5.953125 L 8.9375 -3.96875 L 2.984375 -3.96875 L 2.984375 -1.984375 Z M 2.984375 0 L 2.984375 -1.984375 L 8.9375 -1.984375 L 8.9375 0 Z M 2.984375 -7.9375 L 2.984375 -9.921875 L 8.9375 -9.921875 L 8.9375 -7.9375 Z M 8.9375 -5.953125 L 8.9375 -7.9375 L 10.921875 -7.9375 L 10.921875 -5.953125 Z M 8.9375 -5.953125 "/></g></g></g><g fill="#000000" fill-opacity="1"><g transform="translate(467.48355, 245.126333)"><g><path d="M 12.90625 0 L 12.90625 -7.9375 L 14.890625 -7.9375 L 14.890625 0 Z M 1 0 L 1 -7.9375 L 2.984375 -7.9375 L 2.984375 0 Z M 2.984375 -7.9375 L 2.984375 -9.921875 L 6.953125 -9.921875 L 6.953125 -7.9375 Z M 6.953125 0 L 6.953125 -7.9375 L 8.9375 -7.9375 L 8.9375 0 Z M 8.9375 -7.9375 L 8.9375 -9.921875 L 12.90625 -9.921875 L 12.90625 -7.9375 Z M 8.9375 -7.9375 "/></g></g></g><g fill="#000000" fill-opacity="1"><g transform="translate(483.346067, 245.126333)"><g><path d="M 8.9375 1.984375 L 8.9375 3.96875 L 2.984375 3.96875 L 2.984375 1.984375 Z M 1 -1.984375 L 1 -9.921875 L 2.984375 -9.921875 L 2.984375 -1.984375 Z M 2.984375 0 L 2.984375 -1.984375 L 8.9375 -1.984375 L 8.9375 -9.921875 L 10.921875 -9.921875 L 10.921875 1.984375 L 8.9375 1.984375 L 8.9375 0 Z M 2.984375 0 "/></g></g></g><g fill="#000000" fill-opacity="1"><g transform="translate(495.242955, 245.126333)"><g/></g></g><g fill="#000000" fill-opacity="1"><g transform="translate(500.199986, 245.126333)"><g><path d="M 1 -1.984375 L 1 -13.890625 L 2.984375 -13.890625 L 2.984375 -9.921875 L 6.953125 -9.921875 L 6.953125 -7.9375 L 2.984375 -7.9375 L 2.984375 -1.984375 Z M 2.984375 0 L 2.984375 -1.984375 L 6.953125 -1.984375 L 6.953125 0 Z M 2.984375 0 "/></g></g></g><g fill="#000000" fill-opacity="1"><g transform="translate(508.131244, 245.126333)"><g><path d="M 2.984375 0 L 2.984375 -1.984375 L 8.9375 -1.984375 L 8.9375 -3.96875 L 2.984375 -3.96875 L 2.984375 -5.953125 L 8.9375 -5.953125 L 8.9375 -7.9375 L 10.921875 -7.9375 L 10.921875 0 Z M 1 -1.984375 L 1 -3.96875 L 2.984375 -3.96875 L 2.984375 -1.984375 Z M 2.984375 -7.9375 L 2.984375 -9.921875 L 8.9375 -9.921875 L 8.9375 -7.9375 Z M 2.984375 -7.9375 "/></g></g></g><g fill="#000000" fill-opacity="1"><g transform="translate(520.028132, 245.126333)"><g><path d="M 8.9375 0 L 8.9375 -7.9375 L 10.921875 -7.9375 L 10.921875 0 Z M 1 0 L 1 -7.9375 L 2.984375 -7.9375 L 2.984375 0 Z M 2.984375 -7.9375 L 2.984375 -9.921875 L 8.9375 -9.921875 L 8.9375 -7.9375 Z M 2.984375 -7.9375 "/></g></g></g><g fill="#000000" fill-opacity="1"><g transform="translate(531.92502, 245.126333)"><g><path d="M 1 0 L 1 -13.890625 L 2.984375 -13.890625 L 2.984375 -5.953125 L 6.953125 -5.953125 L 6.953125 -3.96875 L 2.984375 -3.96875 L 2.984375 0 Z M 6.953125 -1.984375 L 6.953125 -3.96875 L 8.9375 -3.96875 L 8.9375 -1.984375 Z M 6.953125 -5.953125 L 6.953125 -7.9375 L 8.9375 -7.9375 L 8.9375 -5.953125 Z M 8.9375 0 L 8.9375 -1.984375 L 10.921875 -1.984375 L 10.921875 0 Z M 8.9375 -7.9375 L 8.9375 -9.921875 L 10.921875 -9.921875 L 10.921875 -7.9375 Z M 8.9375 -7.9375 "/></g></g></g><g fill="#000000" fill-opacity="1"><g transform="translate(543.821908, 245.126333)"><g><path d="M 1 1.984375 L 1 -1.984375 L 2.984375 -1.984375 L 2.984375 1.984375 Z M 1 1.984375 "/></g></g></g><g fill="#000000" fill-opacity="1"><g transform="translate(547.787537, 245.126333)"><g/></g></g><g fill="#000000" fill-opacity="1"><g transform="translate(552.744568, 245.126333)"><g><path d="M 8.9375 1.984375 L 8.9375 3.96875 L 2.984375 3.96875 L 2.984375 1.984375 Z M 1 -1.984375 L 1 -9.921875 L 2.984375 -9.921875 L 2.984375 -1.984375 Z M 2.984375 0 L 2.984375 -1.984375 L 8.9375 -1.984375 L 8.9375 -9.921875 L 10.921875 -9.921875 L 10.921875 1.984375 L 8.9375 1.984375 L 8.9375 0 Z M 2.984375 0 "/></g></g></g><g fill="#000000" fill-opacity="1"><g transform="translate(564.641456, 245.126333)"><g><path d="M 8.9375 -1.984375 L 8.9375 0 L 2.984375 0 L 2.984375 -1.984375 Z M 1 -1.984375 L 1 -7.9375 L 2.984375 -7.9375 L 2.984375 -1.984375 Z M 2.984375 -7.9375 L 2.984375 -9.921875 L 8.9375 -9.921875 L 8.9375 -7.9375 Z M 8.9375 -1.984375 L 8.9375 -7.9375 L 10.921875 -7.9375 L 10.921875 -1.984375 Z M 8.9375 -1.984375 "/></g></g></g><g fill="#000000" fill-opacity="1"><g transform="translate(576.538344, 245.126333)"><g><path d="M 8.9375 -1.984375 L 8.9375 0 L 2.984375 0 L 2.984375 -1.984375 Z M 1 -1.984375 L 1 -9.921875 L 2.984375 -9.921875 L 2.984375 -1.984375 Z M 8.9375 -1.984375 L 8.9375 -9.921875 L 10.921875 -9.921875 L 10.921875 -1.984375 Z M 8.9375 -1.984375 "/></g></g></g><g fill="#000000" fill-opacity="1"><g transform="translate(411.962383, 272.876331)"><g><path d="M 16.875 -3.96875 L 16.875 -1.984375 L 14.890625 -1.984375 L 14.890625 -3.96875 Z M 1 -3.96875 L 1 -9.921875 L 2.984375 -9.921875 L 2.984375 -3.96875 Z M 2.984375 -1.984375 L 2.984375 -3.96875 L 4.96875 -3.96875 L 4.96875 -1.984375 Z M 4.96875 0 L 4.96875 -1.984375 L 6.953125 -1.984375 L 6.953125 0 Z M 6.953125 -1.984375 L 6.953125 -3.96875 L 8.9375 -3.96875 L 8.9375 -1.984375 Z M 8.9375 -3.96875 L 8.9375 -9.921875 L 10.921875 -9.921875 L 10.921875 -3.96875 Z M 10.921875 -1.984375 L 10.921875 -3.96875 L 12.90625 -3.96875 L 12.90625 -1.984375 Z M 12.90625 0 L 12.90625 -1.984375 L 14.890625 -1.984375 L 14.890625 0 Z M 16.875 -3.96875 L 16.875 -9.921875 L 18.859375 -9.921875 L 18.859375 -3.96875 Z M 16.875 -3.96875 "/></g></g></g><g fill="#000000" fill-opacity="1"><g transform="translate(431.790518, 272.876331)"><g><path d="M 1 0 L 1 -9.921875 L 2.984375 -9.921875 L 2.984375 0 Z M 1 -11.90625 L 1 -13.890625 L 2.984375 -13.890625 L 2.984375 -11.90625 Z M 1 -11.90625 "/></g></g></g><g fill="#000000" fill-opacity="1"><g transform="translate(435.756147, 272.876331)"><g><path d="M 8.9375 0 L 8.9375 -7.9375 L 10.921875 -7.9375 L 10.921875 0 Z M 1 0 L 1 -7.9375 L 2.984375 -7.9375 L 2.984375 0 Z M 2.984375 -7.9375 L 2.984375 -9.921875 L 8.9375 -9.921875 L 8.9375 -7.9375 Z M 2.984375 -7.9375 "/></g></g></g><g fill="#000000" fill-opacity="1"><g transform="translate(447.653035, 272.876331)"><g/></g></g><g fill="#000000" fill-opacity="1"><g transform="translate(452.610066, 272.876331)"><g><path d="M 2.984375 0 L 2.984375 -1.984375 L 8.9375 -1.984375 L 8.9375 -3.96875 L 2.984375 -3.96875 L 2.984375 -5.953125 L 8.9375 -5.953125 L 8.9375 -7.9375 L 10.921875 -7.9375 L 10.921875 0 Z M 1 -1.984375 L 1 -3.96875 L 2.984375 -3.96875 L 2.984375 -1.984375 Z M 2.984375 -7.9375 L 2.984375 -9.921875 L 8.9375 -9.921875 L 8.9375 -7.9375 Z M 2.984375 -7.9375 "/></g></g></g><g fill="#000000" fill-opacity="1"><g transform="translate(464.506954, 272.876331)"><g/></g></g><g fill="#000000" fill-opacity="1"><g transform="translate(469.463985, 272.876331)"><g><path d="M 1 0 L 1 -9.921875 L 2.984375 -9.921875 L 2.984375 -7.9375 L 4.96875 -7.9375 L 4.96875 -5.953125 L 2.984375 -5.953125 L 2.984375 0 Z M 4.96875 -7.9375 L 4.96875 -9.921875 L 8.9375 -9.921875 L 8.9375 -7.9375 Z M 4.96875 -7.9375 "/></g></g></g><g fill="#000000" fill-opacity="1"><g transform="translate(479.378058, 272.876331)"><g><path d="M 8.9375 -1.984375 L 8.9375 0 L 2.984375 0 L 2.984375 -1.984375 Z M 1 -1.984375 L 1 -7.9375 L 2.984375 -7.9375 L 2.984375 -1.984375 Z M 2.984375 -7.9375 L 2.984375 -9.921875 L 8.9375 -9.921875 L 8.9375 -7.9375 Z M 8.9375 -1.984375 L 8.9375 -7.9375 L 10.921875 -7.9375 L 10.921875 -1.984375 Z M 8.9375 -1.984375 "/></g></g></g><g fill="#000000" fill-opacity="1"><g transform="translate(491.274946, 272.876331)"><g><path d="M 8.9375 -1.984375 L 8.9375 0 L 2.984375 0 L 2.984375 -1.984375 Z M 1 -1.984375 L 1 -9.921875 L 2.984375 -9.921875 L 2.984375 -1.984375 Z M 8.9375 -1.984375 L 8.9375 -9.921875 L 10.921875 -9.921875 L 10.921875 -1.984375 Z M 8.9375 -1.984375 "/></g></g></g><g fill="#000000" fill-opacity="1"><g transform="translate(503.171833, 272.876331)"><g><path d="M 8.9375 0 L 8.9375 -7.9375 L 10.921875 -7.9375 L 10.921875 0 Z M 1 0 L 1 -7.9375 L 2.984375 -7.9375 L 2.984375 0 Z M 2.984375 -7.9375 L 2.984375 -9.921875 L 8.9375 -9.921875 L 8.9375 -7.9375 Z M 2.984375 -7.9375 "/></g></g></g><g fill="#000000" fill-opacity="1"><g transform="translate(515.068721, 272.876331)"><g><path d="M 2.984375 0 L 2.984375 -1.984375 L 8.9375 -1.984375 L 8.9375 -7.9375 L 2.984375 -7.9375 L 2.984375 -9.921875 L 8.9375 -9.921875 L 8.9375 -13.890625 L 10.921875 -13.890625 L 10.921875 0 Z M 1 -1.984375 L 1 -7.9375 L 2.984375 -7.9375 L 2.984375 -1.984375 Z M 1 -1.984375 "/></g></g></g><g fill="#000000" fill-opacity="1"><g transform="translate(526.965609, 272.876331)"><g><path d="M 1 0 L 1 -1.984375 L 2.984375 -1.984375 L 2.984375 0 Z M 1 0 "/></g></g></g><g fill="#000000" fill-opacity="1"><g transform="translate(530.931238, 272.876331)"><g/></g></g><g fill="#000000" fill-opacity="1"><g transform="translate(535.888269, 272.876331)"><g><path d="M 4.96875 0 L 4.96875 -11.90625 L 1 -11.90625 L 1 -13.890625 L 10.921875 -13.890625 L 10.921875 -11.90625 L 6.953125 -11.90625 L 6.953125 0 Z M 4.96875 0 "/></g></g></g><g fill="#000000" fill-opacity="1"><g transform="translate(547.785157, 272.876331)"><g><path d="M 1 0 L 1 -13.890625 L 2.984375 -13.890625 L 2.984375 -7.9375 L 4.96875 -7.9375 L 4.96875 -5.953125 L 2.984375 -5.953125 L 2.984375 0 Z M 4.96875 -7.9375 L 4.96875 -9.921875 L 8.9375 -9.921875 L 8.9375 -7.9375 Z M 8.9375 0 L 8.9375 -7.9375 L 10.921875 -7.9375 L 10.921875 0 Z M 8.9375 0 "/></g></g></g><g fill="#000000" fill-opacity="1"><g transform="translate(559.682045, 272.876331)"><g><path d="M 1 -1.984375 L 1 -7.9375 L 2.984375 -7.9375 L 2.984375 -5.953125 L 8.9375 -5.953125 L 8.9375 -3.96875 L 2.984375 -3.96875 L 2.984375 -1.984375 Z M 2.984375 0 L 2.984375 -1.984375 L 8.9375 -1.984375 L 8.9375 0 Z M 2.984375 -7.9375 L 2.984375 -9.921875 L 8.9375 -9.921875 L 8.9375 -7.9375 Z M 8.9375 -5.953125 L 8.9375 -7.9375 L 10.921875 -7.9375 L 10.921875 -5.953125 Z M 8.9375 -5.953125 "/></g></g></g><g fill="#000000" fill-opacity="1"><g transform="translate(397.091291, 300.626329)"><g><path d="M 1 0 L 1 -13.890625 L 2.984375 -13.890625 L 2.984375 -9.921875 L 8.9375 -9.921875 L 8.9375 -7.9375 L 2.984375 -7.9375 L 2.984375 -1.984375 L 8.9375 -1.984375 L 8.9375 0 Z M 8.9375 -1.984375 L 8.9375 -7.9375 L 10.921875 -7.9375 L 10.921875 -1.984375 Z M 8.9375 -1.984375 "/></g></g></g><g fill="#000000" fill-opacity="1"><g transform="translate(408.988178, 300.626329)"><g><path d="M 2.984375 0 L 2.984375 -1.984375 L 8.9375 -1.984375 L 8.9375 -3.96875 L 2.984375 -3.96875 L 2.984375 -5.953125 L 8.9375 -5.953125 L 8.9375 -7.9375 L 10.921875 -7.9375 L 10.921875 0 Z M 1 -1.984375 L 1 -3.96875 L 2.984375 -3.96875 L 2.984375 -1.984375 Z M 2.984375 -7.9375 L 2.984375 -9.921875 L 8.9375 -9.921875 L 8.9375 -7.9375 Z M 2.984375 -7.9375 "/></g></g></g><g fill="#000000" fill-opacity="1"><g transform="translate(420.885066, 300.626329)"><g><path d="M 8.9375 0 L 8.9375 -7.9375 L 10.921875 -7.9375 L 10.921875 0 Z M 1 0 L 1 -7.9375 L 2.984375 -7.9375 L 2.984375 0 Z M 2.984375 -7.9375 L 2.984375 -9.921875 L 8.9375 -9.921875 L 8.9375 -7.9375 Z M 2.984375 -7.9375 "/></g></g></g><g fill="#000000" fill-opacity="1"><g transform="translate(432.781954, 300.626329)"><g><path d="M 8.9375 0 L 8.9375 -7.9375 L 10.921875 -7.9375 L 10.921875 0 Z M 1 0 L 1 -7.9375 L 2.984375 -7.9375 L 2.984375 0 Z M 2.984375 -7.9375 L 2.984375 -9.921875 L 8.9375 -9.921875 L 8.9375 -7.9375 Z M 2.984375 -7.9375 "/></g></g></g><g fill="#000000" fill-opacity="1"><g transform="translate(444.678842, 300.626329)"><g><path d="M 1 -1.984375 L 1 -7.9375 L 2.984375 -7.9375 L 2.984375 -5.953125 L 8.9375 -5.953125 L 8.9375 -3.96875 L 2.984375 -3.96875 L 2.984375 -1.984375 Z M 2.984375 0 L 2.984375 -1.984375 L 8.9375 -1.984375 L 8.9375 0 Z M 2.984375 -7.9375 L 2.984375 -9.921875 L 8.9375 -9.921875 L 8.9375 -7.9375 Z M 8.9375 -5.953125 L 8.9375 -7.9375 L 10.921875 -7.9375 L 10.921875 -5.953125 Z M 8.9375 -5.953125 "/></g></g></g><g fill="#000000" fill-opacity="1"><g transform="translate(456.57573, 300.626329)"><g><path d="M 1 0 L 1 -9.921875 L 2.984375 -9.921875 L 2.984375 -7.9375 L 4.96875 -7.9375 L 4.96875 -5.953125 L 2.984375 -5.953125 L 2.984375 0 Z M 4.96875 -7.9375 L 4.96875 -9.921875 L 8.9375 -9.921875 L 8.9375 -7.9375 Z M 4.96875 -7.9375 "/></g></g></g><g fill="#000000" fill-opacity="1"><g transform="translate(466.489803, 300.626329)"><g/></g></g><g fill="#000000" fill-opacity="1"><g transform="translate(471.446834, 300.626329)"><g><path d="M 1 0 L 1 -9.921875 L 2.984375 -9.921875 L 2.984375 0 Z M 1 -11.90625 L 1 -13.890625 L 2.984375 -13.890625 L 2.984375 -11.90625 Z M 1 -11.90625 "/></g></g></g><g fill="#000000" fill-opacity="1"><g transform="translate(475.412463, 300.626329)"><g><path d="M 8.9375 0 L 8.9375 -7.9375 L 10.921875 -7.9375 L 10.921875 0 Z M 1 0 L 1 -7.9375 L 2.984375 -7.9375 L 2.984375 0 Z M 2.984375 -7.9375 L 2.984375 -9.921875 L 8.9375 -9.921875 L 8.9375 -7.9375 Z M 2.984375 -7.9375 "/></g></g></g><g fill="#000000" fill-opacity="1"><g transform="translate(487.309351, 300.626329)"><g/></g></g><g fill="#000000" fill-opacity="1"><g transform="translate(492.266382, 300.626329)"><g><path d="M 1 -1.984375 L 1 -13.890625 L 2.984375 -13.890625 L 2.984375 -9.921875 L 6.953125 -9.921875 L 6.953125 -7.9375 L 2.984375 -7.9375 L 2.984375 -1.984375 Z M 2.984375 0 L 2.984375 -1.984375 L 6.953125 -1.984375 L 6.953125 0 Z M 2.984375 0 "/></g></g></g><g fill="#000000" fill-opacity="1"><g transform="translate(500.19764, 300.626329)"><g><path d="M 1 0 L 1 -13.890625 L 2.984375 -13.890625 L 2.984375 -7.9375 L 4.96875 -7.9375 L 4.96875 -5.953125 L 2.984375 -5.953125 L 2.984375 0 Z M 4.96875 -7.9375 L 4.96875 -9.921875 L 8.9375 -9.921875 L 8.9375 -7.9375 Z M 8.9375 0 L 8.9375 -7.9375 L 10.921875 -7.9375 L 10.921875 0 Z M 8.9375 0 "/></g></g></g><g fill="#000000" fill-opacity="1"><g transform="translate(512.094528, 300.626329)"><g><path d="M 1 -1.984375 L 1 -7.9375 L 2.984375 -7.9375 L 2.984375 -5.953125 L 8.9375 -5.953125 L 8.9375 -3.96875 L 2.984375 -3.96875 L 2.984375 -1.984375 Z M 2.984375 0 L 2.984375 -1.984375 L 8.9375 -1.984375 L 8.9375 0 Z M 2.984375 -7.9375 L 2.984375 -9.921875 L 8.9375 -9.921875 L 8.9375 -7.9375 Z M 8.9375 -5.953125 L 8.9375 -7.9375 L 10.921875 -7.9375 L 10.921875 -5.953125 Z M 8.9375 -5.953125 "/></g></g></g><g fill="#000000" fill-opacity="1"><g transform="translate(523.991416, 300.626329)"><g/></g></g><g fill="#000000" fill-opacity="1"><g transform="translate(528.948447, 300.626329)"><g><path d="M 2.984375 0 L 2.984375 -1.984375 L 8.9375 -1.984375 L 8.9375 -3.96875 L 2.984375 -3.96875 L 2.984375 -5.953125 L 8.9375 -5.953125 L 8.9375 -7.9375 L 10.921875 -7.9375 L 10.921875 0 Z M 1 -1.984375 L 1 -3.96875 L 2.984375 -3.96875 L 2.984375 -1.984375 Z M 2.984375 -7.9375 L 2.984375 -9.921875 L 8.9375 -9.921875 L 8.9375 -7.9375 Z M 2.984375 -7.9375 "/></g></g></g><g fill="#000000" fill-opacity="1"><g transform="translate(540.845334, 300.626329)"><g><path d="M 1 0 L 1 -9.921875 L 2.984375 -9.921875 L 2.984375 -7.9375 L 4.96875 -7.9375 L 4.96875 -5.953125 L 2.984375 -5.953125 L 2.984375 0 Z M 4.96875 -7.9375 L 4.96875 -9.921875 L 8.9375 -9.921875 L 8.9375 -7.9375 Z M 4.96875 -7.9375 "/></g></g></g><g fill="#000000" fill-opacity="1"><g transform="translate(550.759408, 300.626329)"><g><path d="M 1 -1.984375 L 1 -7.9375 L 2.984375 -7.9375 L 2.984375 -5.953125 L 8.9375 -5.953125 L 8.9375 -3.96875 L 2.984375 -3.96875 L 2.984375 -1.984375 Z M 2.984375 0 L 2.984375 -1.984375 L 8.9375 -1.984375 L 8.9375 0 Z M 2.984375 -7.9375 L 2.984375 -9.921875 L 8.9375 -9.921875 L 8.9375 -7.9375 Z M 8.9375 -5.953125 L 8.9375 -7.9375 L 10.921875 -7.9375 L 10.921875 -5.953125 Z M 8.9375 -5.953125 "/></g></g></g><g fill="#000000" fill-opacity="1"><g transform="translate(562.656295, 300.626329)"><g><path d="M 8.9375 0 L 8.9375 -7.9375 L 10.921875 -7.9375 L 10.921875 0 Z M 1 0 L 1 -7.9375 L 2.984375 -7.9375 L 2.984375 0 Z M 2.984375 -7.9375 L 2.984375 -9.921875 L 8.9375 -9.921875 L 8.9375 -7.9375 Z M 2.984375 -7.9375 "/></g></g></g><g fill="#000000" fill-opacity="1"><g transform="translate(574.553183, 300.626329)"><g><path d="M 2.984375 0 L 2.984375 -1.984375 L 8.9375 -1.984375 L 8.9375 -3.96875 L 2.984375 -3.96875 L 2.984375 -5.953125 L 8.9375 -5.953125 L 8.9375 -7.9375 L 10.921875 -7.9375 L 10.921875 0 Z M 1 -1.984375 L 1 -3.96875 L 2.984375 -3.96875 L 2.984375 -1.984375 Z M 2.984375 -7.9375 L 2.984375 -9.921875 L 8.9375 -9.921875 L 8.9375 -7.9375 Z M 2.984375 -7.9375 "/></g></g></g><g fill="#000000" fill-opacity="1"><g transform="translate(400.864728, 328.376326)"><g><path d="M 1 -1.984375 L 1 -13.890625 L 2.984375 -13.890625 L 2.984375 -9.921875 L 6.953125 -9.921875 L 6.953125 -7.9375 L 2.984375 -7.9375 L 2.984375 -1.984375 Z M 2.984375 0 L 2.984375 -1.984375 L 6.953125 -1.984375 L 6.953125 0 Z M 2.984375 0 "/></g></g></g><g fill="#000000" fill-opacity="1"><g transform="translate(408.795986, 328.376326)"><g><path d="M 1 -1.984375 L 1 -7.9375 L 2.984375 -7.9375 L 2.984375 -5.953125 L 8.9375 -5.953125 L 8.9375 -3.96875 L 2.984375 -3.96875 L 2.984375 -1.984375 Z M 2.984375 0 L 2.984375 -1.984375 L 8.9375 -1.984375 L 8.9375 0 Z M 2.984375 -7.9375 L 2.984375 -9.921875 L 8.9375 -9.921875 L 8.9375 -7.9375 Z M 8.9375 -5.953125 L 8.9375 -7.9375 L 10.921875 -7.9375 L 10.921875 -5.953125 Z M 8.9375 -5.953125 "/></g></g></g><g fill="#000000" fill-opacity="1"><g transform="translate(420.692874, 328.376326)"><g><path d="M 1 -1.984375 L 1 -13.890625 L 2.984375 -13.890625 L 2.984375 -1.984375 Z M 2.984375 0 L 2.984375 -1.984375 L 4.96875 -1.984375 L 4.96875 0 Z M 2.984375 0 "/></g></g></g><g fill="#000000" fill-opacity="1"><g transform="translate(425.848185, 328.376326)"><g><path d="M 1 -1.984375 L 1 -13.890625 L 2.984375 -13.890625 L 2.984375 -1.984375 Z M 2.984375 0 L 2.984375 -1.984375 L 4.96875 -1.984375 L 4.96875 0 Z M 2.984375 0 "/></g></g></g><g fill="#000000" fill-opacity="1"><g transform="translate(431.003497, 328.376326)"><g><path d="M 2.984375 -7.9375 L 2.984375 -5.953125 L 1 -5.953125 L 1 -7.9375 Z M 1 0 L 1 -1.984375 L 6.953125 -1.984375 L 6.953125 0 Z M 2.984375 -3.96875 L 2.984375 -5.953125 L 6.953125 -5.953125 L 6.953125 -3.96875 Z M 2.984375 -7.9375 L 2.984375 -9.921875 L 8.9375 -9.921875 L 8.9375 -7.9375 Z M 6.953125 -1.984375 L 6.953125 -3.96875 L 8.9375 -3.96875 L 8.9375 -1.984375 Z M 6.953125 -1.984375 "/></g></g></g><g fill="#000000" fill-opacity="1"><g transform="translate(440.91757, 328.376326)"><g/></g></g><g fill="#000000" fill-opacity="1"><g transform="translate(445.874601, 328.376326)"><g><path d="M 8.9375 1.984375 L 8.9375 3.96875 L 2.984375 3.96875 L 2.984375 1.984375 Z M 1 -1.984375 L 1 -9.921875 L 2.984375 -9.921875 L 2.984375 -1.984375 Z M 2.984375 0 L 2.984375 -1.984375 L 8.9375 -1.984375 L 8.9375 -9.921875 L 10.921875 -9.921875 L 10.921875 1.984375 L 8.9375 1.984375 L 8.9375 0 Z M 2.984375 0 "/></g></g></g><g fill="#000000" fill-opacity="1"><g transform="translate(457.771488, 328.376326)"><g><path d="M 8.9375 -1.984375 L 8.9375 0 L 2.984375 0 L 2.984375 -1.984375 Z M 1 -1.984375 L 1 -7.9375 L 2.984375 -7.9375 L 2.984375 -1.984375 Z M 2.984375 -7.9375 L 2.984375 -9.921875 L 8.9375 -9.921875 L 8.9375 -7.9375 Z M 8.9375 -1.984375 L 8.9375 -7.9375 L 10.921875 -7.9375 L 10.921875 -1.984375 Z M 8.9375 -1.984375 "/></g></g></g><g fill="#000000" fill-opacity="1"><g transform="translate(469.668376, 328.376326)"><g><path d="M 8.9375 -1.984375 L 8.9375 0 L 2.984375 0 L 2.984375 -1.984375 Z M 1 -1.984375 L 1 -9.921875 L 2.984375 -9.921875 L 2.984375 -1.984375 Z M 8.9375 -1.984375 L 8.9375 -9.921875 L 10.921875 -9.921875 L 10.921875 -1.984375 Z M 8.9375 -1.984375 "/></g></g></g><g fill="#000000" fill-opacity="1"><g transform="translate(481.565264, 328.376326)"><g/></g></g><g fill="#000000" fill-opacity="1"><g transform="translate(486.522295, 328.376326)"><g><path d="M 16.875 -3.96875 L 16.875 -1.984375 L 14.890625 -1.984375 L 14.890625 -3.96875 Z M 1 -3.96875 L 1 -9.921875 L 2.984375 -9.921875 L 2.984375 -3.96875 Z M 2.984375 -1.984375 L 2.984375 -3.96875 L 4.96875 -3.96875 L 4.96875 -1.984375 Z M 4.96875 0 L 4.96875 -1.984375 L 6.953125 -1.984375 L 6.953125 0 Z M 6.953125 -1.984375 L 6.953125 -3.96875 L 8.9375 -3.96875 L 8.9375 -1.984375 Z M 8.9375 -3.96875 L 8.9375 -9.921875 L 10.921875 -9.921875 L 10.921875 -3.96875 Z M 10.921875 -1.984375 L 10.921875 -3.96875 L 12.90625 -3.96875 L 12.90625 -1.984375 Z M 12.90625 0 L 12.90625 -1.984375 L 14.890625 -1.984375 L 14.890625 0 Z M 16.875 -3.96875 L 16.875 -9.921875 L 18.859375 -9.921875 L 18.859375 -3.96875 Z M 16.875 -3.96875 "/></g></g></g><g fill="#000000" fill-opacity="1"><g transform="translate(506.35043, 328.376326)"><g><path d="M 1 0 L 1 -13.890625 L 2.984375 -13.890625 L 2.984375 -7.9375 L 4.96875 -7.9375 L 4.96875 -5.953125 L 2.984375 -5.953125 L 2.984375 0 Z M 4.96875 -7.9375 L 4.96875 -9.921875 L 8.9375 -9.921875 L 8.9375 -7.9375 Z M 8.9375 0 L 8.9375 -7.9375 L 10.921875 -7.9375 L 10.921875 0 Z M 8.9375 0 "/></g></g></g><g fill="#000000" fill-opacity="1"><g transform="translate(518.247317, 328.376326)"><g><path d="M 8.9375 -1.984375 L 8.9375 0 L 2.984375 0 L 2.984375 -1.984375 Z M 1 -1.984375 L 1 -7.9375 L 2.984375 -7.9375 L 2.984375 -1.984375 Z M 2.984375 -7.9375 L 2.984375 -9.921875 L 8.9375 -9.921875 L 8.9375 -7.9375 Z M 8.9375 -1.984375 L 8.9375 -7.9375 L 10.921875 -7.9375 L 10.921875 -1.984375 Z M 8.9375 -1.984375 "/></g></g></g><g fill="#000000" fill-opacity="1"><g transform="translate(530.144205, 328.376326)"><g/></g></g><g fill="#000000" fill-opacity="1"><g transform="translate(535.101236, 328.376326)"><g><path d="M 16.875 -3.96875 L 16.875 -1.984375 L 14.890625 -1.984375 L 14.890625 -3.96875 Z M 1 -3.96875 L 1 -9.921875 L 2.984375 -9.921875 L 2.984375 -3.96875 Z M 2.984375 -1.984375 L 2.984375 -3.96875 L 4.96875 -3.96875 L 4.96875 -1.984375 Z M 4.96875 0 L 4.96875 -1.984375 L 6.953125 -1.984375 L 6.953125 0 Z M 6.953125 -1.984375 L 6.953125 -3.96875 L 8.9375 -3.96875 L 8.9375 -1.984375 Z M 8.9375 -3.96875 L 8.9375 -9.921875 L 10.921875 -9.921875 L 10.921875 -3.96875 Z M 10.921875 -1.984375 L 10.921875 -3.96875 L 12.90625 -3.96875 L 12.90625 -1.984375 Z M 12.90625 0 L 12.90625 -1.984375 L 14.890625 -1.984375 L 14.890625 0 Z M 16.875 -3.96875 L 16.875 -9.921875 L 18.859375 -9.921875 L 18.859375 -3.96875 Z M 16.875 -3.96875 "/></g></g></g><g fill="#000000" fill-opacity="1"><g transform="translate(554.929371, 328.376326)"><g><path d="M 8.9375 -1.984375 L 8.9375 0 L 2.984375 0 L 2.984375 -1.984375 Z M 1 -1.984375 L 1 -7.9375 L 2.984375 -7.9375 L 2.984375 -1.984375 Z M 2.984375 -7.9375 L 2.984375 -9.921875 L 8.9375 -9.921875 L 8.9375 -7.9375 Z M 8.9375 -1.984375 L 8.9375 -7.9375 L 10.921875 -7.9375 L 10.921875 -1.984375 Z M 8.9375 -1.984375 "/></g></g></g><g fill="#000000" fill-opacity="1"><g transform="translate(566.826259, 328.376326)"><g><path d="M 8.9375 0 L 8.9375 -7.9375 L 10.921875 -7.9375 L 10.921875 0 Z M 1 0 L 1 -7.9375 L 2.984375 -7.9375 L 2.984375 0 Z M 2.984375 -7.9375 L 2.984375 -9.921875 L 8.9375 -9.921875 L 8.9375 -7.9375 Z M 2.984375 -7.9375 "/></g></g></g><g fill="#000000" fill-opacity="1"><g transform="translate(578.723146, 328.376326)"><g><path d="M 1 0 L 1 -1.984375 L 2.984375 -1.984375 L 2.984375 0 Z M 1 0 "/></g></g></g><g transform="matrix(1, 0, 0, 1, 444, 157)"><g clip-path="url(#921a858a2e)"><g fill="#ffffff" fill-opacity="1"><g transform="translate(1.747888, 20.796082)"><g><path d="M -0.691406 -2.300781 L -0.691406 -19.101562 L 14.5 -19.101562 L 14.5 -16.109375 L 13.808594 -16.109375 L 13.808594 -16.800781 L 16.800781 -16.800781 L 16.800781 -8.515625 L 11.507812 -8.515625 L 11.507812 -9.207031 L 12.199219 -9.207031 L 12.199219 -6.902344 L 11.507812 -6.902344 L 11.507812 -7.59375 L 14.5 -7.59375 L 14.5 -4.601562 L 13.808594 -4.601562 L 13.808594 -5.292969 L 16.800781 -5.292969 L 16.800781 -1.609375 L 8.515625 -1.609375 L 8.515625 -4.601562 L 9.207031 -4.601562 L 9.207031 -3.910156 L 6.214844 -3.910156 L 6.214844 -6.902344 L 6.902344 -6.902344 L 6.902344 -6.214844 L 4.601562 -6.214844 L 4.601562 -6.902344 L 5.292969 -6.902344 L 5.292969 -1.609375 L -0.691406 -1.609375 Z M 0.691406 -2.300781 L 0 -2.300781 L 0 -2.992188 L 4.601562 -2.992188 L 4.601562 -2.300781 L 3.910156 -2.300781 L 3.910156 -7.59375 L 7.59375 -7.59375 L 7.59375 -4.601562 L 6.902344 -4.601562 L 6.902344 -5.292969 L 9.894531 -5.292969 L 9.894531 -2.300781 L 9.207031 -2.300781 L 9.207031 -2.992188 L 16.109375 -2.992188 L 16.109375 -2.300781 L 15.417969 -2.300781 L 15.417969 -4.601562 L 16.109375 -4.601562 L 16.109375 -3.910156 L 13.117188 -3.910156 L 13.117188 -6.902344 L 13.808594 -6.902344 L 13.808594 -6.214844 L 10.816406 -6.214844 L 10.816406 -9.894531 L 16.109375 -9.894531 L 16.109375 -9.207031 L 15.417969 -9.207031 L 15.417969 -16.109375 L 16.109375 -16.109375 L 16.109375 -15.417969 L 13.117188 -15.417969 L 13.117188 -18.410156 L 13.808594 -18.410156 L 13.808594 -17.71875 L 0 -17.71875 L 0 -18.410156 L 0.691406 -18.410156 Z M 4.601562 -9.894531 L 9.207031 -9.894531 L 9.207031 -9.207031 L 8.515625 -9.207031 L 8.515625 -12.199219 L 11.507812 -12.199219 L 11.507812 -11.507812 L 10.816406 -11.507812 L 10.816406 -16.109375 L 11.507812 -16.109375 L 11.507812 -15.417969 L 4.601562 -15.417969 L 4.601562 -16.109375 L 5.292969 -16.109375 L 5.292969 -9.207031 L 4.601562 -9.207031 Z M 3.910156 -8.515625 L 3.910156 -16.800781 L 12.199219 -16.800781 L 12.199219 -10.816406 L 9.207031 -10.816406 L 9.207031 -11.507812 L 9.894531 -11.507812 L 9.894531 -8.515625 Z M 3.910156 -8.515625 "/></g></g></g><g fill="#ffffff" fill-opacity="1"><g transform="translate(20.153825, 20.796082)"><g><path d="M 1.609375 -2.300781 L 1.609375 -4.601562 L 2.300781 -4.601562 L 2.300781 -3.910156 L -0.691406 -3.910156 L -0.691406 -12.199219 L 2.300781 -12.199219 L 2.300781 -11.507812 L 1.609375 -11.507812 L 1.609375 -14.5 L 14.5 -14.5 L 14.5 -11.507812 L 13.808594 -11.507812 L 13.808594 -12.199219 L 16.800781 -12.199219 L 16.800781 -3.910156 L 13.808594 -3.910156 L 13.808594 -4.601562 L 14.5 -4.601562 L 14.5 -1.609375 L 1.609375 -1.609375 Z M 2.992188 -2.300781 L 2.300781 -2.300781 L 2.300781 -2.992188 L 13.808594 -2.992188 L 13.808594 -2.300781 L 13.117188 -2.300781 L 13.117188 -5.292969 L 16.109375 -5.292969 L 16.109375 -4.601562 L 15.417969 -4.601562 L 15.417969 -11.507812 L 16.109375 -11.507812 L 16.109375 -10.816406 L 13.117188 -10.816406 L 13.117188 -13.808594 L 13.808594 -13.808594 L 13.808594 -13.117188 L 2.300781 -13.117188 L 2.300781 -13.808594 L 2.992188 -13.808594 L 2.992188 -10.816406 L 0 -10.816406 L 0 -11.507812 L 0.691406 -11.507812 L 0.691406 -4.601562 L 0 -4.601562 L 0 -5.292969 L 2.992188 -5.292969 Z M 4.601562 -5.292969 L 11.507812 -5.292969 L 11.507812 -4.601562 L 10.816406 -4.601562 L 10.816406 -11.507812 L 11.507812 -11.507812 L 11.507812 -10.816406 L 4.601562 -10.816406 L 4.601562 -11.507812 L 5.292969 -11.507812 L 5.292969 -4.601562 L 4.601562 -4.601562 Z M 3.910156 -3.910156 L 3.910156 -12.199219 L 12.199219 -12.199219 L 12.199219 -3.910156 Z M 3.910156 -3.910156 "/></g></g></g><g fill="#ffffff" fill-opacity="1"><g transform="translate(38.559763, 20.796082)"><g><path d="M 1.609375 -2.300781 L 1.609375 -4.601562 L 2.300781 -4.601562 L 2.300781 -3.910156 L -0.691406 -3.910156 L -0.691406 -14.5 L 5.292969 -14.5 L 5.292969 -4.601562 L 4.601562 -4.601562 L 4.601562 -5.292969 L 11.507812 -5.292969 L 11.507812 -4.601562 L 10.816406 -4.601562 L 10.816406 -14.5 L 16.800781 -14.5 L 16.800781 -1.609375 L 1.609375 -1.609375 Z M 2.992188 -2.300781 L 2.300781 -2.300781 L 2.300781 -2.992188 L 16.109375 -2.992188 L 16.109375 -2.300781 L 15.417969 -2.300781 L 15.417969 -13.808594 L 16.109375 -13.808594 L 16.109375 -13.117188 L 11.507812 -13.117188 L 11.507812 -13.808594 L 12.199219 -13.808594 L 12.199219 -3.910156 L 3.910156 -3.910156 L 3.910156 -13.808594 L 4.601562 -13.808594 L 4.601562 -13.117188 L 0 -13.117188 L 0 -13.808594 L 0.691406 -13.808594 L 0.691406 -4.601562 L 0 -4.601562 L 0 -5.292969 L 2.992188 -5.292969 Z M 2.992188 -2.300781 "/></g></g></g><g fill="#ffffff" fill-opacity="1"><g transform="translate(56.965701, 20.796082)"><g><path d="M -0.691406 -2.300781 L -0.691406 -14.5 L 14.5 -14.5 L 14.5 -11.507812 L 13.808594 -11.507812 L 13.808594 -12.199219 L 16.800781 -12.199219 L 16.800781 -1.609375 L 10.816406 -1.609375 L 10.816406 -11.507812 L 11.507812 -11.507812 L 11.507812 -10.816406 L 4.601562 -10.816406 L 4.601562 -11.507812 L 5.292969 -11.507812 L 5.292969 -1.609375 L -0.691406 -1.609375 Z M 0.691406 -2.300781 L 0 -2.300781 L 0 -2.992188 L 4.601562 -2.992188 L 4.601562 -2.300781 L 3.910156 -2.300781 L 3.910156 -12.199219 L 12.199219 -12.199219 L 12.199219 -2.300781 L 11.507812 -2.300781 L 11.507812 -2.992188 L 16.109375 -2.992188 L 16.109375 -2.300781 L 15.417969 -2.300781 L 15.417969 -11.507812 L 16.109375 -11.507812 L 16.109375 -10.816406 L 13.117188 -10.816406 L 13.117188 -13.808594 L 13.808594 -13.808594 L 13.808594 -13.117188 L 0 -13.117188 L 0 -13.808594 L 0.691406 -13.808594 Z M 0.691406 -2.300781 "/></g></g></g><g fill="#ffffff" fill-opacity="1"><g transform="translate(75.371639, 20.796082)"><g><path d="M 1.609375 -2.300781 L 1.609375 -4.601562 L 2.300781 -4.601562 L 2.300781 -3.910156 L -0.691406 -3.910156 L -0.691406 -12.199219 L 2.300781 -12.199219 L 2.300781 -11.507812 L 1.609375 -11.507812 L 1.609375 -14.5 L 11.507812 -14.5 L 11.507812 -13.808594 L 10.816406 -13.808594 L 10.816406 -19.101562 L 16.800781 -19.101562 L 16.800781 -1.609375 L 1.609375 -1.609375 Z M 2.992188 -2.300781 L 2.300781 -2.300781 L 2.300781 -2.992188 L 16.109375 -2.992188 L 16.109375 -2.300781 L 15.417969 -2.300781 L 15.417969 -18.410156 L 16.109375 -18.410156 L 16.109375 -17.71875 L 11.507812 -17.71875 L 11.507812 -18.410156 L 12.199219 -18.410156 L 12.199219 -13.117188 L 2.300781 -13.117188 L 2.300781 -13.808594 L 2.992188 -13.808594 L 2.992188 -10.816406 L 0 -10.816406 L 0 -11.507812 L 0.691406 -11.507812 L 0.691406 -4.601562 L 0 -4.601562 L 0 -5.292969 L 2.992188 -5.292969 Z M 4.601562 -5.292969 L 11.507812 -5.292969 L 11.507812 -4.601562 L 10.816406 -4.601562 L 10.816406 -11.507812 L 11.507812 -11.507812 L 11.507812 -10.816406 L 4.601562 -10.816406 L 4.601562 -11.507812 L 5.292969 -11.507812 L 5.292969 -4.601562 L 4.601562 -4.601562 Z M 3.910156 -3.910156 L 3.910156 -12.199219 L 12.199219 -12.199219 L 12.199219 -3.910156 Z M 3.910156 -3.910156 "/></g></g></g><g fill="#000000" fill-opacity="1"><g transform="translate(1.747888, 20.796082)"><g><path d="M 0 -2.296875 L 0 -18.40625 L 13.796875 -18.40625 L 13.796875 -16.109375 L 16.109375 -16.109375 L 16.109375 -9.203125 L 11.5 -9.203125 L 11.5 -6.90625 L 13.796875 -6.90625 L 13.796875 -4.59375 L 16.109375 -4.59375 L 16.109375 -2.296875 L 9.203125 -2.296875 L 9.203125 -4.59375 L 6.90625 -4.59375 L 6.90625 -6.90625 L 4.59375 -6.90625 L 4.59375 -2.296875 Z M 4.59375 -9.203125 L 9.203125 -9.203125 L 9.203125 -11.5 L 11.5 -11.5 L 11.5 -16.109375 L 4.59375 -16.109375 Z M 4.59375 -9.203125 "/></g></g></g><g fill="#000000" fill-opacity="1"><g transform="translate(20.153825, 20.796082)"><g><path d="M 2.296875 -2.296875 L 2.296875 -4.59375 L 0 -4.59375 L 0 -11.5 L 2.296875 -11.5 L 2.296875 -13.796875 L 13.796875 -13.796875 L 13.796875 -11.5 L 16.109375 -11.5 L 16.109375 -4.59375 L 13.796875 -4.59375 L 13.796875 -2.296875 Z M 4.59375 -4.59375 L 11.5 -4.59375 L 11.5 -11.5 L 4.59375 -11.5 Z M 4.59375 -4.59375 "/></g></g></g><g fill="#000000" fill-opacity="1"><g transform="translate(38.559763, 20.796082)"><g><path d="M 2.296875 -2.296875 L 2.296875 -4.59375 L 0 -4.59375 L 0 -13.796875 L 4.59375 -13.796875 L 4.59375 -4.59375 L 11.5 -4.59375 L 11.5 -13.796875 L 16.109375 -13.796875 L 16.109375 -2.296875 Z M 2.296875 -2.296875 "/></g></g></g><g fill="#000000" fill-opacity="1"><g transform="translate(56.965701, 20.796082)"><g><path d="M 0 -2.296875 L 0 -13.796875 L 13.796875 -13.796875 L 13.796875 -11.5 L 16.109375 -11.5 L 16.109375 -2.296875 L 11.5 -2.296875 L 11.5 -11.5 L 4.59375 -11.5 L 4.59375 -2.296875 Z M 0 -2.296875 "/></g></g></g><g fill="#000000" fill-opacity="1"><g transform="translate(75.371639, 20.796082)"><g><path d="M 2.296875 -2.296875 L 2.296875 -4.59375 L 0 -4.59375 L 0 -11.5 L 2.296875 -11.5 L 2.296875 -13.796875 L 11.5 -13.796875 L 11.5 -18.40625 L 16.109375 -18.40625 L 16.109375 -2.296875 Z M 4.59375 -4.59375 L 11.5 -4.59375 L 11.5 -11.5 L 4.59375 -11.5 Z M 4.59375 -4.59375 "/></g></g></g></g></g><g clip-path="url(#5050b9b024)"><g transform="matrix(1, 0, 0, 1, 45, 276)"><g clip-path="url(#eb10bdda93)"><g clip-path="url(#c1f3c10812)"><path fill="#353535" d="M 0 0.34375 L 284.1875 0.34375 L 284.1875 9.339844 L 0 9.339844 Z M 0 0.34375 " fill-opacity="1" fill-rule="nonzero"/></g></g></g></g><g clip-path="url(#926ff216ca)"><g transform="matrix(1, 0, 0, 1, 45, 198)"><g clip-path="url(#fca13131d9)"><g clip-path="url(#9f7d95af83)"><path fill="#947004" d="M 0 0.621094 L 284.148438 0.621094 L 284.148438 83.09375 L 0 83.09375 Z M 0 0.621094 " fill-opacity="1" fill-rule="nonzero"/></g></g></g></g><g clip-path="url(#8fba3e2a88)"><g transform="matrix(1, 0, 0, 1, 49, 203)"><g clip-path="url(#ab4872bb37)"><g clip-path="url(#9b8591c56b)"><path fill="#ffbf00" d="M 0.535156 0.367188 L 274.484375 0.367188 L 274.484375 73.34375 L 0.535156 73.34375 Z M 0.535156 0.367188 " fill-opacity="1" fill-rule="nonzero"/></g></g></g></g><g clip-path="url(#56e58a02aa)"><g transform="matrix(1, 0, 0, 1, 49, 203)"><g clip-path="url(#09adb33ec9)"><g clip-path="url(#6fc352c198)"><path fill="#ffed00" d="M 0.539062 6.304688 L 0.539062 0.363281 L 274.4375 0.363281 L 274.4375 6.304688 Z M 0.539062 6.304688 " fill-opacity="1" fill-rule="nonzero"/></g></g></g></g><g clip-path="url(#d9d40dba5f)"><g transform="matrix(1, 0, 0, 1, 49, 205)"><g clip-path="url(#187b81f8c4)"><g clip-path="url(#098debbc2a)"><path fill="#ffed00" d="M 0.535156 71.335938 L 0.535156 0.894531 L 6.15625 0.894531 L 6.15625 71.335938 Z M 0.535156 71.335938 " fill-opacity="1" fill-rule="nonzero"/></g></g></g></g><g transform="matrix(1, 0, 0, 1, 72, 236)"><g clip-path="url(#972604eb2d)"><g clip-path="url(#91c0e5e521)"><g fill="#000000" fill-opacity="1"><g transform="translate(0.913048, 10.425543)"><g><path d="M 0 -1.25 L 0 -9.96875 L 7.484375 -9.96875 L 7.484375 -8.71875 L 8.71875 -8.71875 L 8.71875 -4.984375 L 7.484375 -4.984375 L 7.484375 -3.734375 L 2.5 -3.734375 L 2.5 -1.25 Z M 2.5 -4.984375 L 6.234375 -4.984375 L 6.234375 -8.71875 L 2.5 -8.71875 Z M 2.5 -4.984375 "/></g></g></g></g><g clip-path="url(#5cbbdf35d2)"><g fill="#000000" fill-opacity="1"><g transform="translate(10.886234, 10.425543)"><g><path d="M 1.25 -1.25 L 1.25 -9.96875 L 3.734375 -9.96875 L 3.734375 -2.5 L 8.71875 -2.5 L 8.71875 -1.25 Z M 1.25 -1.25 "/></g></g></g></g><g clip-path="url(#d84ba668fd)"><g fill="#000000" fill-opacity="1"><g transform="translate(20.859421, 10.425543)"><g><path d="M 0 -1.25 L 0 -7.484375 L 1.25 -7.484375 L 1.25 -8.71875 L 2.5 -8.71875 L 2.5 -9.96875 L 6.234375 -9.96875 L 6.234375 -8.71875 L 7.484375 -8.71875 L 7.484375 -7.484375 L 8.71875 -7.484375 L 8.71875 -1.25 L 6.234375 -1.25 L 6.234375 -3.734375 L 2.5 -3.734375 L 2.5 -1.25 Z M 2.5 -4.984375 L 6.234375 -4.984375 L 6.234375 -7.484375 L 4.984375 -7.484375 L 4.984375 -8.71875 L 3.734375 -8.71875 L 3.734375 -7.484375 L 2.5 -7.484375 Z M 2.5 -4.984375 "/></g></g></g></g><g clip-path="url(#3183d4a0cc)"><g fill="#000000" fill-opacity="1"><g transform="translate(30.832608, 10.425543)"><g><path d="M 3.734375 -1.25 L 3.734375 -4.984375 L 2.5 -4.984375 L 2.5 -6.234375 L 1.25 -6.234375 L 1.25 -9.96875 L 3.734375 -9.96875 L 3.734375 -6.234375 L 6.234375 -6.234375 L 6.234375 -9.96875 L 8.71875 -9.96875 L 8.71875 -6.234375 L 7.484375 -6.234375 L 7.484375 -4.984375 L 6.234375 -4.984375 L 6.234375 -1.25 Z M 3.734375 -1.25 "/></g></g></g></g><g clip-path="url(#dfc8f45ddc)"><g fill="#000000" fill-opacity="1"><g transform="translate(40.805795, 10.425543)"><g><path d="M 0 -1.25 L 0 -9.96875 L 8.71875 -9.96875 L 8.71875 -8.71875 L 2.5 -8.71875 L 2.5 -6.234375 L 7.484375 -6.234375 L 7.484375 -4.984375 L 2.5 -4.984375 L 2.5 -2.5 L 8.71875 -2.5 L 8.71875 -1.25 Z M 0 -1.25 "/></g></g></g></g><g clip-path="url(#94b179a30b)"><g fill="#000000" fill-opacity="1"><g transform="translate(50.778982, 10.425543)"><g><path d="M 0 -1.25 L 0 -9.96875 L 7.484375 -9.96875 L 7.484375 -8.71875 L 8.71875 -8.71875 L 8.71875 -4.984375 L 6.234375 -4.984375 L 6.234375 -3.734375 L 7.484375 -3.734375 L 7.484375 -2.5 L 8.71875 -2.5 L 8.71875 -1.25 L 4.984375 -1.25 L 4.984375 -2.5 L 3.734375 -2.5 L 3.734375 -3.734375 L 2.5 -3.734375 L 2.5 -1.25 Z M 2.5 -4.984375 L 4.984375 -4.984375 L 4.984375 -6.234375 L 6.234375 -6.234375 L 6.234375 -8.71875 L 2.5 -8.71875 Z M 2.5 -4.984375 "/></g></g></g></g><g clip-path="url(#fa99dfe555)"><g fill="#000000" fill-opacity="1"><g transform="translate(60.752169, 10.425543)"><g/></g></g></g><g clip-path="url(#8788f5f717)"><g fill="#000000" fill-opacity="1"><g transform="translate(70.725356, 10.425543)"><g><path d="M 1.25 -1.25 L 1.25 -2.5 L 3.734375 -2.5 L 3.734375 -7.484375 L 2.5 -7.484375 L 2.5 -8.71875 L 3.734375 -8.71875 L 3.734375 -9.96875 L 6.234375 -9.96875 L 6.234375 -2.5 L 8.71875 -2.5 L 8.71875 -1.25 Z M 1.25 -1.25 "/></g></g></g></g><g clip-path="url(#846de67457)"><g fill="#000000" fill-opacity="1"><g transform="translate(80.698543, 10.425543)"><g/></g></g></g><g clip-path="url(#253fb05b80)"><g fill="#000000" fill-opacity="1"><g transform="translate(90.67173, 10.425543)"><g><path d="M 1.25 -1.25 L 1.25 -2.5 L 0 -2.5 L 0 -9.96875 L 2.5 -9.96875 L 2.5 -4.984375 L 3.734375 -4.984375 L 3.734375 -9.96875 L 4.984375 -9.96875 L 4.984375 -4.984375 L 6.234375 -4.984375 L 6.234375 -9.96875 L 8.71875 -9.96875 L 8.71875 -2.5 L 7.484375 -2.5 L 7.484375 -1.25 L 6.234375 -1.25 L 6.234375 -2.5 L 4.984375 -2.5 L 4.984375 -3.734375 L 3.734375 -3.734375 L 3.734375 -2.5 L 2.5 -2.5 L 2.5 -1.25 Z M 1.25 -1.25 "/></g></g></g></g><g clip-path="url(#7b6d604a5f)"><g fill="#000000" fill-opacity="1"><g transform="translate(100.644917, 10.425543)"><g><path d="M 1.25 -1.25 L 1.25 -2.5 L 0 -2.5 L 0 -8.71875 L 1.25 -8.71875 L 1.25 -9.96875 L 7.484375 -9.96875 L 7.484375 -8.71875 L 8.71875 -8.71875 L 8.71875 -2.5 L 7.484375 -2.5 L 7.484375 -1.25 Z M 2.5 -2.5 L 6.234375 -2.5 L 6.234375 -8.71875 L 2.5 -8.71875 Z M 2.5 -2.5 "/></g></g></g></g><g clip-path="url(#87f5e2859c)"><g fill="#000000" fill-opacity="1"><g transform="translate(110.61811, 10.425543)"><g><path d="M 0 -1.25 L 0 -9.96875 L 2.5 -9.96875 L 2.5 -8.71875 L 3.734375 -8.71875 L 3.734375 -7.484375 L 4.984375 -7.484375 L 4.984375 -6.234375 L 6.234375 -6.234375 L 6.234375 -9.96875 L 8.71875 -9.96875 L 8.71875 -1.25 L 6.234375 -1.25 L 6.234375 -3.734375 L 4.984375 -3.734375 L 4.984375 -4.984375 L 3.734375 -4.984375 L 3.734375 -6.234375 L 2.5 -6.234375 L 2.5 -1.25 Z M 0 -1.25 "/></g></g></g></g><g clip-path="url(#19707be515)"><g fill="#000000" fill-opacity="1"><g transform="translate(120.591291, 10.425543)"><g/></g></g></g><g clip-path="url(#48bff90e7c)"><g fill="#000000" fill-opacity="1"><g transform="translate(130.564471, 10.425543)"><g><path d="M 3.734375 -1.25 L 3.734375 -8.71875 L 1.25 -8.71875 L 1.25 -9.96875 L 8.71875 -9.96875 L 8.71875 -8.71875 L 6.234375 -8.71875 L 6.234375 -1.25 Z M 3.734375 -1.25 "/></g></g></g></g><g clip-path="url(#4cde0f8e2b)"><g fill="#000000" fill-opacity="1"><g transform="translate(140.537665, 10.425543)"><g><path d="M 0 -1.25 L 0 -9.96875 L 2.5 -9.96875 L 2.5 -6.234375 L 6.234375 -6.234375 L 6.234375 -9.96875 L 8.71875 -9.96875 L 8.71875 -1.25 L 6.234375 -1.25 L 6.234375 -4.984375 L 2.5 -4.984375 L 2.5 -1.25 Z M 0 -1.25 "/></g></g></g></g><g clip-path="url(#182ef05002)"><g fill="#000000" fill-opacity="1"><g transform="translate(150.510858, 10.425543)"><g><path d="M 1.25 -1.25 L 1.25 -2.5 L 3.734375 -2.5 L 3.734375 -8.71875 L 1.25 -8.71875 L 1.25 -9.96875 L 8.71875 -9.96875 L 8.71875 -8.71875 L 6.234375 -8.71875 L 6.234375 -2.5 L 8.71875 -2.5 L 8.71875 -1.25 Z M 1.25 -1.25 "/></g></g></g></g><g clip-path="url(#a882857fee)"><g fill="#000000" fill-opacity="1"><g transform="translate(160.484039, 10.425543)"><g><path d="M 1.25 -1.25 L 1.25 -2.5 L 0 -2.5 L 0 -3.734375 L 2.5 -3.734375 L 2.5 -2.5 L 6.234375 -2.5 L 6.234375 -4.984375 L 1.25 -4.984375 L 1.25 -6.234375 L 0 -6.234375 L 0 -8.71875 L 1.25 -8.71875 L 1.25 -9.96875 L 7.484375 -9.96875 L 7.484375 -8.71875 L 8.71875 -8.71875 L 8.71875 -7.484375 L 6.234375 -7.484375 L 6.234375 -8.71875 L 2.5 -8.71875 L 2.5 -6.234375 L 7.484375 -6.234375 L 7.484375 -4.984375 L 8.71875 -4.984375 L 8.71875 -2.5 L 7.484375 -2.5 L 7.484375 -1.25 Z M 1.25 -1.25 "/></g></g></g></g><g clip-path="url(#0ce89f4c2c)"><g fill="#000000" fill-opacity="1"><g transform="translate(170.457219, 10.425543)"><g/></g></g></g><g clip-path="url(#74540946fb)"><g fill="#000000" fill-opacity="1"><g transform="translate(180.430413, 10.425543)"><g><path d="M 0 -1.25 L 0 -9.96875 L 7.484375 -9.96875 L 7.484375 -8.71875 L 8.71875 -8.71875 L 8.71875 -4.984375 L 6.234375 -4.984375 L 6.234375 -3.734375 L 7.484375 -3.734375 L 7.484375 -2.5 L 8.71875 -2.5 L 8.71875 -1.25 L 4.984375 -1.25 L 4.984375 -2.5 L 3.734375 -2.5 L 3.734375 -3.734375 L 2.5 -3.734375 L 2.5 -1.25 Z M 2.5 -4.984375 L 4.984375 -4.984375 L 4.984375 -6.234375 L 6.234375 -6.234375 L 6.234375 -8.71875 L 2.5 -8.71875 Z M 2.5 -4.984375 "/></g></g></g></g><g clip-path="url(#01da2b0891)"><g fill="#000000" fill-opacity="1"><g transform="translate(190.403606, 10.425543)"><g><path d="M 1.25 -1.25 L 1.25 -2.5 L 0 -2.5 L 0 -8.71875 L 1.25 -8.71875 L 1.25 -9.96875 L 7.484375 -9.96875 L 7.484375 -8.71875 L 8.71875 -8.71875 L 8.71875 -2.5 L 7.484375 -2.5 L 7.484375 -1.25 Z M 2.5 -2.5 L 6.234375 -2.5 L 6.234375 -8.71875 L 2.5 -8.71875 Z M 2.5 -2.5 "/></g></g></g></g><g clip-path="url(#90a76c5c7b)"><g fill="#000000" fill-opacity="1"><g transform="translate(200.376786, 10.425543)"><g><path d="M 1.25 -1.25 L 1.25 -2.5 L 0 -2.5 L 0 -9.96875 L 2.5 -9.96875 L 2.5 -2.5 L 6.234375 -2.5 L 6.234375 -9.96875 L 8.71875 -9.96875 L 8.71875 -2.5 L 7.484375 -2.5 L 7.484375 -1.25 Z M 1.25 -1.25 "/></g></g></g></g><g clip-path="url(#8133abe12d)"><g fill="#000000" fill-opacity="1"><g transform="translate(210.349967, 10.425543)"><g><path d="M 0 -1.25 L 0 -9.96875 L 2.5 -9.96875 L 2.5 -8.71875 L 3.734375 -8.71875 L 3.734375 -7.484375 L 4.984375 -7.484375 L 4.984375 -6.234375 L 6.234375 -6.234375 L 6.234375 -9.96875 L 8.71875 -9.96875 L 8.71875 -1.25 L 6.234375 -1.25 L 6.234375 -3.734375 L 4.984375 -3.734375 L 4.984375 -4.984375 L 3.734375 -4.984375 L 3.734375 -6.234375 L 2.5 -6.234375 L 2.5 -1.25 Z M 0 -1.25 "/></g></g></g></g><g clip-path="url(#fda37337ce)"><g fill="#000000" fill-opacity="1"><g transform="translate(220.323173, 10.425543)"><g><path d="M 0 -1.25 L 0 -9.96875 L 6.234375 -9.96875 L 6.234375 -8.71875 L 7.484375 -8.71875 L 7.484375 -7.484375 L 8.71875 -7.484375 L 8.71875 -3.734375 L 7.484375 -3.734375 L 7.484375 -2.5 L 6.234375 -2.5 L 6.234375 -1.25 Z M 2.5 -2.5 L 4.984375 -2.5 L 4.984375 -3.734375 L 6.234375 -3.734375 L 6.234375 -7.484375 L 4.984375 -7.484375 L 4.984375 -8.71875 L 2.5 -8.71875 Z M 2.5 -2.5 "/></g></g></g></g></g></g></svg>